<svg width="387.136719" height="114.410156" viewBox="0 0 387.137 114.41" fill="none" xmlns="http://www.w3.org/2000/svg" xmlns:xlink="http://www.w3.org/1999/xlink">
	<desc>
			Created with Pixso.
	</desc>
	<defs/>
	<rect width="386.637268" height="113.000000" transform="translate(0.500000 0.908203)" fill="#FFFFFF" fill-opacity="0"/>
	<path d="M77.4102 30.0469L77.4102 0.908203L120.533 28.1523L120.533 43.5488L77.4102 30.0469ZM77.4102 57.5273L77.4102 38.8125L120.533 52.7891L120.533 67.002L77.4102 57.5273ZM77.4102 66.0547L77.4102 86.6641L120.533 90.2188L120.533 75.7676L77.4102 66.0547ZM77.4102 113.434L77.4102 94.7188L120.533 99.457L120.533 113.434L77.4102 113.434Z" fill="#26252A" fill-opacity="1.000000" fill-rule="evenodd"/>
	<path d="M77.4102 30.0469L120.533 43.5488L120.533 28.1523L77.4102 0.908203L77.4102 30.0469ZM77.4102 57.5273L120.533 67.002L120.533 52.7891L77.4102 38.8125L77.4102 57.5273ZM77.4102 86.6641L120.533 90.2188L120.533 75.7676L77.4102 66.0547L77.4102 86.6641ZM77.4102 113.434L120.533 113.434L120.533 99.457L77.4102 94.7188L77.4102 113.434Z" stroke="#26252A" stroke-opacity="1.000000" stroke-width="1.000000"/>
	<path d="M0.5 28.3887L77.4102 0.908203L77.4102 30.0664L0.5 43.7871L0.5 28.3887ZM0.5 66.7656L0.5 51.8418L77.4102 38.8223L77.4102 57.5273L0.5 66.7656ZM0.5 75.0566L0.5 89.9824L77.4102 86.6641L77.4102 66.0664L0.5 75.0566ZM0.5 113.908L0.5 98.5098L77.4102 94.7188L77.4102 113.467L0.5 113.908Z" fill="#B80006" fill-opacity="1.000000" fill-rule="evenodd"/>
	<path d="M0.5 28.3887L0.5 43.7871L77.4102 30.0664L77.4102 0.908203L0.5 28.3887ZM0.5 66.7656L77.4102 57.5273L77.4102 38.8223L0.5 51.8418L0.5 66.7656ZM0.5 89.9824L77.4102 86.6641L77.4102 66.0664L0.5 75.0566L0.5 89.9824ZM0.5 113.908L77.4102 113.467L77.4102 94.7188L0.5 98.5098L0.5 113.908Z" stroke="#B80006" stroke-opacity="1.000000" stroke-width="1.000000"/>
	<path d="M318.484 40.9219C318.484 39.5566 318.975 38.3906 319.953 37.4258C320.934 36.4609 322.117 35.9785 323.504 35.9785C324.891 35.9785 326.074 36.4609 327.055 37.4258C328.033 38.3906 328.523 39.5566 328.523 40.9219C328.523 42.248 328.033 43.4141 327.055 44.4199C326.074 45.4238 324.891 45.9258 323.504 45.9258C322.117 45.9258 320.934 45.4434 319.953 44.4785C318.975 43.4746 318.484 42.2891 318.484 40.9219ZM138.193 41.4648L138.193 81.7383L129.379 81.7383L129.379 41.4648L138.193 41.4648ZM170.844 44.9609C173.332 47.1328 174.576 50.2871 174.576 54.4277Q174.576 58.6543 172.609 61.541L172.609 61.543Q171.715 62.8555 170.414 63.8926C168.986 65.0176 167.252 65.8223 165.213 66.3047C163.172 66.7871 160.438 67.0273 157.01 67.0273L155.48 67.0273L155.48 81.7383L146.666 81.7383L146.666 41.4648L158.48 41.4648C161.58 41.4648 164.049 41.7266 165.885 42.248Q167.477 42.6914 168.854 43.5L168.854 43.5Q169.912 44.123 170.844 44.9609ZM203.223 76.6133L196.797 76.6133L188.35 52.8594L187.371 81.7383L179.23 81.7383L181.617 41.4648L191.166 41.4648L199.979 67.3887L208.854 41.4648L218.402 41.4648L220.789 81.7383L212.588 81.7383L211.607 52.9199L203.223 76.6133ZM237.037 74.7441L252.645 74.7441L252.645 81.7383L228.162 81.7383L228.162 41.4648L237.037 41.4648L237.037 74.7441ZM364.391 71.791L364.391 56.6582L358.883 56.2969L358.883 51.3516L364.574 50.8691L364.574 43.8164L373.145 43.0918L373.145 50.8105L382.08 50.8105L381.59 56.6582L373.082 56.6582L373.082 72.5742C373.082 73.7402 373.266 74.584 373.633 75.1055C374 75.5879 374.775 75.8301 375.959 75.8301Q377.734 75.8301 379.938 75.2871L381.223 81.2559C379.223 82.0996 377.184 82.5215 375.102 82.5215C373.062 82.5215 371.512 82.4004 370.451 82.1602C369.43 81.918 368.574 81.6367 367.881 81.3164C367.227 80.9941 366.656 80.5312 366.166 79.9297C365.717 79.2871 365.371 78.7227 365.125 78.2402C364.922 77.7598 364.758 77.0762 364.637 76.1914C364.473 74.9863 364.391 73.5176 364.391 71.791ZM163.928 59.3711C165.314 58.4453 166.008 56.7383 166.008 54.2461Q166.008 50.9258 164.371 49.541Q164.135 49.3418 163.865 49.1816Q161.785 47.8555 157.072 47.8555L155.48 47.8555L155.48 60.6367L156.154 60.6367C160.193 60.6367 162.785 60.2148 163.928 59.3711ZM299.314 50.0859L304.699 50.3867C307.883 50.3867 311.248 50.0859 314.799 49.4824L315.533 54.125C314.758 54.3262 312.637 54.668 309.168 55.1504C310.596 57.1191 311.311 59.3516 311.311 61.8418C311.311 65.2988 310.289 68.1133 308.25 70.2832C306.25 72.4531 303.354 73.5391 299.559 73.5391C298.211 73.5391 297.131 73.4375 296.314 73.2363C296.07 73.9609 295.947 74.584 295.947 75.1055C295.947 76.4316 297.109 77.0957 299.436 77.0957L304.699 77.0957C307.842 77.0957 310.289 77.7988 312.045 79.2051C313.799 80.5723 314.676 82.4824 314.676 84.9336C314.676 88.5098 313.289 91.3242 310.514 93.373C307.74 95.4238 304.148 96.4492 299.742 96.4492C295.336 96.4492 291.99 95.7051 289.705 94.2188C287.461 92.7715 286.338 90.7012 286.338 88.0078C286.338 86.4414 286.869 84.9531 287.93 83.5469C288.99 82.1406 290.48 81.0137 292.396 80.1699C291.092 79.3262 290.439 78.1211 290.439 76.5527C290.439 74.9453 291.051 73.3379 292.275 71.7305C290.807 70.6855 289.664 69.2988 288.848 67.5703Q288.57 66.9707 288.357 66.3496Q287.623 64.2227 287.623 61.8418C287.623 58.3457 288.604 55.5117 290.561 53.3418C292.561 51.1719 295.479 50.0859 299.314 50.0859ZM327.85 81.7383L319.281 81.7383L319.281 50.8691L327.85 50.1465L327.85 81.7383ZM346.217 56.7773C343.441 56.7773 342.055 57.6816 342.055 59.4922C342.055 60.4551 342.523 61.2793 343.463 61.9629C344.4 62.6465 345.523 63.25 346.828 63.7715C348.176 64.2539 349.502 64.8164 350.807 65.459C352.154 66.0625 353.297 66.9473 354.234 68.1133C355.174 69.2773 355.643 70.7051 355.643 72.3926Q355.643 75.1348 354.496 77.2539Q353.75 78.6328 352.521 79.748C350.439 81.5977 347.379 82.5215 343.34 82.5215C341.504 82.5215 339.566 82.3203 337.525 81.918C335.525 81.5176 334.057 81.0547 333.119 80.5312L335.199 74.5039C338.383 75.5488 341.238 76.0703 343.768 76.0703C346.34 76.0703 347.625 75.0859 347.625 73.1172C347.625 72.2734 347.154 71.5098 346.217 70.8262C345.277 70.1426 344.135 69.5195 342.789 68.957C341.484 68.3535 340.158 67.7109 338.811 67.0273C337.506 66.3438 336.383 65.3789 335.445 64.1328C334.506 62.8867 334.037 61.4414 334.037 59.793C334.037 56.6973 335.078 54.3262 337.158 52.6777C339.24 51.0312 342.219 50.207 346.094 50.207C349.971 50.207 353.01 50.8301 355.213 52.0762L353.193 58.0449C350.379 57.2012 348.053 56.7773 346.217 56.7773ZM282.805 66.3633C282.805 71.9512 281.539 76.0508 279.01 78.6641C276.479 81.2363 273.154 82.5215 269.033 82.5215C264.912 82.5215 261.627 81.2363 259.18 78.6641C256.771 76.0918 255.568 72.0117 255.568 66.4238C255.568 60.8379 256.812 56.7578 259.301 54.1855C261.83 51.5742 265.137 50.2676 269.217 50.2676C278.275 50.2676 282.805 55.6328 282.805 66.3633ZM299.498 56.4766C296.682 56.4766 295.273 58.2852 295.273 61.9023C295.273 63.6719 295.6 64.957 296.254 65.7617C296.947 66.5645 298.027 66.9668 299.498 66.9668C300.967 66.9668 302.027 66.5645 302.68 65.7617C303.332 64.957 303.658 63.6504 303.658 61.8418C303.658 59.9941 303.332 58.6465 302.68 57.8027C302.027 56.918 300.967 56.4766 299.498 56.4766ZM274.48 66.3047C274.48 62.6055 274.031 60.0938 273.133 58.7676C272.236 57.4414 270.91 56.7773 269.154 56.7773Q267.709 56.7773 266.629 57.4082Q265.793 57.8984 265.178 58.7676C264.279 60.0938 263.83 62.6465 263.83 66.4238C263.83 72.8555 265.605 76.0703 269.154 76.0703Q270.379 76.0703 271.342 75.5684Q272.352 75.041 273.072 73.9609C274.012 72.5137 274.48 69.9609 274.48 66.3047ZM302.74 83.125L296.559 83.125C294.479 83.8086 293.438 85.0332 293.438 86.8027C293.438 89.0527 295.764 90.1777 300.416 90.1777C305.066 90.1777 307.393 88.7109 307.393 85.7773C307.393 84.8926 307.045 84.2305 306.352 83.7871C305.699 83.3457 304.496 83.125 302.74 83.125Z" fill="#FFFFFF" fill-opacity="1.000000" fill-rule="evenodd"/>
	<path d="M142.262 106.697C141.443 106.697 140.727 106.496 140.109 106.094Q139.928 105.975 139.76 105.836Q139.088 105.275 138.672 104.406Q138.16 103.322 138.16 101.873Q138.16 100.41 138.672 99.3203Q139.094 98.4336 139.779 97.8691L139.779 97.8691Q139.938 97.7402 140.109 97.627Q140.285 97.5137 140.471 97.4199L140.471 97.4199Q141.268 97.0234 142.262 97.0234C143.078 97.0234 143.793 97.2246 144.406 97.627Q144.605 97.7559 144.785 97.9082Q145.441 98.4648 145.844 99.3203Q146.363 100.41 146.363 101.873C146.363 102.84 146.189 103.684 145.844 104.406Q145.449 105.244 144.807 105.795L144.807 105.795Q144.617 105.957 144.406 106.094Q144.242 106.203 144.066 106.291Q143.268 106.697 142.262 106.697ZM170.354 106.723C169.779 106.723 169.26 106.611 168.791 106.387C168.324 106.16 167.953 105.832 167.678 105.406C167.402 104.977 167.266 104.455 167.266 103.846C167.266 103.311 167.367 102.877 167.572 102.543C167.775 102.205 168.049 101.941 168.391 101.75C168.732 101.561 169.109 101.418 169.521 101.324C169.939 101.227 170.357 101.15 170.777 101.094C171.328 101.02 171.773 100.965 172.115 100.928C172.461 100.889 172.713 100.82 172.869 100.727C173.031 100.635 173.111 100.471 173.111 100.24L173.111 100.191C173.111 99.5898 172.953 99.123 172.635 98.791Q172.615 98.7715 172.598 98.752Q172.125 98.291 171.201 98.291C170.537 98.291 170.018 98.4414 169.641 98.7422Q169.074 99.1914 168.844 99.7031L167.523 99.2168Q167.879 98.3633 168.467 97.8887C168.863 97.5684 169.297 97.3438 169.764 97.2188C170.236 97.0879 170.699 97.0234 171.154 97.0234Q171.592 97.0234 172.156 97.1328C172.537 97.2012 172.904 97.3457 173.258 97.5664C173.617 97.7852 173.912 98.1152 174.148 98.5586C174.385 99.002 174.502 99.5938 174.502 100.338L174.502 106.502L173.111 106.502L173.111 105.236L173.041 105.236C172.947 105.439 172.789 105.656 172.568 105.887C172.35 106.119 172.057 106.316 171.691 106.479C171.326 106.641 170.879 106.723 170.354 106.723ZM193.02 110.012L193.02 97.1445L194.363 97.1445L194.363 98.6309L194.527 98.6309C194.629 98.4688 194.771 98.2617 194.951 98.0098C195.137 97.7539 195.4 97.5273 195.742 97.3281Q196.26 97.0234 197.145 97.0234C197.906 97.0234 198.578 97.2207 199.16 97.6152C199.742 98.0078 200.195 98.5664 200.521 99.2891C200.848 100.012 201.01 100.865 201.01 101.848C201.01 102.84 200.848 103.699 200.521 104.426C200.195 105.148 199.744 105.709 199.166 106.107Q198.92 106.275 198.65 106.395L198.65 106.395Q197.977 106.697 197.168 106.697C196.586 106.697 196.121 106.598 195.771 106.398C195.422 106.195 195.152 105.967 194.963 105.711Q194.682 105.32 194.527 105.064L194.41 105.064L194.41 110.012L193.02 110.012ZM207.592 106.697C206.719 106.697 205.967 106.498 205.334 106.102C204.705 105.699 204.221 105.139 203.879 104.42Q203.371 103.334 203.371 101.896Q203.371 100.459 203.879 99.3633Q204.307 98.4434 205.012 97.8633L205.012 97.8633L205.012 97.8633Q205.152 97.7461 205.305 97.6445C205.918 97.2305 206.633 97.0234 207.449 97.0234C207.922 97.0234 208.387 97.1055 208.846 97.2676C209.307 97.4297 209.725 97.6934 210.102 98.0586C210.479 98.4199 210.779 98.9004 211.004 99.4961C211.227 100.094 211.34 100.828 211.34 101.703L211.34 102.311L204.766 102.311C204.785 102.934 204.902 103.469 205.115 103.914C205.355 104.4 205.688 104.773 206.111 105.029C206.537 105.281 207.029 105.406 207.592 105.406C207.957 105.406 208.287 105.354 208.582 105.248C208.879 105.139 209.137 104.977 209.354 104.76C209.57 104.541 209.736 104.27 209.854 103.943L211.197 104.334C211.057 104.805 210.818 105.219 210.484 105.576C210.15 105.93 209.738 106.207 209.248 106.406C208.756 106.6 208.203 106.697 207.592 106.697ZM270.016 106.697Q268.75 106.697 267.82 106.139Q267.789 106.119 267.76 106.102C267.131 105.699 266.645 105.139 266.303 104.42Q265.797 103.334 265.797 101.896Q265.797 100.459 266.303 99.3633Q266.73 98.4434 267.438 97.8633L267.438 97.8633L267.438 97.8613Q267.578 97.7461 267.73 97.6445C268.342 97.2305 269.057 97.0234 269.875 97.0234C270.346 97.0234 270.812 97.1055 271.271 97.2676C271.73 97.4297 272.15 97.6934 272.527 98.0586C272.904 98.4199 273.205 98.9004 273.428 99.4961C273.652 100.094 273.764 100.828 273.764 101.703L273.764 102.311L267.191 102.311C267.211 102.934 267.328 103.469 267.541 103.914C267.781 104.4 268.113 104.773 268.537 105.029C268.961 105.281 269.455 105.406 270.016 105.406C270.381 105.406 270.711 105.354 271.006 105.248C271.305 105.139 271.562 104.977 271.779 104.76C271.994 104.541 272.162 104.27 272.279 103.943L273.623 104.334C273.482 104.805 273.244 105.219 272.91 105.576C272.576 105.93 272.164 106.207 271.672 106.406C271.182 106.6 270.629 106.697 270.016 106.697ZM280.34 106.697C279.467 106.697 278.715 106.498 278.082 106.102C277.453 105.699 276.969 105.139 276.627 104.42Q276.119 103.334 276.119 101.896Q276.119 100.459 276.627 99.3633Q277.055 98.4434 277.76 97.8633L277.76 97.8633L277.762 97.8613Q277.902 97.7461 278.053 97.6445C278.666 97.2305 279.381 97.0234 280.197 97.0234C280.67 97.0234 281.135 97.1055 281.594 97.2676Q281.66 97.291 281.725 97.3164L281.734 97.3203Q282.342 97.5664 282.85 98.0586C283.227 98.4199 283.527 98.9004 283.752 99.4961C283.977 100.094 284.088 100.828 284.088 101.703L284.088 102.311L277.514 102.311Q277.543 103.246 277.863 103.914C278.104 104.4 278.436 104.773 278.859 105.029C279.285 105.281 279.777 105.406 280.34 105.406C280.705 105.406 281.035 105.354 281.33 105.248C281.629 105.139 281.885 104.977 282.102 104.76C282.318 104.541 282.484 104.27 282.602 103.943L283.945 104.334C283.805 104.805 283.566 105.219 283.232 105.576C282.898 105.93 282.486 106.207 281.996 106.406C281.504 106.6 280.953 106.697 280.34 106.697ZM300.838 104.115L302.322 104.115C302.354 104.537 302.539 104.857 302.877 105.078C303.219 105.297 303.662 105.406 304.209 105.406C304.768 105.406 305.244 105.289 305.641 105.053C306.037 104.812 306.236 104.428 306.236 103.895C306.236 103.582 306.162 103.311 306.012 103.078C305.863 102.844 305.652 102.66 305.381 102.531C305.111 102.4 304.791 102.336 304.422 102.336L302.865 102.336L302.865 101.045L304.422 101.045C304.975 101.045 305.383 100.914 305.646 100.654C305.914 100.395 306.047 100.07 306.047 99.6797C306.047 99.2617 305.904 98.9258 305.617 98.6738C305.33 98.418 304.924 98.291 304.396 98.291C303.867 98.291 303.426 98.4141 303.072 98.6621C302.717 98.9062 302.531 99.2207 302.512 99.6074L301.051 99.6074C301.066 99.1035 301.215 98.6582 301.498 98.2715Q301.551 98.2012 301.607 98.1328L301.607 98.1328Q302.012 97.6465 302.652 97.3594C303.141 97.1348 303.697 97.0234 304.326 97.0234C304.963 97.0234 305.516 97.1387 305.982 97.3711C306.455 97.5977 306.818 97.9082 307.072 98.3027C307.332 98.6934 307.461 99.1348 307.461 99.6309Q307.461 100.318 307.137 100.777Q307.088 100.846 307.031 100.91C306.744 101.234 306.385 101.467 305.953 101.605L305.953 101.703C306.295 101.727 306.592 101.84 306.844 102.043C307.098 102.242 307.297 102.504 307.438 102.83C307.58 103.15 307.65 103.506 307.65 103.895C307.65 104.465 307.504 104.959 307.209 105.383C306.914 105.801 306.51 106.125 305.994 106.357C305.48 106.584 304.893 106.697 304.232 106.697C303.592 106.697 303.018 106.59 302.512 106.375C302.004 106.156 301.602 105.854 301.303 105.467C301.008 105.078 300.854 104.627 300.838 104.115ZM323.256 106.723C322.682 106.723 322.16 106.611 321.693 106.387C321.227 106.16 320.854 105.832 320.58 105.406C320.305 104.977 320.166 104.455 320.166 103.846C320.166 103.311 320.27 102.877 320.473 102.543C320.678 102.205 320.951 101.941 321.293 101.75C321.635 101.561 322.012 101.418 322.424 101.324C322.84 101.227 323.26 101.15 323.68 101.094C324.229 101.02 324.676 100.965 325.018 100.928C325.363 100.889 325.615 100.82 325.771 100.727C325.932 100.635 326.014 100.471 326.014 100.24L326.014 100.191C326.014 99.5898 325.854 99.123 325.535 98.791C325.221 98.457 324.744 98.291 324.104 98.291C323.439 98.291 322.92 98.4414 322.541 98.7422C322.164 99.041 321.9 99.3633 321.746 99.7031L320.426 99.2168C320.662 98.6484 320.977 98.2051 321.369 97.8887C321.766 97.5684 322.197 97.3438 322.666 97.2188C323.137 97.0879 323.602 97.0234 324.057 97.0234C324.348 97.0234 324.682 97.0605 325.059 97.1328C325.439 97.2012 325.807 97.3457 326.16 97.5664Q326.697 97.8945 327.051 98.5586C327.285 99.002 327.404 99.5938 327.404 100.338L327.404 106.502L326.014 106.502L326.014 105.236L325.941 105.236C325.848 105.439 325.691 105.656 325.471 105.887C325.25 106.119 324.959 106.316 324.594 106.479Q324.045 106.723 323.256 106.723ZM344.596 106.697C343.723 106.697 342.971 106.498 342.338 106.102C341.709 105.699 341.225 105.139 340.883 104.42C340.545 103.697 340.375 102.855 340.375 101.896C340.375 100.939 340.545 100.094 340.883 99.3633C341.225 98.627 341.699 98.0547 342.309 97.6445C342.922 97.2305 343.637 97.0234 344.453 97.0234C344.926 97.0234 345.391 97.1055 345.85 97.2676C346.311 97.4297 346.729 97.6934 347.105 98.0586C347.482 98.4199 347.783 98.9004 348.008 99.4961C348.23 100.094 348.344 100.828 348.344 101.703L348.344 102.311L341.77 102.311C341.789 102.934 341.906 103.469 342.119 103.914C342.359 104.4 342.691 104.773 343.115 105.029C343.541 105.281 344.033 105.406 344.596 105.406C344.961 105.406 345.291 105.354 345.586 105.248C345.885 105.139 346.141 104.977 346.357 104.76C346.574 104.541 346.74 104.27 346.857 103.943L348.201 104.334C348.061 104.805 347.822 105.219 347.488 105.576C347.154 105.93 346.742 106.207 346.252 106.406C345.76 106.6 345.209 106.697 344.596 106.697ZM375.809 106.697C374.936 106.697 374.184 106.498 373.551 106.102C372.922 105.699 372.438 105.139 372.096 104.42C371.758 103.697 371.588 102.855 371.588 101.896C371.588 100.939 371.758 100.094 372.096 99.3633C372.438 98.627 372.912 98.0547 373.521 97.6445C374.135 97.2305 374.85 97.0234 375.666 97.0234C376.139 97.0234 376.604 97.1055 377.062 97.2676C377.523 97.4297 377.941 97.6934 378.318 98.0586C378.695 98.4199 378.996 98.9004 379.221 99.4961C379.443 100.094 379.557 100.828 379.557 101.703L379.557 102.311L372.982 102.311Q373.012 103.246 373.332 103.914C373.572 104.4 373.904 104.773 374.328 105.029C374.752 105.281 375.246 105.406 375.809 105.406C376.174 105.406 376.504 105.354 376.797 105.248C377.096 105.139 377.354 104.977 377.57 104.76C377.785 104.541 377.953 104.27 378.07 103.943L379.414 104.334C379.273 104.805 379.035 105.219 378.701 105.576C378.367 105.93 377.955 106.207 377.463 106.406C376.973 106.6 376.42 106.697 375.809 106.697ZM336.193 103.24C336.164 103.25 336.135 103.26 336.105 103.268C335.795 103.357 335.469 103.428 335.127 103.48Q334.613 103.555 334 103.555C332.975 103.555 332.152 103.268 331.531 102.695C330.914 102.123 330.605 101.264 330.605 100.119L330.605 97.1211L331.998 97.1211L331.998 100.119C331.998 100.598 332.086 100.992 332.262 101.301C332.439 101.609 332.68 101.838 332.98 101.988C333.283 102.139 333.623 102.215 334 102.215C334.59 102.215 335.123 102.158 335.598 102.049C335.797 102.002 335.994 101.949 336.193 101.891L336.193 97.1445L337.584 97.1445L337.584 106.502L336.193 106.502L336.193 103.24ZM129.379 106.502L129.379 97.1445L130.77 97.1445L130.77 101.215L131.689 101.215L134.941 97.1445L136.734 97.1445L133.08 101.654L136.781 106.502L134.99 106.502L132.02 102.555L130.77 102.555L130.77 106.502L129.379 106.502ZM154.736 97.1445L154.736 98.4863L150.541 98.4863L150.541 106.502L149.15 106.502L149.15 97.1445L154.736 97.1445ZM155.703 109.184L155.703 105.162L156.457 105.162C156.643 104.963 156.801 104.748 156.936 104.518C157.068 104.285 157.184 104.012 157.283 103.695C157.385 103.373 157.471 102.984 157.541 102.525C157.613 102.062 157.676 101.504 157.73 100.85L158.037 97.1445L163.789 97.1445L163.789 105.162L165.18 105.162L165.18 109.184L163.789 109.184L163.789 106.502L157.094 106.502L157.094 109.184L155.703 109.184ZM183.035 106.502L183.035 97.1445L186.736 97.1445C187.711 97.1445 188.486 97.373 189.059 97.8281C189.633 98.2832 189.92 98.8828 189.92 99.6309C189.92 100.199 189.756 100.641 189.43 100.953C189.104 101.262 188.686 101.471 188.176 101.58C188.51 101.629 188.834 101.75 189.148 101.945C189.465 102.141 189.729 102.408 189.938 102.75Q190.25 103.256 190.25 103.992C190.25 104.473 190.131 104.9 189.896 105.279C189.66 105.656 189.322 105.955 188.883 106.174C188.441 106.393 187.916 106.502 187.303 106.502L183.035 106.502ZM215.51 99.2129L215.51 106.502L214.119 106.502L214.119 97.1445L215.957 97.1445L219.07 104.553L222.229 97.1445L224.02 97.1445L224.02 106.502L222.629 106.502L222.629 99.3438L219.635 106.502L218.504 106.502L215.51 99.2129ZM232.676 106.502L232.676 102.701L230.248 102.701L228.148 106.502L226.641 106.502L228.848 102.506Q228.678 102.445 228.52 102.367C228.076 102.143 227.734 101.824 227.494 101.41C227.256 100.992 227.135 100.496 227.135 99.9238C227.135 99.3457 227.262 98.8516 227.512 98.4375C227.764 98.0234 228.123 97.7031 228.592 97.4805C229.062 97.2578 229.623 97.1445 230.271 97.1445L233.996 97.1445L233.996 106.502L232.676 106.502ZM243.936 104.383L248.295 97.1445L249.898 97.1445L249.898 106.502L248.508 106.502L248.508 99.2656L244.17 106.502L242.543 106.502L242.543 97.1445L243.936 97.1445L243.936 104.383ZM254.502 99.2129L254.502 106.502L253.109 106.502L253.109 97.1445L254.949 97.1445L258.061 104.553L261.219 97.1445L263.012 97.1445L263.012 106.502L261.621 106.502L261.621 99.3438L258.627 106.502L257.494 106.502L254.502 99.2129ZM286.025 98.4863L286.025 97.1445L293.379 97.1445L293.379 98.4863L290.408 98.4863L290.408 106.502L289.018 106.502L289.018 98.4863L286.025 98.4863ZM311.658 97.1445L311.658 101.166L315.996 101.166L315.996 97.1445L317.387 97.1445L317.387 106.502L315.996 106.502L315.996 102.506L311.658 102.506L311.658 106.502L310.268 106.502L310.268 97.1445L311.658 97.1445ZM352.514 97.1445L352.514 101.166L356.852 101.166L356.852 97.1445L358.242 97.1445L358.242 106.502L356.852 106.502L356.852 102.506L352.514 102.506L352.514 106.502L351.123 106.502L351.123 97.1445L352.514 97.1445ZM362.838 104.383L367.197 97.1445L368.801 97.1445L368.801 106.502L367.41 106.502L367.41 99.2656L363.072 106.502L361.445 106.502L361.445 97.1445L362.838 97.1445L362.838 104.383ZM142.262 105.406C142.883 105.406 143.393 105.242 143.793 104.912C144.193 104.584 144.49 104.15 144.684 103.615C144.877 103.078 144.973 102.498 144.973 101.873C144.973 101.248 144.877 100.664 144.684 100.125C144.49 99.584 144.193 99.1484 143.793 98.8145C143.393 98.4824 142.883 98.3145 142.262 98.3145Q141.463 98.3145 140.908 98.6816L140.906 98.6816Q140.814 98.7441 140.729 98.8145C140.328 99.1484 140.031 99.584 139.84 100.125Q139.551 100.936 139.551 101.873C139.551 102.498 139.646 103.078 139.84 103.615C140.031 104.15 140.328 104.584 140.729 104.912Q140.807 104.977 140.889 105.031L140.889 105.031Q141.449 105.406 142.262 105.406ZM194.387 101.824C194.387 102.531 194.486 103.154 194.688 103.695C194.887 104.23 195.18 104.65 195.564 104.955C195.949 105.256 196.422 105.406 196.979 105.406C197.561 105.406 198.047 105.248 198.436 104.932C198.828 104.609 199.123 104.18 199.318 103.639C199.52 103.096 199.619 102.49 199.619 101.824C199.619 101.166 199.521 100.572 199.324 100.045Q199.068 99.334 198.57 98.8887Q198.51 98.834 198.447 98.7832C198.059 98.4707 197.568 98.3145 196.979 98.3145Q196.26 98.3145 195.734 98.6348L195.734 98.6348Q195.641 98.6934 195.553 98.7598C195.168 99.0527 194.877 99.4629 194.682 99.9902Q194.387 100.775 194.387 101.824ZM204.77 101.068L209.926 101.068C209.926 100.541 209.822 100.07 209.619 99.6543C209.418 99.2402 209.131 98.9141 208.758 98.6738C208.389 98.4355 207.953 98.3145 207.449 98.3145C206.896 98.3145 206.416 98.457 206.012 98.7422C205.611 99.0215 205.303 99.3867 205.086 99.8379Q204.977 100.068 204.902 100.311Q204.793 100.678 204.77 101.068ZM267.193 101.068L272.35 101.068C272.35 100.541 272.248 100.07 272.043 99.6543C271.844 99.2402 271.557 98.9141 271.184 98.6738C270.814 98.4355 270.377 98.3145 269.875 98.3145C269.32 98.3145 268.842 98.457 268.438 98.7422C268.035 99.0215 267.729 99.3867 267.512 99.8379C267.326 100.225 267.221 100.635 267.193 101.068ZM277.518 101.068L282.674 101.068Q282.674 100.277 282.367 99.6543Q282.18 99.2676 281.891 98.9805Q281.717 98.8086 281.506 98.6738C281.137 98.4355 280.701 98.3145 280.197 98.3145C279.645 98.3145 279.164 98.457 278.76 98.7422C278.359 99.0215 278.051 99.3867 277.834 99.8379Q277.725 100.068 277.65 100.312Q277.541 100.678 277.518 101.068ZM341.773 101.068L346.93 101.068C346.93 100.541 346.826 100.07 346.623 99.6543C346.422 99.2402 346.135 98.9141 345.762 98.6738C345.393 98.4355 344.957 98.3145 344.453 98.3145C343.9 98.3145 343.42 98.457 343.016 98.7422C342.615 99.0215 342.307 99.3867 342.09 99.8379C341.906 100.225 341.799 100.635 341.773 101.068ZM372.986 101.068L378.141 101.068C378.141 100.541 378.039 100.07 377.836 99.6543C377.635 99.2402 377.348 98.9141 376.975 98.6738C376.605 98.4355 376.17 98.3145 375.666 98.3145C375.113 98.3145 374.633 98.457 374.229 98.7422C373.828 99.0215 373.52 99.3867 373.303 99.8379C373.117 100.225 373.012 100.635 372.986 101.068ZM184.355 101.068L186.736 101.068C187.111 101.068 187.43 101.016 187.697 100.91C187.965 100.801 188.17 100.646 188.311 100.447C188.455 100.244 188.529 100.004 188.529 99.7285C188.529 99.334 188.369 99.0254 188.051 98.8027C187.732 98.5742 187.295 98.4609 186.736 98.4609L184.355 98.4609L184.355 101.068ZM232.676 101.361L232.676 98.4609L230.271 98.4609Q229.457 98.4609 228.992 98.8516C228.682 99.1113 228.525 99.4688 228.525 99.9238C228.525 100.369 228.666 100.721 228.945 100.977Q228.971 101 228.996 101.021Q229.414 101.361 230.105 101.361L232.676 101.361ZM158.037 105.162L162.398 105.162L162.398 98.4863L159.334 98.4863L159.098 100.85C159 101.828 158.877 102.684 158.732 103.414C158.586 104.145 158.355 104.729 158.037 105.162ZM170.564 105.43C171.115 105.43 171.578 105.318 171.957 105.096C172.338 104.873 172.625 104.584 172.816 104.23C173.014 103.877 173.111 103.506 173.111 103.115L173.111 101.799C173.053 101.873 172.922 101.939 172.723 102C172.525 102.057 172.299 102.107 172.039 102.152C171.783 102.193 171.533 102.23 171.291 102.264C171.051 102.291 170.855 102.316 170.707 102.336C170.346 102.385 170.008 102.463 169.693 102.574C169.383 102.68 169.131 102.84 168.939 103.055C168.75 103.266 168.656 103.555 168.656 103.92C168.656 104.42 168.834 104.797 169.191 105.053C169.555 105.305 170.012 105.43 170.564 105.43ZM323.467 105.43C324.018 105.43 324.48 105.318 324.857 105.096C325.238 104.873 325.525 104.584 325.719 104.23C325.914 103.877 326.014 103.506 326.014 103.115L326.014 101.799C325.955 101.873 325.824 101.939 325.625 102C325.428 102.057 325.199 102.107 324.941 102.152C324.686 102.193 324.436 102.23 324.191 102.264C323.953 102.291 323.758 102.316 323.609 102.336C323.248 102.385 322.91 102.463 322.596 102.574C322.285 102.68 322.033 102.84 321.84 103.055C321.652 103.266 321.559 103.555 321.559 103.92C321.559 104.42 321.736 104.797 322.094 105.053C322.455 105.305 322.914 105.43 323.467 105.43ZM184.355 105.188L187.303 105.188C187.783 105.188 188.158 105.068 188.428 104.834C188.699 104.598 188.836 104.277 188.836 103.871C188.836 103.389 188.699 103.008 188.428 102.732C188.158 102.451 187.783 102.311 187.303 102.311L184.355 102.311L184.355 105.188Z" fill="#FFFFFF" fill-opacity="1.000000" fill-rule="evenodd"/>
</svg>
