<svg width="307" height="89" viewBox="0 0 307 89" fill="none" xmlns="http://www.w3.org/2000/svg">
<path d="M61.8703 23.434V1L96 21.9748V33.8302L61.8703 23.434Z" fill="#26252A"/>
<path d="M61.8703 44.5912V30.1824L96 40.9434V51.8868L61.8703 44.5912Z" fill="#26252A"/>
<path d="M61.8703 67.0252V51.1572L96 58.6352V69.761L61.8703 67.0252Z" fill="#26252A"/>
<path d="M61.8703 87.6352V73.2264L96 76.8742V87.6352H61.8703Z" fill="#26252A"/>
<path d="M61.8703 23.434V1L96 21.9748V33.8302L61.8703 23.434Z" stroke="#26252A"/>
<path d="M61.8703 44.5912V30.1824L96 40.9434V51.8868L61.8703 44.5912Z" stroke="#26252A"/>
<path d="M61.8703 67.0252V51.1572L96 58.6352V69.761L61.8703 67.0252Z" stroke="#26252A"/>
<path d="M61.8703 87.6352V73.2264L96 76.8742V87.6352H61.8703Z" stroke="#26252A"/>
<path d="M1 22.1572L61.8704 1V23.4486L1 34.0126V22.1572Z" fill="#B80006"/>
<path d="M1 51.7044V40.2138L61.8704 30.1899V44.5912L1 51.7044Z" fill="#B80006"/>
<path d="M1 69.5786V58.0881L61.8704 51.1654V67.0252L1 69.5786Z" fill="#B80006"/>
<path d="M1 88V76.1447L61.8704 73.2264V87.6603L1 88Z" fill="#B80006"/>
<path d="M1 22.1572L61.8704 1V23.4486L1 34.0126V22.1572Z" stroke="#B80006"/>
<path d="M1 51.7044V40.2138L61.8704 30.1899V44.5912L1 51.7044Z" stroke="#B80006"/>
<path d="M1 69.5786V58.0881L61.8704 51.1654V67.0252L1 69.5786Z" stroke="#B80006"/>
<path d="M1 88V76.1447L61.8704 73.2264V87.6603L1 88Z" stroke="#B80006"/>
<path d="M113.975 36.3626V67.3694H107V36.3626H113.975Z" fill="white"/>
<path d="M139.816 39.0548C141.786 40.7259 142.771 43.155 142.771 46.3424C142.771 49.4987 141.673 51.9279 139.477 53.6299C138.347 54.4963 136.974 55.1152 135.36 55.4866C133.745 55.8579 131.581 56.0436 128.869 56.0436H127.658V67.3694H120.682V36.3626H130.031C132.486 36.3626 134.439 36.5638 135.893 36.9661C137.378 37.3684 138.686 38.0646 139.816 39.0548ZM134.343 50.1486C135.441 49.4368 135.99 48.1217 135.99 46.2031C135.99 44.2536 135.424 42.9539 134.294 42.3041C133.196 41.6233 131.404 41.2829 128.917 41.2829H127.658V51.1233H128.191C131.388 51.1233 133.438 50.7984 134.343 50.1486Z" fill="white"/>
<path d="M165.443 63.4239H160.357L153.672 45.1355L152.897 67.3694H146.455L148.344 36.3626H155.9L162.876 56.3221L169.9 36.3626H177.456L179.345 67.3694H172.854L172.079 45.1819L165.443 63.4239Z" fill="white"/>
<path d="M192.205 61.985H204.558V67.3694H185.182V36.3626H192.205V61.985Z" fill="white"/>
<path d="M228.427 55.533C228.427 59.8343 227.425 62.9907 225.423 65.0021C223.421 66.9826 220.789 67.9728 217.528 67.9728C214.266 67.9728 211.666 66.9826 209.729 65.0021C207.823 63.0216 206.871 59.8807 206.871 55.5794C206.871 51.2781 207.856 48.1372 209.826 46.1567C211.828 44.1453 214.444 43.1396 217.673 43.1396C224.842 43.1396 228.427 47.2707 228.427 55.533ZM221.839 55.4866C221.839 52.6396 221.483 50.7056 220.773 49.6844C220.063 48.6632 219.013 48.1526 217.624 48.1526C216.268 48.1526 215.219 48.6632 214.476 49.6844C213.765 50.7056 213.41 52.6706 213.41 55.5794C213.41 60.5306 214.815 63.0062 217.624 63.0062C218.948 63.0062 219.982 62.4646 220.725 61.3816C221.467 60.2675 221.839 58.3026 221.839 55.4866Z" fill="white"/>
<path d="M244.206 68.437H239.313C237.666 68.9631 236.843 69.9069 236.843 71.2684C236.843 73.0014 238.683 73.8678 242.365 73.8678C246.046 73.8678 247.887 72.7383 247.887 70.4794C247.887 69.7986 247.613 69.288 247.064 68.9476C246.547 68.6072 245.594 68.437 244.206 68.437ZM241.638 47.9206C239.41 47.9206 238.296 49.3131 238.296 52.0981C238.296 53.4597 238.554 54.4499 239.071 55.0688C239.62 55.6877 240.476 55.9972 241.638 55.9972C242.801 55.9972 243.64 55.6877 244.157 55.0688C244.674 54.4499 244.932 53.4442 244.932 52.0517C244.932 50.6282 244.674 49.5916 244.157 48.9417C243.64 48.2609 242.801 47.9206 241.638 47.9206ZM241.493 43.0003L245.756 43.2324C248.275 43.2324 250.939 43.0003 253.748 42.5361L254.33 46.1103C253.716 46.265 252.037 46.528 249.292 46.8994C250.422 48.4157 250.987 50.1331 250.987 52.0517C250.987 54.7129 250.18 56.8791 248.565 58.5501C246.983 60.2211 244.69 61.0566 241.687 61.0566C240.621 61.0566 239.765 60.9793 239.119 60.8246C238.926 61.3816 238.829 61.8612 238.829 62.2635C238.829 63.2847 239.749 63.7953 241.59 63.7953H245.756C248.242 63.7953 250.18 64.3368 251.568 65.4199C252.957 66.472 253.651 67.9419 253.651 69.8295C253.651 72.5836 252.553 74.7497 250.357 76.3279C248.162 77.9061 245.32 78.6952 241.832 78.6952C238.344 78.6952 235.696 78.1227 233.888 76.9778C232.112 75.8638 231.224 74.2701 231.224 72.1968C231.224 70.9899 231.643 69.845 232.483 68.7619C233.323 67.6788 234.501 66.8124 236.019 66.1625C234.986 65.5127 234.469 64.5844 234.469 63.3775C234.469 62.1397 234.954 60.9019 235.922 59.6641C234.76 58.8596 233.856 57.792 233.21 56.4613C232.564 55.0998 232.241 53.6299 232.241 52.0517C232.241 49.3595 233.016 47.1779 234.566 45.5069C236.148 43.8358 238.457 43.0003 241.493 43.0003Z" fill="white"/>
<path d="M264.077 67.3694H257.296V43.6037L264.077 43.0467V67.3694ZM256.666 35.9449C256.666 34.8928 257.054 33.9954 257.829 33.2527C258.604 32.51 259.54 32.1387 260.638 32.1387C261.736 32.1387 262.673 32.51 263.448 33.2527C264.223 33.9954 264.61 34.8928 264.61 35.9449C264.61 36.9661 264.223 37.8635 263.448 38.6371C262.673 39.4107 261.736 39.7975 260.638 39.7975C259.54 39.7975 258.604 39.4262 257.829 38.6835C257.054 37.9099 256.666 36.997 256.666 35.9449Z" fill="white"/>
<path d="M278.614 48.1526C276.418 48.1526 275.32 48.8489 275.32 50.2414C275.32 50.9841 275.691 51.6185 276.434 52.1445C277.177 52.6706 278.065 53.1348 279.098 53.537C280.164 53.9084 281.214 54.3416 282.247 54.8367C283.313 55.3009 284.217 55.9817 284.96 56.8791C285.702 57.7765 286.074 58.875 286.074 60.1747C286.074 62.4956 285.25 64.3832 283.603 65.8376C281.956 67.2611 279.534 67.9728 276.337 67.9728C274.884 67.9728 273.35 67.8181 271.735 67.5086C270.153 67.1992 268.991 66.8433 268.248 66.441L269.895 61.7993C272.414 62.6039 274.674 63.0062 276.676 63.0062C278.711 63.0062 279.728 62.248 279.728 60.7317C279.728 60.0819 279.357 59.4939 278.614 58.9679C277.871 58.4418 276.967 57.9622 275.901 57.5289C274.868 57.0648 273.818 56.5696 272.753 56.0436C271.719 55.5175 270.831 54.7748 270.089 53.8155C269.346 52.8563 268.974 51.7422 268.974 50.4735C268.974 48.0907 269.798 46.265 271.445 44.9963C273.092 43.7275 275.449 43.0932 278.517 43.0932C281.585 43.0932 283.991 43.5728 285.735 44.5321L284.136 49.1274C281.908 48.4776 280.067 48.1526 278.614 48.1526Z" fill="white"/>
<path d="M292.998 59.7105V48.0598L288.638 47.7813V43.9751L293.143 43.6037V38.1729L299.925 37.6159V43.5573H306.997L306.61 48.0598H299.877V60.314C299.877 61.2114 300.022 61.8612 300.313 62.2635C300.603 62.6348 301.217 62.8205 302.153 62.8205C303.09 62.8205 304.139 62.6812 305.302 62.4027L306.319 66.9981C304.737 67.6479 303.122 67.9728 301.475 67.9728C299.86 67.9728 298.633 67.88 297.794 67.6943C296.986 67.5086 296.308 67.292 295.759 67.0445C295.242 66.7969 294.79 66.441 294.403 65.9769C294.048 65.4818 293.773 65.0485 293.579 64.6772C293.418 64.3059 293.289 63.7798 293.192 63.099C293.063 62.1707 292.998 61.0412 292.998 59.7105Z" fill="white"/>
<path d="M107 77.4063V73.1558H107.681V75.0043H108.131L109.725 73.1558H110.602L108.813 75.2035L110.625 77.4063H109.748L108.293 75.6131H107.681V77.4063H107Z" fill="white"/>
<path d="M113.309 77.4948C112.909 77.4948 112.558 77.4035 112.256 77.2208C111.956 77.0382 111.721 76.7827 111.552 76.4543C111.384 76.126 111.3 75.7422 111.3 75.3032C111.3 74.8604 111.384 74.4739 111.552 74.1437C111.721 73.8135 111.956 73.5571 112.256 73.3744C112.558 73.1918 112.909 73.1005 113.309 73.1005C113.71 73.1005 114.06 73.1918 114.36 73.3744C114.662 73.5571 114.897 73.8135 115.064 74.1437C115.234 74.4739 115.318 74.8604 115.318 75.3032C115.318 75.7422 115.234 76.126 115.064 76.4543C114.897 76.7827 114.662 77.0382 114.36 77.2208C114.06 77.4035 113.71 77.4948 113.309 77.4948ZM113.309 76.9082C113.613 76.9082 113.863 76.8334 114.06 76.684C114.256 76.5346 114.401 76.3381 114.496 76.0946C114.59 75.8511 114.637 75.5873 114.637 75.3032C114.637 75.0191 114.59 74.7543 114.496 74.509C114.401 74.2636 114.256 74.0653 114.06 73.914C113.863 73.7628 113.613 73.6871 113.309 73.6871C113.005 73.6871 112.755 73.7628 112.559 73.914C112.363 74.0653 112.217 74.2636 112.123 74.509C112.029 74.7543 111.982 75.0191 111.982 75.3032C111.982 75.5873 112.029 75.8511 112.123 76.0946C112.217 76.3381 112.363 76.5346 112.559 76.684C112.755 76.8334 113.005 76.9082 113.309 76.9082Z" fill="white"/>
<path d="M119.419 73.1558V73.7646H117.364V77.4063H116.683V73.1558H119.419Z" fill="white"/>
<path d="M119.893 78.6238V76.7975H120.262C120.352 76.7071 120.43 76.6093 120.496 76.5041C120.561 76.399 120.618 76.2745 120.666 76.1306C120.716 75.9848 120.758 75.8077 120.793 75.5993C120.828 75.389 120.858 75.1353 120.885 74.8383L121.036 73.1558H123.853V76.7975H124.534V78.6238H123.853V77.4063H120.574V78.6238H119.893ZM121.036 76.7975H123.171V73.7646H121.671L121.555 74.8383C121.507 75.2829 121.447 75.6712 121.376 76.0033C121.305 76.3353 121.191 76.6001 121.036 76.7975Z" fill="white"/>
<path d="M127.068 77.5059C126.787 77.5059 126.532 77.4551 126.303 77.3537C126.074 77.2504 125.892 77.1019 125.757 76.9082C125.623 76.7126 125.555 76.4765 125.555 76.1997C125.555 75.9562 125.605 75.7588 125.705 75.6076C125.805 75.4544 125.939 75.3345 126.107 75.2478C126.274 75.1611 126.459 75.0965 126.661 75.0541C126.865 75.0098 127.07 74.9748 127.276 74.949C127.545 74.9158 127.763 74.8909 127.931 74.8742C128.1 74.8558 128.223 74.8254 128.3 74.7829C128.379 74.7405 128.419 74.6667 128.419 74.5616V74.5394C128.419 74.2664 128.341 74.0542 128.185 73.903C128.031 73.7517 127.797 73.676 127.483 73.676C127.158 73.676 126.903 73.7443 126.718 73.8808C126.534 74.0173 126.404 74.1631 126.329 74.318L125.682 74.0967C125.798 73.8384 125.952 73.6373 126.144 73.4934C126.338 73.3477 126.55 73.2462 126.779 73.189C127.01 73.13 127.237 73.1005 127.46 73.1005C127.603 73.1005 127.766 73.1171 127.951 73.1503C128.138 73.1816 128.318 73.2471 128.491 73.3467C128.666 73.4464 128.811 73.5967 128.927 73.7978C129.042 73.9989 129.1 74.2682 129.1 74.6058V77.4063H128.419V76.8307H128.384C128.338 76.9229 128.261 77.0216 128.153 77.1268C128.045 77.2319 127.902 77.3214 127.723 77.3952C127.544 77.469 127.326 77.5059 127.068 77.5059ZM127.172 76.9192C127.441 76.9192 127.668 76.8685 127.853 76.767C128.039 76.6656 128.18 76.5346 128.274 76.3741C128.37 76.2136 128.419 76.0448 128.419 75.8677V75.27C128.39 75.3032 128.326 75.3336 128.228 75.3613C128.132 75.3871 128.02 75.4102 127.893 75.4305C127.768 75.4489 127.646 75.4655 127.527 75.4803C127.409 75.4932 127.314 75.5043 127.241 75.5135C127.064 75.5356 126.898 75.5716 126.744 75.6214C126.592 75.6694 126.469 75.7422 126.375 75.84C126.283 75.9359 126.236 76.0669 126.236 76.233C126.236 76.4599 126.324 76.6314 126.499 76.7477C126.676 76.862 126.9 76.9192 127.172 76.9192Z" fill="white"/>
<path d="M133.279 77.4063V73.1558H135.092C135.569 73.1558 135.948 73.2591 136.229 73.4657C136.51 73.6724 136.651 73.9454 136.651 74.2848C136.651 74.5431 136.571 74.7433 136.411 74.8853C136.251 75.0255 136.046 75.1205 135.796 75.1703C135.96 75.1925 136.119 75.2478 136.272 75.3364C136.428 75.4249 136.557 75.5467 136.659 75.7016C136.761 75.8548 136.812 76.0429 136.812 76.2662C136.812 76.4838 136.755 76.6785 136.639 76.85C136.524 77.0216 136.358 77.1572 136.143 77.2568C135.927 77.3564 135.669 77.4063 135.369 77.4063H133.279ZM133.926 76.8085H135.369C135.604 76.8085 135.788 76.755 135.92 76.648C136.053 76.541 136.12 76.3953 136.12 76.2108C136.12 75.9913 136.053 75.8188 135.92 75.6933C135.788 75.5661 135.604 75.5024 135.369 75.5024H133.926V76.8085ZM133.926 74.9379H135.092C135.275 74.9379 135.432 74.9139 135.562 74.8659C135.693 74.8161 135.793 74.746 135.863 74.6556C135.934 74.5634 135.969 74.4546 135.969 74.3291C135.969 74.1502 135.891 74.01 135.736 73.9085C135.58 73.8052 135.365 73.7535 135.092 73.7535H133.926V74.9379Z" fill="white"/>
<path d="M138.169 79.0002V73.1558H138.827V73.831H138.907C138.957 73.7572 139.027 73.6631 139.115 73.5488C139.206 73.4325 139.335 73.3292 139.502 73.2388C139.671 73.1466 139.9 73.1005 140.189 73.1005C140.562 73.1005 140.891 73.1899 141.176 73.3689C141.461 73.5478 141.683 73.8015 141.843 74.1299C142.003 74.4582 142.082 74.8457 142.082 75.2921C142.082 75.7422 142.003 76.1324 141.843 76.4626C141.683 76.791 141.462 77.0456 141.179 77.2264C140.896 77.4053 140.57 77.4948 140.201 77.4948C139.916 77.4948 139.688 77.4496 139.516 77.3592C139.345 77.267 139.213 77.1627 139.121 77.0465C139.029 76.9284 138.957 76.8307 138.907 76.7532H138.85V79.0002H138.169ZM138.838 75.281C138.838 75.602 138.887 75.8852 138.985 76.1306C139.083 76.3741 139.227 76.565 139.415 76.7034C139.604 76.8399 139.835 76.9082 140.108 76.9082C140.393 76.9082 140.631 76.8362 140.821 76.6923C141.014 76.5466 141.158 76.351 141.254 76.1057C141.352 75.8585 141.401 75.5836 141.401 75.281C141.401 74.9822 141.353 74.7128 141.257 74.473C141.163 74.2313 141.019 74.0404 140.827 73.9002C140.636 73.7581 140.397 73.6871 140.108 73.6871C139.831 73.6871 139.598 73.7544 139.41 73.8891C139.221 74.0219 139.079 74.2083 138.982 74.4481C138.886 74.6861 138.838 74.9637 138.838 75.281Z" fill="white"/>
<path d="M145.305 77.4948C144.878 77.4948 144.51 77.4044 144.2 77.2236C143.892 77.041 143.654 76.7864 143.487 76.4599C143.322 76.1315 143.239 75.7496 143.239 75.3142C143.239 74.8789 143.322 74.4951 143.487 74.1631C143.654 73.8292 143.887 73.569 144.186 73.3827C144.486 73.1945 144.836 73.1005 145.236 73.1005C145.467 73.1005 145.695 73.1374 145.92 73.2112C146.145 73.2849 146.35 73.4049 146.535 73.5709C146.72 73.7351 146.867 73.9528 146.977 74.224C147.086 74.4951 147.141 74.8291 147.141 75.2257V75.5024H143.724V74.9379H146.449C146.449 74.6981 146.398 74.4841 146.298 74.2959C146.2 74.1077 146.06 73.9592 145.877 73.8504C145.696 73.7415 145.483 73.6871 145.236 73.6871C144.965 73.6871 144.73 73.7517 144.532 73.8808C144.336 74.0081 144.185 74.1741 144.079 74.3789C143.973 74.5837 143.92 74.8032 143.92 75.0375V75.4139C143.92 75.7349 143.978 76.007 144.093 76.2302C144.211 76.4516 144.373 76.6204 144.581 76.7366C144.789 76.851 145.03 76.9082 145.305 76.9082C145.484 76.9082 145.646 76.8842 145.79 76.8362C145.937 76.7864 146.063 76.7126 146.169 76.6148C146.274 76.5152 146.356 76.3916 146.414 76.244L147.072 76.4211C147.003 76.6351 146.886 76.8233 146.723 76.9856C146.559 77.1461 146.357 77.2716 146.117 77.362C145.876 77.4505 145.606 77.4948 145.305 77.4948Z" fill="white"/>
<path d="M150.927 76.5207L152.474 73.1558H153.121L151.204 77.4063H150.65L148.768 73.1558H149.403L150.927 76.5207ZM149.184 73.1558V77.4063H148.503V73.1558H149.184ZM152.67 77.4063V73.1558H153.352V77.4063H152.67Z" fill="white"/>
<path d="M157.591 77.4063V73.7535H156.413C156.148 73.7535 155.939 73.8126 155.787 73.9306C155.635 74.0487 155.559 74.211 155.559 74.4177C155.559 74.6206 155.627 74.7802 155.764 74.8964C155.902 75.0126 156.092 75.0707 156.332 75.0707H157.764V75.6795H156.332C156.032 75.6795 155.773 75.6288 155.556 75.5273C155.338 75.4258 155.171 75.281 155.054 75.0929C154.936 74.9028 154.878 74.6778 154.878 74.4177C154.878 74.1557 154.939 73.9306 155.062 73.7425C155.185 73.5543 155.361 73.4095 155.59 73.308C155.821 73.2065 156.096 73.1558 156.413 73.1558H158.237V77.4063H157.591ZM154.635 77.4063L155.894 75.2921H156.632L155.374 77.4063H154.635Z" fill="white"/>
<path d="M163.105 76.4433L165.241 73.1558H166.026V77.4063H165.345V74.1188L163.221 77.4063H162.424V73.1558H163.105V76.4433Z" fill="white"/>
<path d="M170.024 76.5207L171.571 73.1558H172.217L170.301 77.4063H169.746L167.865 73.1558H168.5L170.024 76.5207ZM168.28 73.1558V77.4063H167.599V73.1558H168.28ZM171.767 77.4063V73.1558H172.448V77.4063H171.767Z" fill="white"/>
<path d="M175.879 77.4948C175.452 77.4948 175.083 77.4044 174.774 77.2236C174.466 77.041 174.228 76.7864 174.061 76.4599C173.895 76.1315 173.812 75.7496 173.812 75.3142C173.812 74.8789 173.895 74.4951 174.061 74.1631C174.228 73.8292 174.461 73.569 174.759 73.3827C175.059 73.1945 175.409 73.1005 175.81 73.1005C176.041 73.1005 176.269 73.1374 176.494 73.2112C176.719 73.2849 176.924 73.4049 177.109 73.5709C177.293 73.7351 177.441 73.9528 177.55 74.224C177.66 74.4951 177.715 74.8291 177.715 75.2257V75.5024H174.297V74.9379H177.022C177.022 74.6981 176.972 74.4841 176.872 74.2959C176.774 74.1077 176.633 73.9592 176.451 73.8504C176.27 73.7415 176.056 73.6871 175.81 73.6871C175.538 73.6871 175.304 73.7517 175.105 73.8808C174.909 74.0081 174.758 74.1741 174.652 74.3789C174.546 74.5837 174.494 74.8032 174.494 75.0375V75.4139C174.494 75.7349 174.551 76.007 174.667 76.2302C174.784 76.4516 174.947 76.6204 175.155 76.7366C175.362 76.851 175.604 76.9082 175.879 76.9082C176.058 76.9082 176.22 76.8842 176.364 76.8362C176.51 76.7864 176.636 76.7126 176.742 76.6148C176.848 76.5152 176.93 76.3916 176.987 76.244L177.645 76.4211C177.576 76.6351 177.46 76.8233 177.296 76.9856C177.133 77.1461 176.931 77.2716 176.69 77.362C176.45 77.4505 176.179 77.4948 175.879 77.4948Z" fill="white"/>
<path d="M180.935 77.4948C180.508 77.4948 180.139 77.4044 179.829 77.2236C179.522 77.041 179.284 76.7864 179.116 76.4599C178.951 76.1315 178.868 75.7496 178.868 75.3142C178.868 74.8789 178.951 74.4951 179.116 74.1631C179.284 73.8292 179.517 73.569 179.815 73.3827C180.115 73.1945 180.465 73.1005 180.866 73.1005C181.097 73.1005 181.325 73.1374 181.55 73.2112C181.775 73.2849 181.98 73.4049 182.165 73.5709C182.349 73.7351 182.496 73.9528 182.606 74.224C182.716 74.4951 182.771 74.8291 182.771 75.2257V75.5024H179.353V74.9379H182.078C182.078 74.6981 182.028 74.4841 181.928 74.2959C181.83 74.1077 181.689 73.9592 181.506 73.8504C181.326 73.7415 181.112 73.6871 180.866 73.6871C180.594 73.6871 180.36 73.7517 180.161 73.8808C179.965 74.0081 179.814 74.1741 179.708 74.3789C179.602 74.5837 179.549 74.8032 179.549 75.0375V75.4139C179.549 75.7349 179.607 76.007 179.723 76.2302C179.84 76.4516 180.003 76.6204 180.21 76.7366C180.418 76.851 180.66 76.9082 180.935 76.9082C181.114 76.9082 181.276 76.8842 181.42 76.8362C181.566 76.7864 181.692 76.7126 181.798 76.6148C181.904 76.5152 181.986 76.3916 182.043 76.244L182.701 76.4211C182.632 76.6351 182.516 76.8233 182.352 76.9856C182.189 77.1461 181.987 77.2716 181.746 77.362C181.505 77.4505 181.235 77.4948 180.935 77.4948Z" fill="white"/>
<path d="M183.719 73.7646V73.1558H187.321V73.7646H185.867V77.4063H185.186V73.7646H183.719Z" fill="white"/>
<path d="M190.974 76.3215H191.702C191.717 76.5134 191.807 76.6591 191.973 76.7587C192.14 76.8583 192.358 76.9082 192.625 76.9082C192.898 76.9082 193.132 76.8547 193.327 76.7477C193.521 76.6388 193.618 76.4636 193.618 76.2219C193.618 76.0798 193.582 75.9562 193.508 75.8511C193.435 75.7441 193.332 75.6611 193.2 75.602C193.067 75.543 192.91 75.5135 192.729 75.5135H191.967V74.9268H192.729C193 74.9268 193.201 74.8678 193.33 74.7497C193.46 74.6317 193.526 74.4841 193.526 74.307C193.526 74.117 193.456 73.9648 193.315 73.8504C193.175 73.7342 192.975 73.676 192.718 73.676C192.458 73.676 192.241 73.7323 192.068 73.8448C191.895 73.9555 191.804 74.0985 191.794 74.2738H191.078C191.086 74.045 191.159 73.843 191.298 73.6677C191.436 73.4906 191.625 73.3523 191.863 73.2527C192.102 73.1512 192.375 73.1005 192.683 73.1005C192.995 73.1005 193.265 73.153 193.494 73.2582C193.725 73.3615 193.903 73.5026 194.028 73.6816C194.155 73.8587 194.219 74.0598 194.219 74.2848C194.219 74.5247 194.148 74.7184 194.008 74.8659C193.867 75.0135 193.691 75.1187 193.48 75.1814V75.2257C193.647 75.2368 193.792 75.2884 193.915 75.3806C194.041 75.471 194.138 75.59 194.207 75.7376C194.276 75.8834 194.311 76.0448 194.311 76.2219C194.311 76.4802 194.239 76.7052 194.094 76.8971C193.95 77.0871 193.752 77.2347 193.5 77.3398C193.248 77.4431 192.96 77.4948 192.637 77.4948C192.323 77.4948 192.042 77.4459 191.794 77.3481C191.546 77.2485 191.348 77.1111 191.202 76.9358C191.058 76.7587 190.982 76.5539 190.974 76.3215Z" fill="white"/>
<path d="M198.56 74.9822V75.591H196.112V74.9822H198.56ZM196.274 73.1558V77.4063H195.593V73.1558H196.274ZM199.08 73.1558V77.4063H198.398V73.1558H199.08Z" fill="white"/>
<path d="M201.953 77.5059C201.672 77.5059 201.417 77.4551 201.188 77.3537C200.96 77.2504 200.778 77.1019 200.643 76.9082C200.508 76.7126 200.441 76.4765 200.441 76.1997C200.441 75.9562 200.491 75.7588 200.591 75.6076C200.691 75.4544 200.825 75.3345 200.992 75.2478C201.16 75.1611 201.344 75.0965 201.546 75.0541C201.75 75.0098 201.955 74.9748 202.161 74.949C202.431 74.9158 202.649 74.8909 202.816 74.8742C202.986 74.8558 203.109 74.8254 203.186 74.7829C203.265 74.7405 203.304 74.6667 203.304 74.5616V74.5394C203.304 74.2664 203.226 74.0542 203.07 73.903C202.916 73.7517 202.683 73.676 202.369 73.676C202.044 73.676 201.789 73.7443 201.604 73.8808C201.419 74.0173 201.29 74.1631 201.214 74.318L200.568 74.0967C200.683 73.8384 200.837 73.6373 201.03 73.4934C201.224 73.3477 201.436 73.2462 201.665 73.189C201.896 73.13 202.123 73.1005 202.346 73.1005C202.488 73.1005 202.652 73.1171 202.837 73.1503C203.023 73.1816 203.203 73.2471 203.376 73.3467C203.551 73.4464 203.697 73.5967 203.812 73.7978C203.928 73.9989 203.985 74.2682 203.985 74.6058V77.4063H203.304V76.8307H203.27C203.223 76.9229 203.146 77.0216 203.039 77.1268C202.931 77.2319 202.788 77.3214 202.609 77.3952C202.43 77.469 202.211 77.5059 201.953 77.5059ZM202.057 76.9192C202.327 76.9192 202.554 76.8685 202.738 76.767C202.925 76.6656 203.066 76.5346 203.16 76.3741C203.256 76.2136 203.304 76.0448 203.304 75.8677V75.27C203.275 75.3032 203.212 75.3336 203.114 75.3613C203.017 75.3871 202.906 75.4102 202.779 75.4305C202.654 75.4489 202.532 75.4655 202.412 75.4803C202.295 75.4932 202.2 75.5043 202.127 75.5135C201.95 75.5356 201.784 75.5716 201.63 75.6214C201.478 75.6694 201.355 75.7422 201.261 75.84C201.168 75.9359 201.122 76.0669 201.122 76.233C201.122 76.4599 201.21 76.6314 201.385 76.7477C201.562 76.862 201.786 76.9192 202.057 76.9192Z" fill="white"/>
<path d="M208.971 73.1558V77.4063H208.29V73.1558H208.971ZM208.706 75.1814V75.7902C208.552 75.8455 208.399 75.8944 208.247 75.9369C208.095 75.9774 207.935 76.0097 207.768 76.0337C207.6 76.0559 207.417 76.0669 207.216 76.0669C206.714 76.0669 206.311 75.9369 206.007 75.6767C205.705 75.4166 205.554 75.0264 205.554 74.5062V73.1447H206.235V74.5062C206.235 74.7239 206.278 74.9028 206.365 75.043C206.451 75.1833 206.569 75.2875 206.717 75.3557C206.865 75.424 207.032 75.4581 207.216 75.4581C207.505 75.4581 207.766 75.4332 207.999 75.3834C208.233 75.3318 208.469 75.2644 208.706 75.1814Z" fill="white"/>
<path d="M212.405 77.4948C211.978 77.4948 211.609 77.4044 211.3 77.2236C210.992 77.041 210.754 76.7864 210.587 76.4599C210.421 76.1315 210.338 75.7496 210.338 75.3142C210.338 74.8789 210.421 74.4951 210.587 74.1631C210.754 73.8292 210.987 73.569 211.285 73.3827C211.585 73.1945 211.936 73.1005 212.336 73.1005C212.567 73.1005 212.795 73.1374 213.02 73.2112C213.245 73.2849 213.45 73.4049 213.635 73.5709C213.819 73.7351 213.967 73.9528 214.076 74.224C214.186 74.4951 214.241 74.8291 214.241 75.2257V75.5024H210.823V74.9379H213.548C213.548 74.6981 213.498 74.4841 213.398 74.2959C213.3 74.1077 213.159 73.9592 212.977 73.8504C212.796 73.7415 212.582 73.6871 212.336 73.6871C212.064 73.6871 211.83 73.7517 211.631 73.8808C211.435 74.0081 211.284 74.1741 211.178 74.3789C211.073 74.5837 211.02 74.8032 211.02 75.0375V75.4139C211.02 75.7349 211.077 76.007 211.193 76.2302C211.31 76.4516 211.473 76.6204 211.681 76.7366C211.888 76.851 212.13 76.9082 212.405 76.9082C212.584 76.9082 212.746 76.8842 212.89 76.8362C213.036 76.7864 213.162 76.7126 213.268 76.6148C213.374 76.5152 213.456 76.3916 213.513 76.244L214.172 76.4211C214.102 76.6351 213.986 76.8233 213.822 76.9856C213.659 77.1461 213.457 77.2716 213.216 77.362C212.976 77.4505 212.705 77.4948 212.405 77.4948Z" fill="white"/>
<path d="M218.569 74.9822V75.591H216.122V74.9822H218.569ZM216.283 73.1558V77.4063H215.602V73.1558H216.283ZM219.089 73.1558V77.4063H218.408V73.1558H219.089Z" fill="white"/>
<path d="M221.339 76.4433L223.475 73.1558H224.26V77.4063H223.579V74.1188L221.455 77.4063H220.658V73.1558H221.339V76.4433Z" fill="white"/>
<path d="M227.692 77.4948C227.265 77.4948 226.896 77.4044 226.586 77.2236C226.278 77.041 226.041 76.7864 225.873 76.4599C225.708 76.1315 225.625 75.7496 225.625 75.3142C225.625 74.8789 225.708 74.4951 225.873 74.1631C226.041 73.8292 226.274 73.569 226.572 73.3827C226.872 73.1945 227.222 73.1005 227.623 73.1005C227.853 73.1005 228.081 73.1374 228.307 73.2112C228.532 73.2849 228.737 73.4049 228.921 73.5709C229.106 73.7351 229.253 73.9528 229.363 74.224C229.473 74.4951 229.528 74.8291 229.528 75.2257V75.5024H226.11V74.9379H228.835C228.835 74.6981 228.785 74.4841 228.685 74.2959C228.587 74.1077 228.446 73.9592 228.263 73.8504C228.082 73.7415 227.869 73.6871 227.623 73.6871C227.351 73.6871 227.116 73.7517 226.918 73.8808C226.722 74.0081 226.571 74.1741 226.465 74.3789C226.359 74.5837 226.306 74.8032 226.306 75.0375V75.4139C226.306 75.7349 226.364 76.007 226.48 76.2302C226.597 76.4516 226.76 76.6204 226.967 76.7366C227.175 76.851 227.417 76.9082 227.692 76.9082C227.871 76.9082 228.032 76.8842 228.177 76.8362C228.323 76.7864 228.449 76.7126 228.555 76.6148C228.661 76.5152 228.742 76.3916 228.8 76.244L229.458 76.4211C229.389 76.6351 229.273 76.8233 229.109 76.9856C228.945 77.1461 228.743 77.2716 228.503 77.362C228.262 77.4505 227.992 77.4948 227.692 77.4948Z" fill="white"/>
<path d="M107 28.0646V23.0651H109.201C109.822 23.0651 110.312 23.1834 110.672 23.4199C111.033 23.6564 111.214 23.9862 111.214 24.4094C111.214 24.6893 111.112 24.9182 110.907 25.0962C110.705 25.2719 110.428 25.3902 110.078 25.451C110.353 25.4727 110.594 25.5388 110.801 25.6495C111.011 25.7602 111.174 25.9056 111.293 26.0857C111.411 26.2658 111.47 26.473 111.47 26.7073C111.47 26.9829 111.394 27.2227 111.241 27.4267C111.091 27.6285 110.872 27.7858 110.583 27.8986C110.296 28.0093 109.948 28.0646 109.539 28.0646H107ZM108.157 27.137H109.539C109.766 27.137 109.945 27.086 110.074 26.984C110.204 26.8799 110.269 26.7388 110.269 26.5609C110.269 26.3547 110.204 26.1931 110.074 26.0759C109.945 25.9565 109.766 25.8969 109.539 25.8969H108.157V27.137ZM108.157 25.1352H109.225C109.393 25.1352 109.538 25.1124 109.658 25.0669C109.779 25.0191 109.871 24.9529 109.935 24.8683C109.998 24.7815 110.03 24.6785 110.03 24.5591C110.03 24.3877 109.956 24.2531 109.808 24.1555C109.663 24.0578 109.46 24.009 109.201 24.009H108.157V25.1352Z" fill="white"/>
<path d="M118.473 25.0766V26.0433H115.682V25.0766H118.473ZM116.064 23.0651V28.0646H114.873V23.0651H116.064ZM119.282 23.0651V28.0646H118.094V23.0651H119.282Z" fill="white"/>
<path d="M121.112 29.9395C120.943 29.9395 120.787 29.9265 120.644 29.9004C120.503 29.8766 120.39 29.8483 120.306 29.8158L120.593 28.8979C120.773 28.9478 120.933 28.9717 121.074 28.9695C121.215 28.9673 121.339 28.925 121.446 28.8426C121.555 28.7623 121.647 28.6277 121.722 28.439L121.828 28.1688L119.928 23.0651H121.238L122.446 26.8408H122.5L123.712 23.0651H125.025L122.927 28.6701C122.829 28.9348 122.699 29.1616 122.538 29.3503C122.376 29.5413 122.178 29.6867 121.944 29.7865C121.712 29.8885 121.435 29.9395 121.112 29.9395Z" fill="white"/>
<path d="M125.539 28.0646L127.474 25.4835L125.556 23.0651H126.982L128.474 25.0799H128.767V23.0651H130.002V25.0799H130.289L131.78 23.0651H133.206L131.299 25.4835L133.224 28.0646H131.766L130.275 26.0466H130.002V28.0646H128.767V26.0466H128.494L126.996 28.0646H125.539Z" fill="white"/>
<path d="M137.747 25.0766V26.0433H134.956V25.0766H137.747ZM135.338 23.0651V28.0646H134.147V23.0651H135.338ZM138.556 23.0651V28.0646H137.369V23.0651H138.556Z" fill="white"/>
<path d="M142.092 28.1623C141.58 28.1623 141.137 28.0549 140.761 27.8401C140.386 27.6252 140.095 27.3247 139.888 26.9384C139.683 26.5522 139.581 26.1008 139.581 25.5844C139.581 25.068 139.683 24.6155 139.888 24.2271C140.095 23.8387 140.386 23.5371 140.761 23.3222C141.137 23.1074 141.58 23 142.092 23C142.604 23 143.048 23.1074 143.423 23.3222C143.798 23.5371 144.088 23.8387 144.293 24.2271C144.5 24.6155 144.604 25.068 144.604 25.5844C144.604 26.1008 144.5 26.5522 144.293 26.9384C144.088 27.3247 143.798 27.6252 143.423 27.8401C143.048 28.0549 142.604 28.1623 142.092 28.1623ZM142.099 27.2184C142.376 27.2184 142.609 27.1457 142.795 27.0003C142.982 26.8527 143.12 26.6553 143.211 26.4079C143.305 26.1605 143.351 25.8849 143.351 25.5811C143.351 25.2752 143.305 24.9985 143.211 24.7511C143.12 24.5016 142.982 24.3031 142.795 24.1555C142.609 24.0079 142.376 23.9342 142.099 23.9342C141.815 23.9342 141.578 24.0079 141.389 24.1555C141.203 24.3031 141.063 24.5016 140.969 24.7511C140.878 24.9985 140.833 25.2752 140.833 25.5811C140.833 25.8849 140.878 26.1605 140.969 26.4079C141.063 26.6553 141.203 26.8527 141.389 27.0003C141.578 27.1457 141.815 27.2184 142.099 27.2184Z" fill="white"/>
<path d="M147.972 28.1623C147.447 28.1623 146.993 28.0581 146.611 27.8498C146.231 27.6393 145.939 27.3421 145.734 26.958C145.529 26.5717 145.427 26.1171 145.427 25.5942C145.427 25.0799 145.529 24.6285 145.734 24.2401C145.941 23.8495 146.23 23.5457 146.601 23.3287C146.971 23.1096 147.407 23 147.908 23C148.231 23 148.535 23.0499 148.822 23.1497C149.111 23.2474 149.366 23.3993 149.586 23.6054C149.809 23.8116 149.984 24.0741 150.112 24.3931C150.239 24.7099 150.303 25.0875 150.303 25.5258V25.8871H146.007V25.0929H149.119C149.117 24.8672 149.065 24.6665 148.965 24.4908C148.865 24.3128 148.725 24.1729 148.546 24.0709C148.368 23.9689 148.161 23.9179 147.925 23.9179C147.672 23.9179 147.45 23.9765 147.259 24.0937C147.068 24.2087 146.919 24.3606 146.812 24.5493C146.708 24.736 146.654 24.941 146.652 25.1645V25.8578C146.652 26.1486 146.708 26.3981 146.819 26.6064C146.93 26.8126 147.086 26.971 147.287 27.0817C147.487 27.1902 147.721 27.2444 147.989 27.2444C148.169 27.2444 148.332 27.2205 148.477 27.1728C148.623 27.1229 148.749 27.0502 148.856 26.9547C148.963 26.8592 149.044 26.741 149.098 26.5999L150.252 26.7236C150.179 27.0144 150.04 27.2683 149.835 27.4853C149.633 27.7001 149.374 27.8672 149.057 27.9865C148.741 28.1037 148.38 28.1623 147.972 28.1623Z" fill="white"/>
<path d="M153.731 28.0646V23.0651H155.932C156.553 23.0651 157.044 23.1834 157.403 23.4199C157.765 23.6564 157.946 23.9862 157.946 24.4094C157.946 24.6893 157.843 24.9182 157.639 25.0962C157.436 25.2719 157.16 25.3902 156.809 25.451C157.085 25.4727 157.326 25.5388 157.533 25.6495C157.742 25.7602 157.906 25.9056 158.024 26.0857C158.142 26.2658 158.202 26.473 158.202 26.7073C158.202 26.9829 158.125 27.2227 157.973 27.4267C157.823 27.6285 157.603 27.7858 157.314 27.8986C157.028 28.0093 156.68 28.0646 156.27 28.0646H153.731ZM154.888 27.137H156.27C156.498 27.137 156.676 27.086 156.806 26.984C156.936 26.8799 157 26.7388 157 26.5609C157 26.3547 156.936 26.1931 156.806 26.0759C156.676 25.9565 156.498 25.8969 156.27 25.8969H154.888V27.137ZM154.888 25.1352H155.956C156.125 25.1352 156.269 25.1124 156.39 25.0669C156.51 25.0191 156.602 24.9529 156.666 24.8683C156.73 24.7815 156.762 24.6785 156.762 24.5591C156.762 24.3877 156.688 24.2531 156.54 24.1555C156.394 24.0578 156.192 24.009 155.932 24.009H154.888V25.1352Z" fill="white"/>
<path d="M159.221 29.9395V23.0651H160.436V23.8918H160.507C160.571 23.7703 160.661 23.6412 160.777 23.5045C160.893 23.3656 161.05 23.2474 161.248 23.1497C161.446 23.0499 161.698 23 162.005 23C162.41 23 162.776 23.0987 163.101 23.2962C163.428 23.4915 163.688 23.7812 163.879 24.1653C164.072 24.5472 164.169 25.0159 164.169 25.5714C164.169 26.1204 164.074 26.5869 163.886 26.971C163.697 27.3551 163.44 27.648 163.114 27.8498C162.789 28.0516 162.421 28.1525 162.009 28.1525C161.709 28.1525 161.46 28.1048 161.262 28.0093C161.064 27.9138 160.904 27.7988 160.784 27.6643C160.666 27.5276 160.573 27.3985 160.507 27.277H160.456V29.9395H159.221ZM160.432 25.5649C160.432 25.8882 160.48 26.1714 160.576 26.4144C160.674 26.6574 160.813 26.8473 160.995 26.984C161.18 27.1186 161.403 27.1858 161.664 27.1858C161.937 27.1858 162.166 27.1164 162.35 26.9775C162.534 26.8365 162.673 26.6444 162.766 26.4014C162.862 26.1562 162.91 25.8773 162.91 25.5649C162.91 25.2546 162.863 24.979 162.77 24.7381C162.677 24.4973 162.538 24.3085 162.354 24.1718C162.169 24.0351 161.939 23.9667 161.664 23.9667C161.4 23.9667 161.176 24.0329 160.992 24.1653C160.808 24.2976 160.668 24.4832 160.572 24.7218C160.479 24.9605 160.432 25.2416 160.432 25.5649Z" fill="white"/>
<path d="M167.547 28.1623C167.022 28.1623 166.568 28.0581 166.186 27.8498C165.806 27.6393 165.513 27.3421 165.309 26.958C165.104 26.5717 165.001 26.1171 165.001 25.5942C165.001 25.0799 165.104 24.6285 165.309 24.2401C165.516 23.8495 165.805 23.5457 166.175 23.3287C166.546 23.1096 166.982 23 167.482 23C167.805 23 168.11 23.0499 168.397 23.1497C168.686 23.2474 168.94 23.3993 169.161 23.6054C169.384 23.8116 169.559 24.0741 169.687 24.3931C169.814 24.7099 169.878 25.0875 169.878 25.5258V25.8871H165.582V25.0929H168.694C168.691 24.8672 168.64 24.6665 168.54 24.4908C168.44 24.3128 168.3 24.1729 168.12 24.0709C167.943 23.9689 167.736 23.9179 167.499 23.9179C167.247 23.9179 167.025 23.9765 166.834 24.0937C166.643 24.2087 166.494 24.3606 166.387 24.5493C166.282 24.736 166.229 24.941 166.226 25.1645V25.8578C166.226 26.1486 166.282 26.3981 166.394 26.6064C166.505 26.8126 166.661 26.971 166.861 27.0817C167.061 27.1902 167.296 27.2444 167.564 27.2444C167.744 27.2444 167.906 27.2205 168.052 27.1728C168.198 27.1229 168.324 27.0502 168.431 26.9547C168.538 26.8592 168.619 26.741 168.673 26.5999L169.826 26.7236C169.754 27.0144 169.615 27.2683 169.41 27.4853C169.208 27.7001 168.948 27.8672 168.632 27.9865C168.316 28.1037 167.954 28.1623 167.547 28.1623Z" fill="white"/>
<path d="M173.939 26.6943L175.495 23.0651H176.492L174.373 28.0646H173.509L171.438 23.0651H172.424L173.939 26.6943ZM172.114 23.0651V28.0646H170.923V23.0651H172.114ZM175.816 28.0646V23.0651H176.997V28.0646H175.816Z" fill="white"/>
<path d="M181.34 28.0646V24.022H180.221C179.937 24.022 179.718 24.085 179.566 24.2108C179.414 24.3367 179.339 24.4929 179.341 24.6795C179.339 24.8662 179.41 25.0202 179.556 25.1417C179.701 25.2633 179.91 25.324 180.18 25.324H181.729V26.1833H180.18C179.762 26.1833 179.4 26.1204 179.095 25.9945C178.79 25.8687 178.556 25.6907 178.392 25.4607C178.228 25.2307 178.147 24.9616 178.147 24.6535C178.147 24.3323 178.23 24.0535 178.396 23.817C178.564 23.5783 178.803 23.3938 179.112 23.2636C179.424 23.1313 179.794 23.0651 180.221 23.0651H182.497V28.0646H181.34ZM177.955 28.0646L179.419 25.4998H180.637L179.17 28.0646H177.955Z" fill="white"/>
<path d="M192.282 28.0646V23.0651H194.454C195.066 23.0651 195.55 23.1834 195.905 23.4199C196.262 23.6564 196.44 23.9862 196.44 24.4094C196.44 24.6893 196.339 24.9182 196.137 25.0962C195.937 25.2719 195.665 25.3902 195.319 25.451C195.59 25.4727 195.828 25.5388 196.033 25.6495C196.239 25.7602 196.401 25.9056 196.517 26.0857C196.634 26.2658 196.692 26.473 196.692 26.7073C196.692 26.9829 196.617 27.2227 196.467 27.4267C196.319 27.6285 196.102 27.7858 195.817 27.8986C195.534 28.0093 195.191 28.0646 194.787 28.0646H192.282ZM193.424 27.137H194.787C195.011 27.137 195.188 27.086 195.316 26.984C195.443 26.8799 195.507 26.7388 195.507 26.5609C195.507 26.3547 195.443 26.1931 195.316 26.0759C195.188 25.9565 195.011 25.8969 194.787 25.8969H193.424V27.137ZM193.424 25.1352H194.477C194.643 25.1352 194.786 25.1124 194.905 25.0669C195.024 25.0191 195.115 24.9529 195.178 24.8683C195.24 24.7815 195.272 24.6785 195.272 24.5591C195.272 24.3877 195.199 24.2531 195.053 24.1555C194.909 24.0578 194.71 24.009 194.454 24.009H193.424V25.1352Z" fill="white"/>
<path d="M203.601 25.0766V26.0433H200.848V25.0766H203.601ZM201.225 23.0651V28.0646H200.05V23.0651H201.225ZM204.399 23.0651V28.0646H203.228V23.0651H204.399Z" fill="white"/>
<path d="M206.205 29.9395C206.038 29.9395 205.885 29.9265 205.743 29.9004C205.604 29.8765 205.493 29.8483 205.41 29.8158L205.693 28.8979C205.87 28.9478 206.028 28.9717 206.167 28.9695C206.307 28.9673 206.429 28.925 206.534 28.8426C206.642 28.7623 206.733 28.6277 206.807 28.439L206.911 28.1688L205.036 23.0651H206.329L207.521 26.8408H207.575L208.77 23.0651H210.066L207.995 28.6701C207.899 28.9348 207.771 29.1616 207.612 29.3503C207.452 29.5413 207.257 29.6867 207.026 29.7865C206.797 29.8885 206.523 29.9395 206.205 29.9395Z" fill="white"/>
<path d="M210.573 28.0646L212.481 25.4835L210.589 23.0651H211.997L213.468 25.0799H213.757V23.0651H214.976V25.0799H215.259L216.73 23.0651H218.137L216.255 25.4835L218.154 28.0646H216.716L215.245 26.0466H214.976V28.0646H213.757V26.0466H213.488L212.01 28.0646H210.573Z" fill="white"/>
<path d="M222.617 25.0766V26.0433H219.863V25.0766H222.617ZM220.24 23.0651V28.0646H219.065V23.0651H220.24ZM223.415 23.0651V28.0646H222.243V23.0651H223.415Z" fill="white"/>
<path d="M226.903 28.1623C226.398 28.1623 225.961 28.0549 225.59 27.8401C225.22 27.6252 224.933 27.3247 224.729 26.9384C224.527 26.5522 224.426 26.1008 224.426 25.5844C224.426 25.068 224.527 24.6155 224.729 24.2271C224.933 23.8387 225.22 23.5371 225.59 23.3222C225.961 23.1074 226.398 23 226.903 23C227.408 23 227.846 23.1074 228.216 23.3222C228.587 23.5371 228.873 23.8387 229.075 24.2271C229.279 24.6155 229.381 25.068 229.381 25.5844C229.381 26.1008 229.279 26.5522 229.075 26.9384C228.873 27.3247 228.587 27.6252 228.216 27.8401C227.846 28.0549 227.408 28.1623 226.903 28.1623ZM226.91 27.2184C227.184 27.2184 227.413 27.1457 227.597 27.0003C227.781 26.8527 227.918 26.6553 228.008 26.4079C228.1 26.1605 228.146 25.8849 228.146 25.5811C228.146 25.2752 228.1 24.9985 228.008 24.7511C227.918 24.5016 227.781 24.3031 227.597 24.1555C227.413 24.0079 227.184 23.9342 226.91 23.9342C226.63 23.9342 226.396 24.0079 226.21 24.1555C226.026 24.3031 225.888 24.5016 225.796 24.7511C225.706 24.9985 225.661 25.2752 225.661 25.5811C225.661 25.8849 225.706 26.1605 225.796 26.4079C225.888 26.6553 226.026 26.8527 226.21 27.0003C226.396 27.1457 226.63 27.2184 226.91 27.2184Z" fill="white"/>
<path d="M233.392 26.6943L234.927 23.0651H235.91L233.819 28.0646H232.967L230.924 23.0651H231.897L233.392 26.6943ZM231.59 23.0651V28.0646H230.416V23.0651H231.59ZM235.243 28.0646V23.0651H236.408V28.0646H235.243Z" fill="white"/>
<path d="M242.964 26.6943L244.499 23.0651H245.482L243.392 28.0646H242.54L240.497 23.0651H241.469L242.964 26.6943ZM241.163 23.0651V28.0646H239.988V23.0651H241.163ZM244.816 28.0646V23.0651H245.981V28.0646H244.816Z" fill="white"/>
<path d="M249.499 28.1623C248.98 28.1623 248.532 28.0581 248.155 27.8498C247.781 27.6393 247.492 27.3421 247.29 26.958C247.088 26.5717 246.987 26.1171 246.987 25.5942C246.987 25.0799 247.088 24.6285 247.29 24.2401C247.494 23.8495 247.779 23.5457 248.145 23.3287C248.511 23.1096 248.941 23 249.435 23C249.753 23 250.054 23.0499 250.337 23.1497C250.622 23.2474 250.873 23.3993 251.091 23.6054C251.311 23.8116 251.484 24.0741 251.609 24.3931C251.735 24.7099 251.798 25.0875 251.798 25.5258V25.8871H247.559V25.0929H250.63C250.627 24.8672 250.577 24.6665 250.478 24.4908C250.379 24.3128 250.241 24.1729 250.064 24.0709C249.889 23.9689 249.685 23.9179 249.451 23.9179C249.202 23.9179 248.983 23.9765 248.795 24.0937C248.606 24.2087 248.459 24.3606 248.354 24.5493C248.251 24.736 248.198 24.941 248.196 25.1645V25.8578C248.196 26.1486 248.251 26.3981 248.361 26.6064C248.471 26.8126 248.624 26.971 248.822 27.0817C249.019 27.1902 249.251 27.2444 249.515 27.2444C249.693 27.2444 249.853 27.2205 249.997 27.1728C250.14 27.1229 250.265 27.0502 250.37 26.9547C250.476 26.8592 250.556 26.741 250.609 26.5999L251.747 26.7236C251.676 27.0144 251.539 27.2683 251.337 27.4853C251.137 27.7001 250.881 27.8672 250.569 27.9865C250.257 28.1037 249.9 28.1623 249.499 28.1623Z" fill="white"/>
<path d="M255.084 28.1623C254.568 28.1623 254.125 28.0527 253.755 27.8335C253.387 27.6144 253.103 27.3117 252.903 26.9254C252.705 26.537 252.607 26.09 252.607 25.5844C252.607 25.0766 252.708 24.6285 252.91 24.2401C253.112 23.8495 253.397 23.5457 253.765 23.3287C254.135 23.1096 254.573 23 255.078 23C255.497 23 255.869 23.0749 256.192 23.2246C256.517 23.3721 256.777 23.5815 256.97 23.8528C257.163 24.1219 257.273 24.4365 257.3 24.7967H256.135C256.088 24.5558 255.975 24.3551 255.798 24.1946C255.623 24.0318 255.389 23.9504 255.095 23.9504C254.845 23.9504 254.627 24.0155 254.438 24.1457C254.25 24.2738 254.103 24.4582 253.997 24.6991C253.894 24.9399 253.842 25.2285 253.842 25.5649C253.842 25.9056 253.894 26.1985 253.997 26.4437C254.1 26.6867 254.245 26.8744 254.431 27.0068C254.62 27.137 254.841 27.2021 255.095 27.2021C255.274 27.2021 255.435 27.1695 255.576 27.1044C255.72 27.0372 255.84 26.9406 255.936 26.8148C256.033 26.6889 256.099 26.5359 256.135 26.3558H257.3C257.27 26.7095 257.163 27.0231 256.976 27.2965C256.79 27.5677 256.536 27.7804 256.216 27.9345C255.895 28.0863 255.518 28.1623 255.084 28.1623Z" fill="white"/>
<path d="M257.925 24.0318V23.0651H262.449V24.0318H260.776V28.0646H259.598V24.0318H257.925Z" fill="white"/>
<path d="M265.496 28.1623C264.978 28.1623 264.53 28.0581 264.153 27.8498C263.778 27.6393 263.49 27.3421 263.288 26.958C263.086 26.5717 262.985 26.1171 262.985 25.5942C262.985 25.0799 263.086 24.6285 263.288 24.2401C263.492 23.8495 263.777 23.5457 264.143 23.3287C264.509 23.1096 264.938 23 265.432 23C265.751 23 266.052 23.0499 266.334 23.1497C266.619 23.2474 266.871 23.3993 267.088 23.6054C267.308 23.8116 267.481 24.0741 267.607 24.3931C267.733 24.7099 267.795 25.0875 267.795 25.5258V25.8871H263.557V25.0929H266.627C266.625 24.8672 266.575 24.6665 266.476 24.4908C266.377 24.3128 266.239 24.1729 266.062 24.0709C265.887 23.9689 265.682 23.9179 265.449 23.9179C265.2 23.9179 264.981 23.9765 264.793 24.0937C264.604 24.2087 264.457 24.3606 264.352 24.5493C264.248 24.736 264.196 24.941 264.193 25.1645V25.8578C264.193 26.1486 264.248 26.3981 264.358 26.6064C264.468 26.8126 264.622 26.971 264.819 27.0817C265.017 27.1902 265.248 27.2444 265.513 27.2444C265.69 27.2444 265.851 27.2205 265.994 27.1728C266.138 27.1229 266.263 27.0502 266.368 26.9547C266.474 26.8592 266.553 26.741 266.607 26.5999L267.745 26.7236C267.673 27.0144 267.536 27.2683 267.334 27.4853C267.135 27.7001 266.879 27.8672 266.567 27.9865C266.255 28.1037 265.898 28.1623 265.496 28.1623Z" fill="white"/>
<path d="M274.462 28.2806V23.0679H276.748C277.393 23.0679 277.902 23.1912 278.276 23.4378C278.651 23.6844 278.839 24.0283 278.839 24.4695C278.839 24.7613 278.733 25 278.52 25.1856C278.31 25.3688 278.023 25.4921 277.659 25.5555C277.945 25.5781 278.195 25.6471 278.41 25.7625C278.628 25.8779 278.798 26.0295 278.921 26.2172C279.043 26.405 279.105 26.6211 279.105 26.8655C279.105 27.1528 279.026 27.4028 278.867 27.6155C278.711 27.8259 278.483 27.9899 278.183 28.1076C277.886 28.2229 277.524 28.2806 277.099 28.2806H274.462ZM275.664 27.3134H277.099C277.335 27.3134 277.521 27.2603 277.655 27.1539C277.79 27.0453 277.857 26.8983 277.857 26.7127C277.857 26.4978 277.79 26.3292 277.655 26.2071C277.521 26.0826 277.335 26.0204 277.099 26.0204H275.664V27.3134ZM275.664 25.2263H276.773C276.948 25.2263 277.098 25.2025 277.223 25.155C277.348 25.1052 277.444 25.0362 277.51 24.948C277.576 24.8575 277.609 24.75 277.609 24.6256C277.609 24.4469 277.532 24.3066 277.379 24.2048C277.228 24.103 277.017 24.0521 276.748 24.0521H275.664V25.2263Z" fill="white"/>
<path d="M282.538 28.3824C281.995 28.3824 281.528 28.2682 281.138 28.0397C280.751 27.8112 280.452 27.4956 280.242 27.0928C280.034 26.6878 279.93 26.2218 279.93 25.6946C279.93 25.1652 280.036 24.698 280.249 24.293C280.461 23.8858 280.761 23.569 281.149 23.3428C281.539 23.1143 281.999 23 282.531 23C282.973 23 283.364 23.0781 283.704 23.2342C284.047 23.388 284.319 23.6063 284.523 23.8892C284.726 24.1697 284.842 24.4978 284.87 24.8733H283.644C283.594 24.6222 283.476 24.4129 283.289 24.2455C283.105 24.0758 282.858 23.991 282.549 23.991C282.286 23.991 282.056 24.0588 281.858 24.1946C281.659 24.3281 281.504 24.5204 281.393 24.7715C281.285 25.0227 281.23 25.3236 281.23 25.6743C281.23 26.0295 281.285 26.3349 281.393 26.5906C281.502 26.844 281.654 27.0397 281.85 27.1777C282.049 27.3134 282.282 27.3813 282.549 27.3813C282.738 27.3813 282.907 27.3474 283.055 27.2795C283.207 27.2093 283.333 27.1087 283.435 26.9774C283.536 26.8462 283.606 26.6867 283.644 26.4989H284.87C284.839 26.8677 284.726 27.1946 284.53 27.4797C284.334 27.7625 284.067 27.9842 283.729 28.1449C283.391 28.3033 282.994 28.3824 282.538 28.3824Z" fill="white"/>
<path d="M288.333 28.3824C287.787 28.3824 287.316 28.2738 286.919 28.0566C286.525 27.8372 286.221 27.5272 286.008 27.1268C285.796 26.724 285.689 26.2501 285.689 25.7048C285.689 25.1686 285.796 24.698 286.008 24.293C286.223 23.8858 286.523 23.569 286.909 23.3428C287.294 23.1143 287.746 23 288.266 23C288.601 23 288.918 23.052 289.216 23.1561C289.516 23.2579 289.78 23.4163 290.01 23.6312C290.241 23.8462 290.423 24.1199 290.555 24.4525C290.688 24.7828 290.754 25.1765 290.754 25.6335V26.0102H286.292V25.1822H289.524C289.522 24.9469 289.468 24.7376 289.365 24.5543C289.261 24.3688 289.115 24.2229 288.929 24.1165C288.744 24.0102 288.529 23.957 288.284 23.957C288.021 23.957 287.791 24.0181 287.593 24.1403C287.394 24.2602 287.239 24.4186 287.128 24.6154C287.02 24.81 286.964 25.0238 286.962 25.2568V25.9797C286.962 26.2829 287.02 26.543 287.135 26.7602C287.251 26.9752 287.413 27.1403 287.621 27.2557C287.829 27.3689 288.072 27.4254 288.351 27.4254C288.538 27.4254 288.707 27.4005 288.858 27.3508C289.009 27.2987 289.14 27.2229 289.251 27.1234C289.362 27.0238 289.446 26.9005 289.503 26.7535L290.701 26.8824C290.625 27.1856 290.481 27.4503 290.268 27.6766C290.058 27.9005 289.789 28.0747 289.46 28.1992C289.132 28.3214 288.756 28.3824 288.333 28.3824Z" fill="white"/>
<path d="M295.44 23.0679V24.0758H293.094V28.2806H291.839V23.0679H295.44Z" fill="white"/>
<path d="M295.538 29.7942V27.2693H295.97C296.086 27.1833 296.183 27.0668 296.261 26.9198C296.339 26.7704 296.403 26.5951 296.452 26.3937C296.504 26.1901 296.547 25.9627 296.58 25.7116C296.613 25.4582 296.643 25.1856 296.669 24.8937L296.825 23.0679H300.758V27.2693H301.602V29.7942H300.361V28.2806H296.8V29.7942H295.538ZM297.289 27.2693H299.532V24.0588H297.937L297.852 24.8937C297.805 25.4457 297.742 25.9186 297.664 26.3123C297.586 26.7059 297.461 27.025 297.289 27.2693Z" fill="white"/>
<path d="M304.126 28.3858C303.781 28.3858 303.47 28.327 303.194 28.2094C302.92 28.0895 302.702 27.913 302.542 27.6799C302.383 27.4469 302.304 27.1596 302.304 26.8179C302.304 26.5238 302.361 26.2806 302.474 26.0883C302.588 25.896 302.743 25.7421 302.939 25.6267C303.135 25.5114 303.356 25.4243 303.601 25.3654C303.849 25.3043 304.106 25.2602 304.37 25.2331C304.689 25.2014 304.948 25.1731 305.147 25.1482C305.345 25.1211 305.489 25.0804 305.579 25.0261C305.671 24.9695 305.717 24.8824 305.717 24.7647V24.7444C305.717 24.4887 305.638 24.2907 305.48 24.1505C305.321 24.0102 305.093 23.9401 304.796 23.9401C304.481 23.9401 304.232 24.0057 304.048 24.1369C303.866 24.2681 303.743 24.4231 303.679 24.6018L302.482 24.4389C302.576 24.1222 302.732 23.8575 302.949 23.6448C303.167 23.4299 303.432 23.2692 303.747 23.1629C304.061 23.0543 304.408 23 304.789 23C305.051 23 305.312 23.0294 305.572 23.0882C305.832 23.1471 306.069 23.2443 306.284 23.3801C306.499 23.5136 306.672 23.6957 306.802 23.9265C306.934 24.1573 307 24.4457 307 24.7919V28.2806H305.767V27.5646H305.724C305.646 27.7094 305.536 27.8451 305.395 27.9718C305.255 28.0962 305.079 28.1969 304.867 28.2738C304.656 28.3485 304.409 28.3858 304.126 28.3858ZM304.459 27.4831C304.717 27.4831 304.94 27.4345 305.129 27.3372C305.318 27.2376 305.463 27.1064 305.565 26.9435C305.669 26.7806 305.721 26.603 305.721 26.4107V25.7964C305.681 25.8281 305.612 25.8575 305.515 25.8847C305.421 25.9118 305.314 25.9356 305.196 25.9559C305.078 25.9763 304.961 25.9944 304.845 26.0102C304.73 26.0261 304.629 26.0396 304.544 26.051C304.353 26.0758 304.181 26.1166 304.03 26.1731C303.879 26.2297 303.76 26.3089 303.672 26.4107C303.585 26.5102 303.541 26.6392 303.541 26.7976C303.541 27.0238 303.627 27.1946 303.8 27.31C303.972 27.4254 304.192 27.4831 304.459 27.4831Z" fill="white"/>
<path d="M113.975 36.3626V67.3694H107V36.3626H113.975Z" fill="white"/>
<path d="M139.816 39.0548C141.786 40.7259 142.771 43.155 142.771 46.3424C142.771 49.4987 141.673 51.9279 139.477 53.6299C138.347 54.4963 136.974 55.1152 135.36 55.4866C133.745 55.8579 131.581 56.0436 128.869 56.0436H127.658V67.3694H120.682V36.3626H130.031C132.486 36.3626 134.439 36.5638 135.893 36.9661C137.378 37.3684 138.686 38.0646 139.816 39.0548ZM134.343 50.1486C135.441 49.4368 135.99 48.1217 135.99 46.2031C135.99 44.2536 135.424 42.9539 134.294 42.3041C133.196 41.6233 131.404 41.2829 128.917 41.2829H127.658V51.1233H128.191C131.388 51.1233 133.438 50.7984 134.343 50.1486Z" fill="white"/>
<path d="M165.443 63.4239H160.357L153.672 45.1355L152.897 67.3694H146.455L148.344 36.3626H155.9L162.876 56.3221L169.9 36.3626H177.456L179.345 67.3694H172.854L172.079 45.1819L165.443 63.4239Z" fill="white"/>
<path d="M192.205 61.985H204.558V67.3694H185.182V36.3626H192.205V61.985Z" fill="white"/>
<path d="M228.427 55.533C228.427 59.8343 227.425 62.9907 225.423 65.0021C223.421 66.9826 220.789 67.9728 217.528 67.9728C214.266 67.9728 211.666 66.9826 209.729 65.0021C207.823 63.0216 206.871 59.8807 206.871 55.5794C206.871 51.2781 207.856 48.1372 209.826 46.1567C211.828 44.1453 214.444 43.1396 217.673 43.1396C224.842 43.1396 228.427 47.2707 228.427 55.533ZM221.839 55.4866C221.839 52.6396 221.483 50.7056 220.773 49.6844C220.063 48.6632 219.013 48.1526 217.624 48.1526C216.268 48.1526 215.219 48.6632 214.476 49.6844C213.765 50.7056 213.41 52.6706 213.41 55.5794C213.41 60.5306 214.815 63.0062 217.624 63.0062C218.948 63.0062 219.982 62.4646 220.725 61.3816C221.467 60.2675 221.839 58.3026 221.839 55.4866Z" fill="white"/>
<path d="M244.206 68.437H239.313C237.666 68.9631 236.843 69.9069 236.843 71.2684C236.843 73.0014 238.683 73.8678 242.365 73.8678C246.046 73.8678 247.887 72.7383 247.887 70.4794C247.887 69.7986 247.613 69.288 247.064 68.9476C246.547 68.6072 245.594 68.437 244.206 68.437ZM241.638 47.9206C239.41 47.9206 238.296 49.3131 238.296 52.0981C238.296 53.4597 238.554 54.4499 239.071 55.0688C239.62 55.6877 240.476 55.9972 241.638 55.9972C242.801 55.9972 243.64 55.6877 244.157 55.0688C244.674 54.4499 244.932 53.4442 244.932 52.0517C244.932 50.6282 244.674 49.5916 244.157 48.9417C243.64 48.2609 242.801 47.9206 241.638 47.9206ZM241.493 43.0003L245.756 43.2324C248.275 43.2324 250.939 43.0003 253.748 42.5361L254.33 46.1103C253.716 46.265 252.037 46.528 249.292 46.8994C250.422 48.4157 250.987 50.1331 250.987 52.0517C250.987 54.7129 250.18 56.8791 248.565 58.5501C246.983 60.2211 244.69 61.0566 241.687 61.0566C240.621 61.0566 239.765 60.9793 239.119 60.8246C238.926 61.3816 238.829 61.8612 238.829 62.2635C238.829 63.2847 239.749 63.7953 241.59 63.7953H245.756C248.242 63.7953 250.18 64.3368 251.568 65.4199C252.957 66.472 253.651 67.9419 253.651 69.8295C253.651 72.5836 252.553 74.7497 250.357 76.3279C248.162 77.9061 245.32 78.6952 241.832 78.6952C238.344 78.6952 235.696 78.1227 233.888 76.9778C232.112 75.8638 231.224 74.2701 231.224 72.1968C231.224 70.9899 231.643 69.845 232.483 68.7619C233.323 67.6788 234.501 66.8124 236.019 66.1625C234.986 65.5127 234.469 64.5844 234.469 63.3775C234.469 62.1397 234.954 60.9019 235.922 59.6641C234.76 58.8596 233.856 57.792 233.21 56.4613C232.564 55.0998 232.241 53.6299 232.241 52.0517C232.241 49.3595 233.016 47.1779 234.566 45.5069C236.148 43.8358 238.457 43.0003 241.493 43.0003Z" fill="white"/>
<path d="M264.077 67.3694H257.296V43.6037L264.077 43.0467V67.3694ZM256.666 35.9449C256.666 34.8928 257.054 33.9954 257.829 33.2527C258.604 32.51 259.54 32.1387 260.638 32.1387C261.736 32.1387 262.673 32.51 263.448 33.2527C264.223 33.9954 264.61 34.8928 264.61 35.9449C264.61 36.9661 264.223 37.8635 263.448 38.6371C262.673 39.4107 261.736 39.7975 260.638 39.7975C259.54 39.7975 258.604 39.4262 257.829 38.6835C257.054 37.9099 256.666 36.997 256.666 35.9449Z" fill="white"/>
<path d="M278.614 48.1526C276.418 48.1526 275.32 48.8489 275.32 50.2414C275.32 50.9841 275.691 51.6185 276.434 52.1445C277.177 52.6706 278.065 53.1348 279.098 53.537C280.164 53.9084 281.214 54.3416 282.247 54.8367C283.313 55.3009 284.217 55.9817 284.96 56.8791C285.702 57.7765 286.074 58.875 286.074 60.1747C286.074 62.4956 285.25 64.3832 283.603 65.8376C281.956 67.2611 279.534 67.9728 276.337 67.9728C274.884 67.9728 273.35 67.8181 271.735 67.5086C270.153 67.1992 268.991 66.8433 268.248 66.441L269.895 61.7993C272.414 62.6039 274.674 63.0062 276.676 63.0062C278.711 63.0062 279.728 62.248 279.728 60.7317C279.728 60.0819 279.357 59.4939 278.614 58.9679C277.871 58.4418 276.967 57.9622 275.901 57.5289C274.868 57.0648 273.818 56.5696 272.753 56.0436C271.719 55.5175 270.831 54.7748 270.089 53.8155C269.346 52.8563 268.974 51.7422 268.974 50.4735C268.974 48.0907 269.798 46.265 271.445 44.9963C273.092 43.7275 275.449 43.0932 278.517 43.0932C281.585 43.0932 283.991 43.5728 285.735 44.5321L284.136 49.1274C281.908 48.4776 280.067 48.1526 278.614 48.1526Z" fill="white"/>
<path d="M292.998 59.7105V48.0598L288.638 47.7813V43.9751L293.143 43.6037V38.1729L299.925 37.6159V43.5573H306.997L306.61 48.0598H299.877V60.314C299.877 61.2114 300.022 61.8612 300.313 62.2635C300.603 62.6348 301.217 62.8205 302.153 62.8205C303.09 62.8205 304.139 62.6812 305.302 62.4027L306.319 66.9981C304.737 67.6479 303.122 67.9728 301.475 67.9728C299.86 67.9728 298.633 67.88 297.794 67.6943C296.986 67.5086 296.308 67.292 295.759 67.0445C295.242 66.7969 294.79 66.441 294.403 65.9769C294.048 65.4818 293.773 65.0485 293.579 64.6772C293.418 64.3059 293.289 63.7798 293.192 63.099C293.063 62.1707 292.998 61.0412 292.998 59.7105Z" fill="white"/>
<path d="M107 77.4063V73.1558H107.681V75.0043H108.131L109.725 73.1558H110.602L108.813 75.2035L110.625 77.4063H109.748L108.293 75.6131H107.681V77.4063H107Z" fill="white"/>
<path d="M113.309 77.4948C112.909 77.4948 112.558 77.4035 112.256 77.2208C111.956 77.0382 111.721 76.7827 111.552 76.4543C111.384 76.126 111.3 75.7422 111.3 75.3032C111.3 74.8604 111.384 74.4739 111.552 74.1437C111.721 73.8135 111.956 73.5571 112.256 73.3744C112.558 73.1918 112.909 73.1005 113.309 73.1005C113.71 73.1005 114.06 73.1918 114.36 73.3744C114.662 73.5571 114.897 73.8135 115.064 74.1437C115.234 74.4739 115.318 74.8604 115.318 75.3032C115.318 75.7422 115.234 76.126 115.064 76.4543C114.897 76.7827 114.662 77.0382 114.36 77.2208C114.06 77.4035 113.71 77.4948 113.309 77.4948ZM113.309 76.9082C113.613 76.9082 113.863 76.8334 114.06 76.684C114.256 76.5346 114.401 76.3381 114.496 76.0946C114.59 75.8511 114.637 75.5873 114.637 75.3032C114.637 75.0191 114.59 74.7543 114.496 74.509C114.401 74.2636 114.256 74.0653 114.06 73.914C113.863 73.7628 113.613 73.6871 113.309 73.6871C113.005 73.6871 112.755 73.7628 112.559 73.914C112.363 74.0653 112.217 74.2636 112.123 74.509C112.029 74.7543 111.982 75.0191 111.982 75.3032C111.982 75.5873 112.029 75.8511 112.123 76.0946C112.217 76.3381 112.363 76.5346 112.559 76.684C112.755 76.8334 113.005 76.9082 113.309 76.9082Z" fill="white"/>
<path d="M119.419 73.1558V73.7646H117.364V77.4063H116.683V73.1558H119.419Z" fill="white"/>
<path d="M119.893 78.6238V76.7975H120.262C120.352 76.7071 120.43 76.6093 120.496 76.5041C120.561 76.399 120.618 76.2745 120.666 76.1306C120.716 75.9848 120.758 75.8077 120.793 75.5993C120.828 75.389 120.858 75.1353 120.885 74.8383L121.036 73.1558H123.853V76.7975H124.534V78.6238H123.853V77.4063H120.574V78.6238H119.893ZM121.036 76.7975H123.171V73.7646H121.671L121.555 74.8383C121.507 75.2829 121.447 75.6712 121.376 76.0033C121.305 76.3353 121.191 76.6001 121.036 76.7975Z" fill="white"/>
<path d="M127.068 77.5059C126.787 77.5059 126.532 77.4551 126.303 77.3537C126.074 77.2504 125.892 77.1019 125.757 76.9082C125.623 76.7126 125.555 76.4765 125.555 76.1997C125.555 75.9562 125.605 75.7588 125.705 75.6076C125.805 75.4544 125.939 75.3345 126.107 75.2478C126.274 75.1611 126.459 75.0965 126.661 75.0541C126.865 75.0098 127.07 74.9748 127.276 74.949C127.545 74.9158 127.763 74.8909 127.931 74.8742C128.1 74.8558 128.223 74.8254 128.3 74.7829C128.379 74.7405 128.419 74.6667 128.419 74.5616V74.5394C128.419 74.2664 128.341 74.0542 128.185 73.903C128.031 73.7517 127.797 73.676 127.483 73.676C127.158 73.676 126.903 73.7443 126.718 73.8808C126.534 74.0173 126.404 74.1631 126.329 74.318L125.682 74.0967C125.798 73.8384 125.952 73.6373 126.144 73.4934C126.338 73.3477 126.55 73.2462 126.779 73.189C127.01 73.13 127.237 73.1005 127.46 73.1005C127.603 73.1005 127.766 73.1171 127.951 73.1503C128.138 73.1816 128.318 73.2471 128.491 73.3467C128.666 73.4464 128.811 73.5967 128.927 73.7978C129.042 73.9989 129.1 74.2682 129.1 74.6058V77.4063H128.419V76.8307H128.384C128.338 76.9229 128.261 77.0216 128.153 77.1268C128.045 77.2319 127.902 77.3214 127.723 77.3952C127.544 77.469 127.326 77.5059 127.068 77.5059ZM127.172 76.9192C127.441 76.9192 127.668 76.8685 127.853 76.767C128.039 76.6656 128.18 76.5346 128.274 76.3741C128.37 76.2136 128.419 76.0448 128.419 75.8677V75.27C128.39 75.3032 128.326 75.3336 128.228 75.3613C128.132 75.3871 128.02 75.4102 127.893 75.4305C127.768 75.4489 127.646 75.4655 127.527 75.4803C127.409 75.4932 127.314 75.5043 127.241 75.5135C127.064 75.5356 126.898 75.5716 126.744 75.6214C126.592 75.6694 126.469 75.7422 126.375 75.84C126.283 75.9359 126.236 76.0669 126.236 76.233C126.236 76.4599 126.324 76.6314 126.499 76.7477C126.676 76.862 126.9 76.9192 127.172 76.9192Z" fill="white"/>
<path d="M133.279 77.4063V73.1558H135.092C135.569 73.1558 135.948 73.2591 136.229 73.4657C136.51 73.6724 136.651 73.9454 136.651 74.2848C136.651 74.5431 136.571 74.7433 136.411 74.8853C136.251 75.0255 136.046 75.1205 135.796 75.1703C135.96 75.1925 136.119 75.2478 136.272 75.3364C136.428 75.4249 136.557 75.5467 136.659 75.7016C136.761 75.8548 136.812 76.0429 136.812 76.2662C136.812 76.4838 136.755 76.6785 136.639 76.85C136.524 77.0216 136.358 77.1572 136.143 77.2568C135.927 77.3564 135.669 77.4063 135.369 77.4063H133.279ZM133.926 76.8085H135.369C135.604 76.8085 135.788 76.755 135.92 76.648C136.053 76.541 136.12 76.3953 136.12 76.2108C136.12 75.9913 136.053 75.8188 135.92 75.6933C135.788 75.5661 135.604 75.5024 135.369 75.5024H133.926V76.8085ZM133.926 74.9379H135.092C135.275 74.9379 135.432 74.9139 135.562 74.8659C135.693 74.8161 135.793 74.746 135.863 74.6556C135.934 74.5634 135.969 74.4546 135.969 74.3291C135.969 74.1502 135.891 74.01 135.736 73.9085C135.58 73.8052 135.365 73.7535 135.092 73.7535H133.926V74.9379Z" fill="white"/>
<path d="M138.169 79.0002V73.1558H138.827V73.831H138.907C138.957 73.7572 139.027 73.6631 139.115 73.5488C139.206 73.4325 139.335 73.3292 139.502 73.2388C139.671 73.1466 139.9 73.1005 140.189 73.1005C140.562 73.1005 140.891 73.1899 141.176 73.3689C141.461 73.5478 141.683 73.8015 141.843 74.1299C142.003 74.4582 142.082 74.8457 142.082 75.2921C142.082 75.7422 142.003 76.1324 141.843 76.4626C141.683 76.791 141.462 77.0456 141.179 77.2264C140.896 77.4053 140.57 77.4948 140.201 77.4948C139.916 77.4948 139.688 77.4496 139.516 77.3592C139.345 77.267 139.213 77.1627 139.121 77.0465C139.029 76.9284 138.957 76.8307 138.907 76.7532H138.85V79.0002H138.169ZM138.838 75.281C138.838 75.602 138.887 75.8852 138.985 76.1306C139.083 76.3741 139.227 76.565 139.415 76.7034C139.604 76.8399 139.835 76.9082 140.108 76.9082C140.393 76.9082 140.631 76.8362 140.821 76.6923C141.014 76.5466 141.158 76.351 141.254 76.1057C141.352 75.8585 141.401 75.5836 141.401 75.281C141.401 74.9822 141.353 74.7128 141.257 74.473C141.163 74.2313 141.019 74.0404 140.827 73.9002C140.636 73.7581 140.397 73.6871 140.108 73.6871C139.831 73.6871 139.598 73.7544 139.41 73.8891C139.221 74.0219 139.079 74.2083 138.982 74.4481C138.886 74.6861 138.838 74.9637 138.838 75.281Z" fill="white"/>
<path d="M145.305 77.4948C144.878 77.4948 144.51 77.4044 144.2 77.2236C143.892 77.041 143.654 76.7864 143.487 76.4599C143.322 76.1315 143.239 75.7496 143.239 75.3142C143.239 74.8789 143.322 74.4951 143.487 74.1631C143.654 73.8292 143.887 73.569 144.186 73.3827C144.486 73.1945 144.836 73.1005 145.236 73.1005C145.467 73.1005 145.695 73.1374 145.92 73.2112C146.145 73.2849 146.35 73.4049 146.535 73.5709C146.72 73.7351 146.867 73.9528 146.977 74.224C147.086 74.4951 147.141 74.8291 147.141 75.2257V75.5024H143.724V74.9379H146.449C146.449 74.6981 146.398 74.4841 146.298 74.2959C146.2 74.1077 146.06 73.9592 145.877 73.8504C145.696 73.7415 145.483 73.6871 145.236 73.6871C144.965 73.6871 144.73 73.7517 144.532 73.8808C144.336 74.0081 144.185 74.1741 144.079 74.3789C143.973 74.5837 143.92 74.8032 143.92 75.0375V75.4139C143.92 75.7349 143.978 76.007 144.093 76.2302C144.211 76.4516 144.373 76.6204 144.581 76.7366C144.789 76.851 145.03 76.9082 145.305 76.9082C145.484 76.9082 145.646 76.8842 145.79 76.8362C145.937 76.7864 146.063 76.7126 146.169 76.6148C146.274 76.5152 146.356 76.3916 146.414 76.244L147.072 76.4211C147.003 76.6351 146.886 76.8233 146.723 76.9856C146.559 77.1461 146.357 77.2716 146.117 77.362C145.876 77.4505 145.606 77.4948 145.305 77.4948Z" fill="white"/>
<path d="M150.927 76.5207L152.474 73.1558H153.121L151.204 77.4063H150.65L148.768 73.1558H149.403L150.927 76.5207ZM149.184 73.1558V77.4063H148.503V73.1558H149.184ZM152.67 77.4063V73.1558H153.352V77.4063H152.67Z" fill="white"/>
<path d="M157.591 77.4063V73.7535H156.413C156.148 73.7535 155.939 73.8126 155.787 73.9306C155.635 74.0487 155.559 74.211 155.559 74.4177C155.559 74.6206 155.627 74.7802 155.764 74.8964C155.902 75.0126 156.092 75.0707 156.332 75.0707H157.764V75.6795H156.332C156.032 75.6795 155.773 75.6288 155.556 75.5273C155.338 75.4258 155.171 75.281 155.054 75.0929C154.936 74.9028 154.878 74.6778 154.878 74.4177C154.878 74.1557 154.939 73.9306 155.062 73.7425C155.185 73.5543 155.361 73.4095 155.59 73.308C155.821 73.2065 156.096 73.1558 156.413 73.1558H158.237V77.4063H157.591ZM154.635 77.4063L155.894 75.2921H156.632L155.374 77.4063H154.635Z" fill="white"/>
<path d="M163.105 76.4433L165.241 73.1558H166.026V77.4063H165.345V74.1188L163.221 77.4063H162.424V73.1558H163.105V76.4433Z" fill="white"/>
<path d="M170.024 76.5207L171.571 73.1558H172.217L170.301 77.4063H169.746L167.865 73.1558H168.5L170.024 76.5207ZM168.28 73.1558V77.4063H167.599V73.1558H168.28ZM171.767 77.4063V73.1558H172.448V77.4063H171.767Z" fill="white"/>
<path d="M175.879 77.4948C175.452 77.4948 175.083 77.4044 174.774 77.2236C174.466 77.041 174.228 76.7864 174.061 76.4599C173.895 76.1315 173.812 75.7496 173.812 75.3142C173.812 74.8789 173.895 74.4951 174.061 74.1631C174.228 73.8292 174.461 73.569 174.759 73.3827C175.059 73.1945 175.409 73.1005 175.81 73.1005C176.041 73.1005 176.269 73.1374 176.494 73.2112C176.719 73.2849 176.924 73.4049 177.109 73.5709C177.293 73.7351 177.441 73.9528 177.55 74.224C177.66 74.4951 177.715 74.8291 177.715 75.2257V75.5024H174.297V74.9379H177.022C177.022 74.6981 176.972 74.4841 176.872 74.2959C176.774 74.1077 176.633 73.9592 176.451 73.8504C176.27 73.7415 176.056 73.6871 175.81 73.6871C175.538 73.6871 175.304 73.7517 175.105 73.8808C174.909 74.0081 174.758 74.1741 174.652 74.3789C174.546 74.5837 174.494 74.8032 174.494 75.0375V75.4139C174.494 75.7349 174.551 76.007 174.667 76.2302C174.784 76.4516 174.947 76.6204 175.155 76.7366C175.362 76.851 175.604 76.9082 175.879 76.9082C176.058 76.9082 176.22 76.8842 176.364 76.8362C176.51 76.7864 176.636 76.7126 176.742 76.6148C176.848 76.5152 176.93 76.3916 176.987 76.244L177.645 76.4211C177.576 76.6351 177.46 76.8233 177.296 76.9856C177.133 77.1461 176.931 77.2716 176.69 77.362C176.45 77.4505 176.179 77.4948 175.879 77.4948Z" fill="white"/>
<path d="M180.935 77.4948C180.508 77.4948 180.139 77.4044 179.829 77.2236C179.522 77.041 179.284 76.7864 179.116 76.4599C178.951 76.1315 178.868 75.7496 178.868 75.3142C178.868 74.8789 178.951 74.4951 179.116 74.1631C179.284 73.8292 179.517 73.569 179.815 73.3827C180.115 73.1945 180.465 73.1005 180.866 73.1005C181.097 73.1005 181.325 73.1374 181.55 73.2112C181.775 73.2849 181.98 73.4049 182.165 73.5709C182.349 73.7351 182.496 73.9528 182.606 74.224C182.716 74.4951 182.771 74.8291 182.771 75.2257V75.5024H179.353V74.9379H182.078C182.078 74.6981 182.028 74.4841 181.928 74.2959C181.83 74.1077 181.689 73.9592 181.506 73.8504C181.326 73.7415 181.112 73.6871 180.866 73.6871C180.594 73.6871 180.36 73.7517 180.161 73.8808C179.965 74.0081 179.814 74.1741 179.708 74.3789C179.602 74.5837 179.549 74.8032 179.549 75.0375V75.4139C179.549 75.7349 179.607 76.007 179.723 76.2302C179.84 76.4516 180.003 76.6204 180.21 76.7366C180.418 76.851 180.66 76.9082 180.935 76.9082C181.114 76.9082 181.276 76.8842 181.42 76.8362C181.566 76.7864 181.692 76.7126 181.798 76.6148C181.904 76.5152 181.986 76.3916 182.043 76.244L182.701 76.4211C182.632 76.6351 182.516 76.8233 182.352 76.9856C182.189 77.1461 181.987 77.2716 181.746 77.362C181.505 77.4505 181.235 77.4948 180.935 77.4948Z" fill="white"/>
<path d="M183.719 73.7646V73.1558H187.321V73.7646H185.867V77.4063H185.186V73.7646H183.719Z" fill="white"/>
<path d="M190.974 76.3215H191.702C191.717 76.5134 191.807 76.6591 191.973 76.7587C192.14 76.8583 192.358 76.9082 192.625 76.9082C192.898 76.9082 193.132 76.8547 193.327 76.7477C193.521 76.6388 193.618 76.4636 193.618 76.2219C193.618 76.0798 193.582 75.9562 193.508 75.8511C193.435 75.7441 193.332 75.6611 193.2 75.602C193.067 75.543 192.91 75.5135 192.729 75.5135H191.967V74.9268H192.729C193 74.9268 193.201 74.8678 193.33 74.7497C193.46 74.6317 193.526 74.4841 193.526 74.307C193.526 74.117 193.456 73.9648 193.315 73.8504C193.175 73.7342 192.975 73.676 192.718 73.676C192.458 73.676 192.241 73.7323 192.068 73.8448C191.895 73.9555 191.804 74.0985 191.794 74.2738H191.078C191.086 74.045 191.159 73.843 191.298 73.6677C191.436 73.4906 191.625 73.3523 191.863 73.2527C192.102 73.1512 192.375 73.1005 192.683 73.1005C192.995 73.1005 193.265 73.153 193.494 73.2582C193.725 73.3615 193.903 73.5026 194.028 73.6816C194.155 73.8587 194.219 74.0598 194.219 74.2848C194.219 74.5247 194.148 74.7184 194.008 74.8659C193.867 75.0135 193.691 75.1187 193.48 75.1814V75.2257C193.647 75.2368 193.792 75.2884 193.915 75.3806C194.041 75.471 194.138 75.59 194.207 75.7376C194.276 75.8834 194.311 76.0448 194.311 76.2219C194.311 76.4802 194.239 76.7052 194.094 76.8971C193.95 77.0871 193.752 77.2347 193.5 77.3398C193.248 77.4431 192.96 77.4948 192.637 77.4948C192.323 77.4948 192.042 77.4459 191.794 77.3481C191.546 77.2485 191.348 77.1111 191.202 76.9358C191.058 76.7587 190.982 76.5539 190.974 76.3215Z" fill="white"/>
<path d="M198.56 74.9822V75.591H196.112V74.9822H198.56ZM196.274 73.1558V77.4063H195.593V73.1558H196.274ZM199.08 73.1558V77.4063H198.398V73.1558H199.08Z" fill="white"/>
<path d="M201.953 77.5059C201.672 77.5059 201.417 77.4551 201.188 77.3537C200.96 77.2504 200.778 77.1019 200.643 76.9082C200.508 76.7126 200.441 76.4765 200.441 76.1997C200.441 75.9562 200.491 75.7588 200.591 75.6076C200.691 75.4544 200.825 75.3345 200.992 75.2478C201.16 75.1611 201.344 75.0965 201.546 75.0541C201.75 75.0098 201.955 74.9748 202.161 74.949C202.431 74.9158 202.649 74.8909 202.816 74.8742C202.986 74.8558 203.109 74.8254 203.186 74.7829C203.265 74.7405 203.304 74.6667 203.304 74.5616V74.5394C203.304 74.2664 203.226 74.0542 203.07 73.903C202.916 73.7517 202.683 73.676 202.369 73.676C202.044 73.676 201.789 73.7443 201.604 73.8808C201.419 74.0173 201.29 74.1631 201.214 74.318L200.568 74.0967C200.683 73.8384 200.837 73.6373 201.03 73.4934C201.224 73.3477 201.436 73.2462 201.665 73.189C201.896 73.13 202.123 73.1005 202.346 73.1005C202.488 73.1005 202.652 73.1171 202.837 73.1503C203.023 73.1816 203.203 73.2471 203.376 73.3467C203.551 73.4464 203.697 73.5967 203.812 73.7978C203.928 73.9989 203.985 74.2682 203.985 74.6058V77.4063H203.304V76.8307H203.27C203.223 76.9229 203.146 77.0216 203.039 77.1268C202.931 77.2319 202.788 77.3214 202.609 77.3952C202.43 77.469 202.211 77.5059 201.953 77.5059ZM202.057 76.9192C202.327 76.9192 202.554 76.8685 202.738 76.767C202.925 76.6656 203.066 76.5346 203.16 76.3741C203.256 76.2136 203.304 76.0448 203.304 75.8677V75.27C203.275 75.3032 203.212 75.3336 203.114 75.3613C203.017 75.3871 202.906 75.4102 202.779 75.4305C202.654 75.4489 202.532 75.4655 202.412 75.4803C202.295 75.4932 202.2 75.5043 202.127 75.5135C201.95 75.5356 201.784 75.5716 201.63 75.6214C201.478 75.6694 201.355 75.7422 201.261 75.84C201.168 75.9359 201.122 76.0669 201.122 76.233C201.122 76.4599 201.21 76.6314 201.385 76.7477C201.562 76.862 201.786 76.9192 202.057 76.9192Z" fill="white"/>
<path d="M208.971 73.1558V77.4063H208.29V73.1558H208.971ZM208.706 75.1814V75.7902C208.552 75.8455 208.399 75.8944 208.247 75.9369C208.095 75.9774 207.935 76.0097 207.768 76.0337C207.6 76.0559 207.417 76.0669 207.216 76.0669C206.714 76.0669 206.311 75.9369 206.007 75.6767C205.705 75.4166 205.554 75.0264 205.554 74.5062V73.1447H206.235V74.5062C206.235 74.7239 206.278 74.9028 206.365 75.043C206.451 75.1833 206.569 75.2875 206.717 75.3557C206.865 75.424 207.032 75.4581 207.216 75.4581C207.505 75.4581 207.766 75.4332 207.999 75.3834C208.233 75.3318 208.469 75.2644 208.706 75.1814Z" fill="white"/>
<path d="M212.405 77.4948C211.978 77.4948 211.609 77.4044 211.3 77.2236C210.992 77.041 210.754 76.7864 210.587 76.4599C210.421 76.1315 210.338 75.7496 210.338 75.3142C210.338 74.8789 210.421 74.4951 210.587 74.1631C210.754 73.8292 210.987 73.569 211.285 73.3827C211.585 73.1945 211.936 73.1005 212.336 73.1005C212.567 73.1005 212.795 73.1374 213.02 73.2112C213.245 73.2849 213.45 73.4049 213.635 73.5709C213.819 73.7351 213.967 73.9528 214.076 74.224C214.186 74.4951 214.241 74.8291 214.241 75.2257V75.5024H210.823V74.9379H213.548C213.548 74.6981 213.498 74.4841 213.398 74.2959C213.3 74.1077 213.159 73.9592 212.977 73.8504C212.796 73.7415 212.582 73.6871 212.336 73.6871C212.064 73.6871 211.83 73.7517 211.631 73.8808C211.435 74.0081 211.284 74.1741 211.178 74.3789C211.073 74.5837 211.02 74.8032 211.02 75.0375V75.4139C211.02 75.7349 211.077 76.007 211.193 76.2302C211.31 76.4516 211.473 76.6204 211.681 76.7366C211.888 76.851 212.13 76.9082 212.405 76.9082C212.584 76.9082 212.746 76.8842 212.89 76.8362C213.036 76.7864 213.162 76.7126 213.268 76.6148C213.374 76.5152 213.456 76.3916 213.513 76.244L214.172 76.4211C214.102 76.6351 213.986 76.8233 213.822 76.9856C213.659 77.1461 213.457 77.2716 213.216 77.362C212.976 77.4505 212.705 77.4948 212.405 77.4948Z" fill="white"/>
<path d="M218.569 74.9822V75.591H216.122V74.9822H218.569ZM216.283 73.1558V77.4063H215.602V73.1558H216.283ZM219.089 73.1558V77.4063H218.408V73.1558H219.089Z" fill="white"/>
<path d="M221.339 76.4433L223.475 73.1558H224.26V77.4063H223.579V74.1188L221.455 77.4063H220.658V73.1558H221.339V76.4433Z" fill="white"/>
<path d="M227.692 77.4948C227.265 77.4948 226.896 77.4044 226.586 77.2236C226.278 77.041 226.041 76.7864 225.873 76.4599C225.708 76.1315 225.625 75.7496 225.625 75.3142C225.625 74.8789 225.708 74.4951 225.873 74.1631C226.041 73.8292 226.274 73.569 226.572 73.3827C226.872 73.1945 227.222 73.1005 227.623 73.1005C227.853 73.1005 228.081 73.1374 228.307 73.2112C228.532 73.2849 228.737 73.4049 228.921 73.5709C229.106 73.7351 229.253 73.9528 229.363 74.224C229.473 74.4951 229.528 74.8291 229.528 75.2257V75.5024H226.11V74.9379H228.835C228.835 74.6981 228.785 74.4841 228.685 74.2959C228.587 74.1077 228.446 73.9592 228.263 73.8504C228.082 73.7415 227.869 73.6871 227.623 73.6871C227.351 73.6871 227.116 73.7517 226.918 73.8808C226.722 74.0081 226.571 74.1741 226.465 74.3789C226.359 74.5837 226.306 74.8032 226.306 75.0375V75.4139C226.306 75.7349 226.364 76.007 226.48 76.2302C226.597 76.4516 226.76 76.6204 226.967 76.7366C227.175 76.851 227.417 76.9082 227.692 76.9082C227.871 76.9082 228.032 76.8842 228.177 76.8362C228.323 76.7864 228.449 76.7126 228.555 76.6148C228.661 76.5152 228.742 76.3916 228.8 76.244L229.458 76.4211C229.389 76.6351 229.273 76.8233 229.109 76.9856C228.945 77.1461 228.743 77.2716 228.503 77.362C228.262 77.4505 227.992 77.4948 227.692 77.4948Z" fill="white"/>
<path d="M107 28.0646V23.0651H109.201C109.822 23.0651 110.312 23.1834 110.672 23.4199C111.033 23.6564 111.214 23.9862 111.214 24.4094C111.214 24.6893 111.112 24.9182 110.907 25.0962C110.705 25.2719 110.428 25.3902 110.078 25.451C110.353 25.4727 110.594 25.5388 110.801 25.6495C111.011 25.7602 111.174 25.9056 111.293 26.0857C111.411 26.2658 111.47 26.473 111.47 26.7073C111.47 26.9829 111.394 27.2227 111.241 27.4267C111.091 27.6285 110.872 27.7858 110.583 27.8986C110.296 28.0093 109.948 28.0646 109.539 28.0646H107ZM108.157 27.137H109.539C109.766 27.137 109.945 27.086 110.074 26.984C110.204 26.8799 110.269 26.7388 110.269 26.5609C110.269 26.3547 110.204 26.1931 110.074 26.0759C109.945 25.9565 109.766 25.8969 109.539 25.8969H108.157V27.137ZM108.157 25.1352H109.225C109.393 25.1352 109.538 25.1124 109.658 25.0669C109.779 25.0191 109.871 24.9529 109.935 24.8683C109.998 24.7815 110.03 24.6785 110.03 24.5591C110.03 24.3877 109.956 24.2531 109.808 24.1555C109.663 24.0578 109.46 24.009 109.201 24.009H108.157V25.1352Z" fill="white"/>
<path d="M118.473 25.0766V26.0433H115.682V25.0766H118.473ZM116.064 23.0651V28.0646H114.873V23.0651H116.064ZM119.282 23.0651V28.0646H118.094V23.0651H119.282Z" fill="white"/>
<path d="M121.112 29.9395C120.943 29.9395 120.787 29.9265 120.644 29.9004C120.503 29.8766 120.39 29.8483 120.306 29.8158L120.593 28.8979C120.773 28.9478 120.933 28.9717 121.074 28.9695C121.215 28.9673 121.339 28.925 121.446 28.8426C121.555 28.7623 121.647 28.6277 121.722 28.439L121.828 28.1688L119.928 23.0651H121.238L122.446 26.8408H122.5L123.712 23.0651H125.025L122.927 28.6701C122.829 28.9348 122.699 29.1616 122.538 29.3503C122.376 29.5413 122.178 29.6867 121.944 29.7865C121.712 29.8885 121.435 29.9395 121.112 29.9395Z" fill="white"/>
<path d="M125.539 28.0646L127.474 25.4835L125.556 23.0651H126.982L128.474 25.0799H128.767V23.0651H130.002V25.0799H130.289L131.78 23.0651H133.206L131.299 25.4835L133.224 28.0646H131.766L130.275 26.0466H130.002V28.0646H128.767V26.0466H128.494L126.996 28.0646H125.539Z" fill="white"/>
<path d="M137.747 25.0766V26.0433H134.956V25.0766H137.747ZM135.338 23.0651V28.0646H134.147V23.0651H135.338ZM138.556 23.0651V28.0646H137.369V23.0651H138.556Z" fill="white"/>
<path d="M142.092 28.1623C141.58 28.1623 141.137 28.0549 140.761 27.8401C140.386 27.6252 140.095 27.3247 139.888 26.9384C139.683 26.5522 139.581 26.1008 139.581 25.5844C139.581 25.068 139.683 24.6155 139.888 24.2271C140.095 23.8387 140.386 23.5371 140.761 23.3222C141.137 23.1074 141.58 23 142.092 23C142.604 23 143.048 23.1074 143.423 23.3222C143.798 23.5371 144.088 23.8387 144.293 24.2271C144.5 24.6155 144.604 25.068 144.604 25.5844C144.604 26.1008 144.5 26.5522 144.293 26.9384C144.088 27.3247 143.798 27.6252 143.423 27.8401C143.048 28.0549 142.604 28.1623 142.092 28.1623ZM142.099 27.2184C142.376 27.2184 142.609 27.1457 142.795 27.0003C142.982 26.8527 143.12 26.6553 143.211 26.4079C143.305 26.1605 143.351 25.8849 143.351 25.5811C143.351 25.2752 143.305 24.9985 143.211 24.7511C143.12 24.5016 142.982 24.3031 142.795 24.1555C142.609 24.0079 142.376 23.9342 142.099 23.9342C141.815 23.9342 141.578 24.0079 141.389 24.1555C141.203 24.3031 141.063 24.5016 140.969 24.7511C140.878 24.9985 140.833 25.2752 140.833 25.5811C140.833 25.8849 140.878 26.1605 140.969 26.4079C141.063 26.6553 141.203 26.8527 141.389 27.0003C141.578 27.1457 141.815 27.2184 142.099 27.2184Z" fill="white"/>
<path d="M147.972 28.1623C147.447 28.1623 146.993 28.0581 146.611 27.8498C146.231 27.6393 145.939 27.3421 145.734 26.958C145.529 26.5717 145.427 26.1171 145.427 25.5942C145.427 25.0799 145.529 24.6285 145.734 24.2401C145.941 23.8495 146.23 23.5457 146.601 23.3287C146.971 23.1096 147.407 23 147.908 23C148.231 23 148.535 23.0499 148.822 23.1497C149.111 23.2474 149.366 23.3993 149.586 23.6054C149.809 23.8116 149.984 24.0741 150.112 24.3931C150.239 24.7099 150.303 25.0875 150.303 25.5258V25.8871H146.007V25.0929H149.119C149.117 24.8672 149.065 24.6665 148.965 24.4908C148.865 24.3128 148.725 24.1729 148.546 24.0709C148.368 23.9689 148.161 23.9179 147.925 23.9179C147.672 23.9179 147.45 23.9765 147.259 24.0937C147.068 24.2087 146.919 24.3606 146.812 24.5493C146.708 24.736 146.654 24.941 146.652 25.1645V25.8578C146.652 26.1486 146.708 26.3981 146.819 26.6064C146.93 26.8126 147.086 26.971 147.287 27.0817C147.487 27.1902 147.721 27.2444 147.989 27.2444C148.169 27.2444 148.332 27.2205 148.477 27.1728C148.623 27.1229 148.749 27.0502 148.856 26.9547C148.963 26.8592 149.044 26.741 149.098 26.5999L150.252 26.7236C150.179 27.0144 150.04 27.2683 149.835 27.4853C149.633 27.7001 149.374 27.8672 149.057 27.9865C148.741 28.1037 148.38 28.1623 147.972 28.1623Z" fill="white"/>
<path d="M153.731 28.0646V23.0651H155.932C156.553 23.0651 157.044 23.1834 157.403 23.4199C157.765 23.6564 157.946 23.9862 157.946 24.4094C157.946 24.6893 157.843 24.9182 157.639 25.0962C157.436 25.2719 157.16 25.3902 156.809 25.451C157.085 25.4727 157.326 25.5388 157.533 25.6495C157.742 25.7602 157.906 25.9056 158.024 26.0857C158.142 26.2658 158.202 26.473 158.202 26.7073C158.202 26.9829 158.125 27.2227 157.973 27.4267C157.823 27.6285 157.603 27.7858 157.314 27.8986C157.028 28.0093 156.68 28.0646 156.27 28.0646H153.731ZM154.888 27.137H156.27C156.498 27.137 156.676 27.086 156.806 26.984C156.936 26.8799 157 26.7388 157 26.5609C157 26.3547 156.936 26.1931 156.806 26.0759C156.676 25.9565 156.498 25.8969 156.27 25.8969H154.888V27.137ZM154.888 25.1352H155.956C156.125 25.1352 156.269 25.1124 156.39 25.0669C156.51 25.0191 156.602 24.9529 156.666 24.8683C156.73 24.7815 156.762 24.6785 156.762 24.5591C156.762 24.3877 156.688 24.2531 156.54 24.1555C156.394 24.0578 156.192 24.009 155.932 24.009H154.888V25.1352Z" fill="white"/>
<path d="M159.221 29.9395V23.0651H160.436V23.8918H160.507C160.571 23.7703 160.661 23.6412 160.777 23.5045C160.893 23.3656 161.05 23.2474 161.248 23.1497C161.446 23.0499 161.698 23 162.005 23C162.41 23 162.776 23.0987 163.101 23.2962C163.428 23.4915 163.688 23.7812 163.879 24.1653C164.072 24.5472 164.169 25.0159 164.169 25.5714C164.169 26.1204 164.074 26.5869 163.886 26.971C163.697 27.3551 163.44 27.648 163.114 27.8498C162.789 28.0516 162.421 28.1525 162.009 28.1525C161.709 28.1525 161.46 28.1048 161.262 28.0093C161.064 27.9138 160.904 27.7988 160.784 27.6643C160.666 27.5276 160.573 27.3985 160.507 27.277H160.456V29.9395H159.221ZM160.432 25.5649C160.432 25.8882 160.48 26.1714 160.576 26.4144C160.674 26.6574 160.813 26.8473 160.995 26.984C161.18 27.1186 161.403 27.1858 161.664 27.1858C161.937 27.1858 162.166 27.1164 162.35 26.9775C162.534 26.8365 162.673 26.6444 162.766 26.4014C162.862 26.1562 162.91 25.8773 162.91 25.5649C162.91 25.2546 162.863 24.979 162.77 24.7381C162.677 24.4973 162.538 24.3085 162.354 24.1718C162.169 24.0351 161.939 23.9667 161.664 23.9667C161.4 23.9667 161.176 24.0329 160.992 24.1653C160.808 24.2976 160.668 24.4832 160.572 24.7218C160.479 24.9605 160.432 25.2416 160.432 25.5649Z" fill="white"/>
<path d="M167.547 28.1623C167.022 28.1623 166.568 28.0581 166.186 27.8498C165.806 27.6393 165.513 27.3421 165.309 26.958C165.104 26.5717 165.001 26.1171 165.001 25.5942C165.001 25.0799 165.104 24.6285 165.309 24.2401C165.516 23.8495 165.805 23.5457 166.175 23.3287C166.546 23.1096 166.982 23 167.482 23C167.805 23 168.11 23.0499 168.397 23.1497C168.686 23.2474 168.94 23.3993 169.161 23.6054C169.384 23.8116 169.559 24.0741 169.687 24.3931C169.814 24.7099 169.878 25.0875 169.878 25.5258V25.8871H165.582V25.0929H168.694C168.691 24.8672 168.64 24.6665 168.54 24.4908C168.44 24.3128 168.3 24.1729 168.12 24.0709C167.943 23.9689 167.736 23.9179 167.499 23.9179C167.247 23.9179 167.025 23.9765 166.834 24.0937C166.643 24.2087 166.494 24.3606 166.387 24.5493C166.282 24.736 166.229 24.941 166.226 25.1645V25.8578C166.226 26.1486 166.282 26.3981 166.394 26.6064C166.505 26.8126 166.661 26.971 166.861 27.0817C167.061 27.1902 167.296 27.2444 167.564 27.2444C167.744 27.2444 167.906 27.2205 168.052 27.1728C168.198 27.1229 168.324 27.0502 168.431 26.9547C168.538 26.8592 168.619 26.741 168.673 26.5999L169.826 26.7236C169.754 27.0144 169.615 27.2683 169.41 27.4853C169.208 27.7001 168.948 27.8672 168.632 27.9865C168.316 28.1037 167.954 28.1623 167.547 28.1623Z" fill="white"/>
<path d="M173.939 26.6943L175.495 23.0651H176.492L174.373 28.0646H173.509L171.438 23.0651H172.424L173.939 26.6943ZM172.114 23.0651V28.0646H170.923V23.0651H172.114ZM175.816 28.0646V23.0651H176.997V28.0646H175.816Z" fill="white"/>
<path d="M181.34 28.0646V24.022H180.221C179.937 24.022 179.718 24.085 179.566 24.2108C179.414 24.3367 179.339 24.4929 179.341 24.6795C179.339 24.8662 179.41 25.0202 179.556 25.1417C179.701 25.2633 179.91 25.324 180.18 25.324H181.729V26.1833H180.18C179.762 26.1833 179.4 26.1204 179.095 25.9945C178.79 25.8687 178.556 25.6907 178.392 25.4607C178.228 25.2307 178.147 24.9616 178.147 24.6535C178.147 24.3323 178.23 24.0535 178.396 23.817C178.564 23.5783 178.803 23.3938 179.112 23.2636C179.424 23.1313 179.794 23.0651 180.221 23.0651H182.497V28.0646H181.34ZM177.955 28.0646L179.419 25.4998H180.637L179.17 28.0646H177.955Z" fill="white"/>
<path d="M192.282 28.0646V23.0651H194.454C195.066 23.0651 195.55 23.1834 195.905 23.4199C196.262 23.6564 196.44 23.9862 196.44 24.4094C196.44 24.6893 196.339 24.9182 196.137 25.0962C195.937 25.2719 195.665 25.3902 195.319 25.451C195.59 25.4727 195.828 25.5388 196.033 25.6495C196.239 25.7602 196.401 25.9056 196.517 26.0857C196.634 26.2658 196.692 26.473 196.692 26.7073C196.692 26.9829 196.617 27.2227 196.467 27.4267C196.319 27.6285 196.102 27.7858 195.817 27.8986C195.534 28.0093 195.191 28.0646 194.787 28.0646H192.282ZM193.424 27.137H194.787C195.011 27.137 195.188 27.086 195.316 26.984C195.443 26.8799 195.507 26.7388 195.507 26.5609C195.507 26.3547 195.443 26.1931 195.316 26.0759C195.188 25.9565 195.011 25.8969 194.787 25.8969H193.424V27.137ZM193.424 25.1352H194.477C194.643 25.1352 194.786 25.1124 194.905 25.0669C195.024 25.0191 195.115 24.9529 195.178 24.8683C195.24 24.7815 195.272 24.6785 195.272 24.5591C195.272 24.3877 195.199 24.2531 195.053 24.1555C194.909 24.0578 194.71 24.009 194.454 24.009H193.424V25.1352Z" fill="white"/>
<path d="M203.601 25.0766V26.0433H200.848V25.0766H203.601ZM201.225 23.0651V28.0646H200.05V23.0651H201.225ZM204.399 23.0651V28.0646H203.228V23.0651H204.399Z" fill="white"/>
<path d="M206.205 29.9395C206.038 29.9395 205.885 29.9265 205.743 29.9004C205.604 29.8765 205.493 29.8483 205.41 29.8158L205.693 28.8979C205.87 28.9478 206.028 28.9717 206.167 28.9695C206.307 28.9673 206.429 28.925 206.534 28.8426C206.642 28.7623 206.733 28.6277 206.807 28.439L206.911 28.1688L205.036 23.0651H206.329L207.521 26.8408H207.575L208.77 23.0651H210.066L207.995 28.6701C207.899 28.9348 207.771 29.1616 207.612 29.3503C207.452 29.5413 207.257 29.6867 207.026 29.7865C206.797 29.8885 206.523 29.9395 206.205 29.9395Z" fill="white"/>
<path d="M210.573 28.0646L212.481 25.4835L210.589 23.0651H211.997L213.468 25.0799H213.757V23.0651H214.976V25.0799H215.259L216.73 23.0651H218.137L216.255 25.4835L218.154 28.0646H216.716L215.245 26.0466H214.976V28.0646H213.757V26.0466H213.488L212.01 28.0646H210.573Z" fill="white"/>
<path d="M222.617 25.0766V26.0433H219.863V25.0766H222.617ZM220.24 23.0651V28.0646H219.065V23.0651H220.24ZM223.415 23.0651V28.0646H222.243V23.0651H223.415Z" fill="white"/>
<path d="M226.903 28.1623C226.398 28.1623 225.961 28.0549 225.59 27.8401C225.22 27.6252 224.933 27.3247 224.729 26.9384C224.527 26.5522 224.426 26.1008 224.426 25.5844C224.426 25.068 224.527 24.6155 224.729 24.2271C224.933 23.8387 225.22 23.5371 225.59 23.3222C225.961 23.1074 226.398 23 226.903 23C227.408 23 227.846 23.1074 228.216 23.3222C228.587 23.5371 228.873 23.8387 229.075 24.2271C229.279 24.6155 229.381 25.068 229.381 25.5844C229.381 26.1008 229.279 26.5522 229.075 26.9384C228.873 27.3247 228.587 27.6252 228.216 27.8401C227.846 28.0549 227.408 28.1623 226.903 28.1623ZM226.91 27.2184C227.184 27.2184 227.413 27.1457 227.597 27.0003C227.781 26.8527 227.918 26.6553 228.008 26.4079C228.1 26.1605 228.146 25.8849 228.146 25.5811C228.146 25.2752 228.1 24.9985 228.008 24.7511C227.918 24.5016 227.781 24.3031 227.597 24.1555C227.413 24.0079 227.184 23.9342 226.91 23.9342C226.63 23.9342 226.396 24.0079 226.21 24.1555C226.026 24.3031 225.888 24.5016 225.796 24.7511C225.706 24.9985 225.661 25.2752 225.661 25.5811C225.661 25.8849 225.706 26.1605 225.796 26.4079C225.888 26.6553 226.026 26.8527 226.21 27.0003C226.396 27.1457 226.63 27.2184 226.91 27.2184Z" fill="white"/>
<path d="M233.392 26.6943L234.927 23.0651H235.91L233.819 28.0646H232.967L230.924 23.0651H231.897L233.392 26.6943ZM231.59 23.0651V28.0646H230.416V23.0651H231.59ZM235.243 28.0646V23.0651H236.408V28.0646H235.243Z" fill="white"/>
<path d="M242.964 26.6943L244.499 23.0651H245.482L243.392 28.0646H242.54L240.497 23.0651H241.469L242.964 26.6943ZM241.163 23.0651V28.0646H239.988V23.0651H241.163ZM244.816 28.0646V23.0651H245.981V28.0646H244.816Z" fill="white"/>
<path d="M249.499 28.1623C248.98 28.1623 248.532 28.0581 248.155 27.8498C247.781 27.6393 247.492 27.3421 247.29 26.958C247.088 26.5717 246.987 26.1171 246.987 25.5942C246.987 25.0799 247.088 24.6285 247.29 24.2401C247.494 23.8495 247.779 23.5457 248.145 23.3287C248.511 23.1096 248.941 23 249.435 23C249.753 23 250.054 23.0499 250.337 23.1497C250.622 23.2474 250.873 23.3993 251.091 23.6054C251.311 23.8116 251.484 24.0741 251.609 24.3931C251.735 24.7099 251.798 25.0875 251.798 25.5258V25.8871H247.559V25.0929H250.63C250.627 24.8672 250.577 24.6665 250.478 24.4908C250.379 24.3128 250.241 24.1729 250.064 24.0709C249.889 23.9689 249.685 23.9179 249.451 23.9179C249.202 23.9179 248.983 23.9765 248.795 24.0937C248.606 24.2087 248.459 24.3606 248.354 24.5493C248.251 24.736 248.198 24.941 248.196 25.1645V25.8578C248.196 26.1486 248.251 26.3981 248.361 26.6064C248.471 26.8126 248.624 26.971 248.822 27.0817C249.019 27.1902 249.251 27.2444 249.515 27.2444C249.693 27.2444 249.853 27.2205 249.997 27.1728C250.14 27.1229 250.265 27.0502 250.37 26.9547C250.476 26.8592 250.556 26.741 250.609 26.5999L251.747 26.7236C251.676 27.0144 251.539 27.2683 251.337 27.4853C251.137 27.7001 250.881 27.8672 250.569 27.9865C250.257 28.1037 249.9 28.1623 249.499 28.1623Z" fill="white"/>
<path d="M255.084 28.1623C254.568 28.1623 254.125 28.0527 253.755 27.8335C253.387 27.6144 253.103 27.3117 252.903 26.9254C252.705 26.537 252.607 26.09 252.607 25.5844C252.607 25.0766 252.708 24.6285 252.91 24.2401C253.112 23.8495 253.397 23.5457 253.765 23.3287C254.135 23.1096 254.573 23 255.078 23C255.497 23 255.869 23.0749 256.192 23.2246C256.517 23.3721 256.777 23.5815 256.97 23.8528C257.163 24.1219 257.273 24.4365 257.3 24.7967H256.135C256.088 24.5558 255.975 24.3551 255.798 24.1946C255.623 24.0318 255.389 23.9504 255.095 23.9504C254.845 23.9504 254.627 24.0155 254.438 24.1457C254.25 24.2738 254.103 24.4582 253.997 24.6991C253.894 24.9399 253.842 25.2285 253.842 25.5649C253.842 25.9056 253.894 26.1985 253.997 26.4437C254.1 26.6867 254.245 26.8744 254.431 27.0068C254.62 27.137 254.841 27.2021 255.095 27.2021C255.274 27.2021 255.435 27.1695 255.576 27.1044C255.72 27.0372 255.84 26.9406 255.936 26.8148C256.033 26.6889 256.099 26.5359 256.135 26.3558H257.3C257.27 26.7095 257.163 27.0231 256.976 27.2965C256.79 27.5677 256.536 27.7804 256.216 27.9345C255.895 28.0863 255.518 28.1623 255.084 28.1623Z" fill="white"/>
<path d="M257.925 24.0318V23.0651H262.449V24.0318H260.776V28.0646H259.598V24.0318H257.925Z" fill="white"/>
<path d="M265.496 28.1623C264.978 28.1623 264.53 28.0581 264.153 27.8498C263.778 27.6393 263.49 27.3421 263.288 26.958C263.086 26.5717 262.985 26.1171 262.985 25.5942C262.985 25.0799 263.086 24.6285 263.288 24.2401C263.492 23.8495 263.777 23.5457 264.143 23.3287C264.509 23.1096 264.938 23 265.432 23C265.751 23 266.052 23.0499 266.334 23.1497C266.619 23.2474 266.871 23.3993 267.088 23.6054C267.308 23.8116 267.481 24.0741 267.607 24.3931C267.733 24.7099 267.795 25.0875 267.795 25.5258V25.8871H263.557V25.0929H266.627C266.625 24.8672 266.575 24.6665 266.476 24.4908C266.377 24.3128 266.239 24.1729 266.062 24.0709C265.887 23.9689 265.682 23.9179 265.449 23.9179C265.2 23.9179 264.981 23.9765 264.793 24.0937C264.604 24.2087 264.457 24.3606 264.352 24.5493C264.248 24.736 264.196 24.941 264.193 25.1645V25.8578C264.193 26.1486 264.248 26.3981 264.358 26.6064C264.468 26.8126 264.622 26.971 264.819 27.0817C265.017 27.1902 265.248 27.2444 265.513 27.2444C265.69 27.2444 265.851 27.2205 265.994 27.1728C266.138 27.1229 266.263 27.0502 266.368 26.9547C266.474 26.8592 266.553 26.741 266.607 26.5999L267.745 26.7236C267.673 27.0144 267.536 27.2683 267.334 27.4853C267.135 27.7001 266.879 27.8672 266.567 27.9865C266.255 28.1037 265.898 28.1623 265.496 28.1623Z" fill="white"/>
<path d="M274.462 28.2806V23.0679H276.748C277.393 23.0679 277.902 23.1912 278.276 23.4378C278.651 23.6844 278.839 24.0283 278.839 24.4695C278.839 24.7613 278.733 25 278.52 25.1856C278.31 25.3688 278.023 25.4921 277.659 25.5555C277.945 25.5781 278.195 25.6471 278.41 25.7625C278.628 25.8779 278.798 26.0295 278.921 26.2172C279.043 26.405 279.105 26.6211 279.105 26.8655C279.105 27.1528 279.026 27.4028 278.867 27.6155C278.711 27.8259 278.483 27.9899 278.183 28.1076C277.886 28.2229 277.524 28.2806 277.099 28.2806H274.462ZM275.664 27.3134H277.099C277.335 27.3134 277.521 27.2603 277.655 27.1539C277.79 27.0453 277.857 26.8983 277.857 26.7127C277.857 26.4978 277.79 26.3292 277.655 26.2071C277.521 26.0826 277.335 26.0204 277.099 26.0204H275.664V27.3134ZM275.664 25.2263H276.773C276.948 25.2263 277.098 25.2025 277.223 25.155C277.348 25.1052 277.444 25.0362 277.51 24.948C277.576 24.8575 277.609 24.75 277.609 24.6256C277.609 24.4469 277.532 24.3066 277.379 24.2048C277.228 24.103 277.017 24.0521 276.748 24.0521H275.664V25.2263Z" fill="white"/>
<path d="M282.538 28.3824C281.995 28.3824 281.528 28.2682 281.138 28.0397C280.751 27.8112 280.452 27.4956 280.242 27.0928C280.034 26.6878 279.93 26.2218 279.93 25.6946C279.93 25.1652 280.036 24.698 280.249 24.293C280.461 23.8858 280.761 23.569 281.149 23.3428C281.539 23.1143 281.999 23 282.531 23C282.973 23 283.364 23.0781 283.704 23.2342C284.047 23.388 284.319 23.6063 284.523 23.8892C284.726 24.1697 284.842 24.4978 284.87 24.8733H283.644C283.594 24.6222 283.476 24.4129 283.289 24.2455C283.105 24.0758 282.858 23.991 282.549 23.991C282.286 23.991 282.056 24.0588 281.858 24.1946C281.659 24.3281 281.504 24.5204 281.393 24.7715C281.285 25.0227 281.23 25.3236 281.23 25.6743C281.23 26.0295 281.285 26.3349 281.393 26.5906C281.502 26.844 281.654 27.0397 281.85 27.1777C282.049 27.3134 282.282 27.3813 282.549 27.3813C282.738 27.3813 282.907 27.3474 283.055 27.2795C283.207 27.2093 283.333 27.1087 283.435 26.9774C283.536 26.8462 283.606 26.6867 283.644 26.4989H284.87C284.839 26.8677 284.726 27.1946 284.53 27.4797C284.334 27.7625 284.067 27.9842 283.729 28.1449C283.391 28.3033 282.994 28.3824 282.538 28.3824Z" fill="white"/>
<path d="M288.333 28.3824C287.787 28.3824 287.316 28.2738 286.919 28.0566C286.525 27.8372 286.221 27.5272 286.008 27.1268C285.796 26.724 285.689 26.2501 285.689 25.7048C285.689 25.1686 285.796 24.698 286.008 24.293C286.223 23.8858 286.523 23.569 286.909 23.3428C287.294 23.1143 287.746 23 288.266 23C288.601 23 288.918 23.052 289.216 23.1561C289.516 23.2579 289.78 23.4163 290.01 23.6312C290.241 23.8462 290.423 24.1199 290.555 24.4525C290.688 24.7828 290.754 25.1765 290.754 25.6335V26.0102H286.292V25.1822H289.524C289.522 24.9469 289.468 24.7376 289.365 24.5543C289.261 24.3688 289.115 24.2229 288.929 24.1165C288.744 24.0102 288.529 23.957 288.284 23.957C288.021 23.957 287.791 24.0181 287.593 24.1403C287.394 24.2602 287.239 24.4186 287.128 24.6154C287.02 24.81 286.964 25.0238 286.962 25.2568V25.9797C286.962 26.2829 287.02 26.543 287.135 26.7602C287.251 26.9752 287.413 27.1403 287.621 27.2557C287.829 27.3689 288.072 27.4254 288.351 27.4254C288.538 27.4254 288.707 27.4005 288.858 27.3508C289.009 27.2987 289.14 27.2229 289.251 27.1234C289.362 27.0238 289.446 26.9005 289.503 26.7535L290.701 26.8824C290.625 27.1856 290.481 27.4503 290.268 27.6766C290.058 27.9005 289.789 28.0747 289.46 28.1992C289.132 28.3214 288.756 28.3824 288.333 28.3824Z" fill="white"/>
<path d="M295.44 23.0679V24.0758H293.094V28.2806H291.839V23.0679H295.44Z" fill="white"/>
<path d="M295.538 29.7942V27.2693H295.97C296.086 27.1833 296.183 27.0668 296.261 26.9198C296.339 26.7704 296.403 26.5951 296.452 26.3937C296.504 26.1901 296.547 25.9627 296.58 25.7116C296.613 25.4582 296.643 25.1856 296.669 24.8937L296.825 23.0679H300.758V27.2693H301.602V29.7942H300.361V28.2806H296.8V29.7942H295.538ZM297.289 27.2693H299.532V24.0588H297.937L297.852 24.8937C297.805 25.4457 297.742 25.9186 297.664 26.3123C297.586 26.7059 297.461 27.025 297.289 27.2693Z" fill="white"/>
<path d="M304.126 28.3858C303.781 28.3858 303.47 28.327 303.194 28.2094C302.92 28.0895 302.702 27.913 302.542 27.6799C302.383 27.4469 302.304 27.1596 302.304 26.8179C302.304 26.5238 302.361 26.2806 302.474 26.0883C302.588 25.896 302.743 25.7421 302.939 25.6267C303.135 25.5114 303.356 25.4243 303.601 25.3654C303.849 25.3043 304.106 25.2602 304.37 25.2331C304.689 25.2014 304.948 25.1731 305.147 25.1482C305.345 25.1211 305.489 25.0804 305.579 25.0261C305.671 24.9695 305.717 24.8824 305.717 24.7647V24.7444C305.717 24.4887 305.638 24.2907 305.48 24.1505C305.321 24.0102 305.093 23.9401 304.796 23.9401C304.481 23.9401 304.232 24.0057 304.048 24.1369C303.866 24.2681 303.743 24.4231 303.679 24.6018L302.482 24.4389C302.576 24.1222 302.732 23.8575 302.949 23.6448C303.167 23.4299 303.432 23.2692 303.747 23.1629C304.061 23.0543 304.408 23 304.789 23C305.051 23 305.312 23.0294 305.572 23.0882C305.832 23.1471 306.069 23.2443 306.284 23.3801C306.499 23.5136 306.672 23.6957 306.802 23.9265C306.934 24.1573 307 24.4457 307 24.7919V28.2806H305.767V27.5646H305.724C305.646 27.7094 305.536 27.8451 305.395 27.9718C305.255 28.0962 305.079 28.1969 304.867 28.2738C304.656 28.3485 304.409 28.3858 304.126 28.3858ZM304.459 27.4831C304.717 27.4831 304.94 27.4345 305.129 27.3372C305.318 27.2376 305.463 27.1064 305.565 26.9435C305.669 26.7806 305.721 26.603 305.721 26.4107V25.7964C305.681 25.8281 305.612 25.8575 305.515 25.8847C305.421 25.9118 305.314 25.9356 305.196 25.9559C305.078 25.9763 304.961 25.9944 304.845 26.0102C304.73 26.0261 304.629 26.0396 304.544 26.051C304.353 26.0758 304.181 26.1166 304.03 26.1731C303.879 26.2297 303.76 26.3089 303.672 26.4107C303.585 26.5102 303.541 26.6392 303.541 26.7976C303.541 27.0238 303.627 27.1946 303.8 27.31C303.972 27.4254 304.192 27.4831 304.459 27.4831Z" fill="white"/>
</svg>
