<svg width="307" height="89" viewBox="0 0 307 89" fill="none" xmlns="http://www.w3.org/2000/svg">
<path d="M61.8703 23.434V1L96 21.9748V33.8302L61.8703 23.434Z" fill="#26252A"/>
<path d="M61.8703 44.5912V30.1824L96 40.9434V51.8868L61.8703 44.5912Z" fill="#26252A"/>
<path d="M61.8703 67.0252V51.1572L96 58.6352V69.761L61.8703 67.0252Z" fill="#26252A"/>
<path d="M61.8703 87.6352V73.2264L96 76.8742V87.6352H61.8703Z" fill="#26252A"/>
<path d="M61.8703 23.434V1L96 21.9748V33.8302L61.8703 23.434Z" stroke="#26252A"/>
<path d="M61.8703 44.5912V30.1824L96 40.9434V51.8868L61.8703 44.5912Z" stroke="#26252A"/>
<path d="M61.8703 67.0252V51.1572L96 58.6352V69.761L61.8703 67.0252Z" stroke="#26252A"/>
<path d="M61.8703 87.6352V73.2264L96 76.8742V87.6352H61.8703Z" stroke="#26252A"/>
<path d="M1 22.1572L61.8704 1V23.4486L1 34.0126V22.1572Z" fill="#B80006"/>
<path d="M1 51.7044V40.2138L61.8704 30.1899V44.5912L1 51.7044Z" fill="#B80006"/>
<path d="M1 69.5786V58.0881L61.8704 51.1654V67.0252L1 69.5786Z" fill="#B80006"/>
<path d="M1 88V76.1447L61.8704 73.2264V87.6603L1 88Z" fill="#B80006"/>
<path d="M1 22.1572L61.8704 1V23.4486L1 34.0126V22.1572Z" stroke="#B80006"/>
<path d="M1 51.7044V40.2138L61.8704 30.1899V44.5912L1 51.7044Z" stroke="#B80006"/>
<path d="M1 69.5786V58.0881L61.8704 51.1654V67.0252L1 69.5786Z" stroke="#B80006"/>
<path d="M1 88V76.1447L61.8704 73.2264V87.6603L1 88Z" stroke="#B80006"/>
<path d="M109.975 32.224V63.2307H103V32.224H109.975Z" fill="white"/>
<path d="M135.816 34.9162C137.786 36.5872 138.771 39.0164 138.771 42.2037C138.771 45.3601 137.673 47.7892 135.477 49.4912C134.347 50.3577 132.974 50.9766 131.36 51.3479C129.745 51.7192 127.581 51.9049 124.869 51.9049H123.658V63.2307H116.682V32.224H126.031C128.486 32.224 130.439 32.4251 131.893 32.8274C133.378 33.2297 134.686 33.9259 135.816 34.9162ZM130.343 46.0099C131.441 45.2982 131.99 43.983 131.99 42.0644C131.99 40.1149 131.424 38.8152 130.294 38.1654C129.196 37.4846 127.404 37.1442 124.917 37.1442H123.658V46.9847H124.191C127.388 46.9847 129.438 46.6597 130.343 46.0099Z" fill="white"/>
<path d="M161.443 59.2853H156.357L149.672 40.9968L148.897 63.2307H142.455L144.344 32.224H151.9L158.876 52.1834L165.9 32.224H173.456L175.345 63.2307H168.854L168.079 41.0433L161.443 59.2853Z" fill="white"/>
<path d="M188.205 57.8463H200.558V63.2307H181.182V32.224H188.205V57.8463Z" fill="white"/>
<path d="M224.427 51.3943C224.427 55.6957 223.425 58.852 221.423 60.8634C219.421 62.8439 216.789 63.8341 213.528 63.8341C210.266 63.8341 207.666 62.8439 205.729 60.8634C203.823 58.883 202.871 55.7421 202.871 51.4407C202.871 47.1394 203.856 43.9985 205.826 42.018C207.828 40.0066 210.444 39.0009 213.673 39.0009C220.842 39.0009 224.427 43.132 224.427 51.3943ZM217.839 51.3479C217.839 48.501 217.483 46.5669 216.773 45.5457C216.063 44.5246 215.013 44.014 213.624 44.014C212.268 44.014 211.219 44.5246 210.476 45.5457C209.765 46.5669 209.41 48.5319 209.41 51.4407C209.41 56.3919 210.815 58.8675 213.624 58.8675C214.948 58.8675 215.982 58.326 216.725 57.2429C217.467 56.1289 217.839 54.1639 217.839 51.3479Z" fill="white"/>
<path d="M240.206 64.2983H235.313C233.666 64.8244 232.843 65.7682 232.843 67.1298C232.843 68.8627 234.683 69.7291 238.365 69.7291C242.046 69.7291 243.887 68.5997 243.887 66.3407C243.887 65.6599 243.613 65.1493 243.064 64.8089C242.547 64.4685 241.594 64.2983 240.206 64.2983ZM237.638 43.7819C235.41 43.7819 234.296 45.1744 234.296 47.9594C234.296 49.321 234.554 50.3112 235.071 50.9301C235.62 51.549 236.476 51.8585 237.638 51.8585C238.801 51.8585 239.64 51.549 240.157 50.9301C240.674 50.3112 240.932 49.3055 240.932 47.913C240.932 46.4896 240.674 45.4529 240.157 44.8031C239.64 44.1223 238.801 43.7819 237.638 43.7819ZM237.493 38.8616L241.756 39.0937C244.275 39.0937 246.939 38.8616 249.748 38.3975L250.33 41.9716C249.716 42.1263 248.037 42.3894 245.292 42.7607C246.422 44.277 246.987 45.9944 246.987 47.913C246.987 50.5743 246.18 52.7404 244.565 54.4114C242.983 56.0825 240.69 56.918 237.687 56.918C236.621 56.918 235.765 56.8406 235.119 56.6859C234.926 57.2429 234.829 57.7225 234.829 58.1248C234.829 59.146 235.749 59.6566 237.59 59.6566H241.756C244.242 59.6566 246.18 60.1981 247.568 61.2812C248.957 62.3333 249.651 63.8032 249.651 65.6908C249.651 68.4449 248.553 70.6111 246.357 72.1893C244.162 73.7674 241.32 74.5565 237.832 74.5565C234.344 74.5565 231.696 73.9841 229.888 72.8391C228.112 71.7251 227.224 70.1314 227.224 68.0581C227.224 66.8513 227.643 65.7063 228.483 64.6232C229.323 63.5402 230.501 62.6737 232.019 62.0239C230.986 61.374 230.469 60.4457 230.469 59.2388C230.469 58.001 230.954 56.7632 231.922 55.5255C230.76 54.7209 229.856 53.6533 229.21 52.3227C228.564 50.9611 228.241 49.4912 228.241 47.913C228.241 45.2208 229.016 43.0392 230.566 41.3682C232.148 39.6972 234.457 38.8616 237.493 38.8616Z" fill="white"/>
<path d="M260.077 63.2307H253.296V39.4651L260.077 38.9081V63.2307ZM252.666 31.8062C252.666 30.7541 253.054 29.8567 253.829 29.114C254.604 28.3713 255.54 28 256.638 28C257.736 28 258.673 28.3713 259.448 29.114C260.223 29.8567 260.61 30.7541 260.61 31.8062C260.61 32.8274 260.223 33.7248 259.448 34.4984C258.673 35.272 257.736 35.6589 256.638 35.6589C255.54 35.6589 254.604 35.2875 253.829 34.5448C253.054 33.7712 252.666 32.8583 252.666 31.8062Z" fill="white"/>
<path d="M274.614 44.014C272.418 44.014 271.32 44.7102 271.32 46.1027C271.32 46.8454 271.691 47.4798 272.434 48.0059C273.177 48.5319 274.065 48.9961 275.098 49.3984C276.164 49.7697 277.214 50.2029 278.247 50.6981C279.313 51.1622 280.217 51.843 280.96 52.7404C281.702 53.6378 282.074 54.7364 282.074 56.036C282.074 58.3569 281.25 60.2445 279.603 61.699C277.956 63.1224 275.534 63.8341 272.337 63.8341C270.884 63.8341 269.35 63.6794 267.735 63.37C266.153 63.0605 264.991 62.7047 264.248 62.3024L265.895 57.6606C268.414 58.4652 270.674 58.8675 272.676 58.8675C274.711 58.8675 275.728 58.1093 275.728 56.5931C275.728 55.9432 275.357 55.3553 274.614 54.8292C273.871 54.3031 272.967 53.8235 271.901 53.3903C270.868 52.9261 269.818 52.431 268.753 51.9049C267.719 51.3788 266.831 50.6362 266.089 49.6769C265.346 48.7176 264.974 47.6036 264.974 46.3348C264.974 43.9521 265.798 42.1263 267.445 40.8576C269.092 39.5889 271.449 38.9545 274.517 38.9545C277.585 38.9545 279.991 39.4341 281.735 40.3934L280.136 44.9887C277.908 44.3389 276.067 44.014 274.614 44.014Z" fill="white"/>
<path d="M288.998 55.5719V43.9211L284.638 43.6426V39.8364L289.143 39.4651V34.0342L295.925 33.4772V39.4187H302.997L302.61 43.9211H295.877V56.1753C295.877 57.0727 296.022 57.7225 296.313 58.1248C296.603 58.4962 297.217 58.6818 298.153 58.6818C299.09 58.6818 300.139 58.5426 301.302 58.2641L302.319 62.8594C300.737 63.5092 299.122 63.8341 297.475 63.8341C295.86 63.8341 294.633 63.7413 293.794 63.5556C292.986 63.37 292.308 63.1534 291.759 62.9058C291.242 62.6582 290.79 62.3024 290.403 61.8382C290.048 61.3431 289.773 60.9099 289.579 60.5385C289.418 60.1672 289.289 59.6411 289.192 58.9603C289.063 58.032 288.998 56.9025 288.998 55.5719Z" fill="white"/>
<path d="M103 82.2983V75.0938H104.101V78.227H104.828L107.403 75.0938H108.821L105.929 78.5647L108.858 82.2983H107.44L105.09 79.2589H104.101V82.2983H103Z" fill="white"/>
<path d="M113.196 82.4484C112.549 82.4484 111.981 82.2936 111.493 81.9841C111.008 81.6745 110.629 81.2414 110.355 80.6848C110.085 80.1282 109.949 79.4778 109.949 78.7336C109.949 77.9831 110.085 77.328 110.355 76.7683C110.629 76.2086 111.008 75.7739 111.493 75.4644C111.981 75.1548 112.549 75 113.196 75C113.842 75 114.408 75.1548 114.893 75.4644C115.382 75.7739 115.761 76.2086 116.031 76.7683C116.305 77.328 116.442 77.9831 116.442 78.7336C116.442 79.4778 116.305 80.1282 116.031 80.6848C115.761 81.2414 115.382 81.6745 114.893 81.9841C114.408 82.2936 113.842 82.4484 113.196 82.4484ZM113.196 81.454C113.687 81.454 114.091 81.3274 114.408 81.0741C114.725 80.8208 114.96 80.4878 115.113 80.075C115.265 79.6623 115.341 79.2151 115.341 78.7336C115.341 78.252 115.265 77.8033 115.113 77.3874C114.96 76.9715 114.725 76.6354 114.408 76.379C114.091 76.1226 113.687 75.9944 113.196 75.9944C112.704 75.9944 112.3 76.1226 111.983 76.379C111.666 76.6354 111.431 76.9715 111.279 77.3874C111.126 77.8033 111.05 78.252 111.05 78.7336C111.05 79.2151 111.126 79.6623 111.279 80.075C111.431 80.4878 111.666 80.8208 111.983 81.0741C112.3 81.3274 112.704 81.454 113.196 81.454Z" fill="white"/>
<path d="M123.069 75.0938V76.1257H119.748V82.2983H118.648V75.0938H123.069Z" fill="white"/>
<path d="M123.834 84.3621V81.2664H124.431C124.577 81.1132 124.703 80.9475 124.809 80.7692C124.914 80.591 125.006 80.3799 125.084 80.136C125.165 79.889 125.233 79.5888 125.289 79.2355C125.345 78.879 125.395 78.449 125.438 77.9456L125.681 75.0938H130.233V81.2664H131.334V84.3621H130.233V82.2983H124.935V84.3621H123.834ZM125.681 81.2664H129.132V76.1257H126.707L126.52 77.9456C126.443 78.6992 126.346 79.3574 126.231 79.9203C126.116 80.4831 125.933 80.9318 125.681 81.2664Z" fill="white"/>
<path d="M135.429 82.4672C134.975 82.4672 134.563 82.3812 134.193 82.2092C133.823 82.0341 133.529 81.7824 133.311 81.454C133.093 81.1226 132.985 80.7223 132.985 80.2533C132.985 79.8405 133.065 79.5059 133.227 79.2495C133.389 78.99 133.605 78.7867 133.876 78.6398C134.146 78.4928 134.445 78.3834 134.771 78.3114C135.101 78.2364 135.432 78.177 135.765 78.1332C136.2 78.0769 136.553 78.0347 136.823 78.0066C137.097 77.9753 137.296 77.9237 137.42 77.8518C137.548 77.7799 137.612 77.6548 137.612 77.4765V77.439C137.612 76.9762 137.486 76.6166 137.234 76.3602C136.985 76.1038 136.607 75.9756 136.1 75.9756C135.575 75.9756 135.163 76.0913 134.864 76.3227C134.566 76.5541 134.356 76.8011 134.235 77.0638L133.19 76.6886C133.376 76.2508 133.625 75.9099 133.936 75.666C134.25 75.419 134.592 75.247 134.962 75.1501C135.335 75.05 135.702 75 136.063 75C136.293 75 136.557 75.0281 136.856 75.0844C137.158 75.1376 137.448 75.2486 137.728 75.4174C138.011 75.5863 138.246 75.8412 138.433 76.182C138.619 76.5228 138.712 76.9794 138.712 77.5516V82.2983H137.612V81.3227H137.556C137.481 81.479 137.357 81.6463 137.182 81.8246C137.008 82.0028 136.777 82.1545 136.488 82.2795C136.198 82.4046 135.845 82.4672 135.429 82.4672ZM135.597 81.4728C136.032 81.4728 136.399 81.3868 136.697 81.2148C136.999 81.0428 137.226 80.8208 137.378 80.5488C137.534 80.2767 137.612 79.9906 137.612 79.6904V78.6773C137.565 78.7336 137.462 78.7852 137.304 78.8321C137.148 78.8759 136.968 78.9149 136.763 78.9493C136.561 78.9806 136.363 79.0088 136.17 79.0338C135.981 79.0557 135.827 79.0744 135.709 79.0901C135.422 79.1276 135.155 79.1886 134.906 79.273C134.661 79.3543 134.462 79.4778 134.309 79.6435C134.16 79.8061 134.085 80.0281 134.085 80.3096C134.085 80.6942 134.227 80.985 134.51 81.182C134.796 81.3759 135.158 81.4728 135.597 81.4728Z" fill="white"/>
<path d="M145.466 82.2983V75.0938H148.396C149.167 75.0938 149.779 75.2689 150.233 75.6191C150.687 75.9694 150.914 76.4321 150.914 77.0075C150.914 77.4453 150.785 77.7846 150.527 78.0253C150.269 78.263 149.938 78.424 149.534 78.5084C149.798 78.546 150.054 78.6398 150.303 78.7899C150.555 78.94 150.763 79.1463 150.928 79.409C151.093 79.6685 151.175 79.9875 151.175 80.3659C151.175 80.7348 151.082 81.0647 150.896 81.3555C150.709 81.6463 150.442 81.8762 150.093 82.045C149.745 82.2139 149.328 82.2983 148.843 82.2983H145.466ZM146.511 81.2852H148.843C149.223 81.2852 149.52 81.1945 149.734 81.0131C149.949 80.8318 150.056 80.5847 150.056 80.272C150.056 79.8999 149.949 79.6076 149.734 79.3949C149.52 79.1792 149.223 79.0713 148.843 79.0713H146.511V81.2852ZM146.511 78.1144H148.396C148.691 78.1144 148.944 78.0738 149.156 77.9925C149.367 77.9081 149.529 77.7892 149.641 77.636C149.756 77.4797 149.814 77.2952 149.814 77.0826C149.814 76.7792 149.688 76.5416 149.436 76.3696C149.184 76.1945 148.837 76.1069 148.396 76.1069H146.511V78.1144Z" fill="white"/>
<path d="M153.367 85V75.0938H154.431V76.2383H154.561C154.642 76.1132 154.754 75.9537 154.897 75.7598C155.043 75.5629 155.252 75.3877 155.522 75.2345C155.796 75.0782 156.166 75 156.632 75C157.235 75 157.767 75.1517 158.227 75.455C158.688 75.7583 159.047 76.1882 159.305 76.7448C159.563 77.3014 159.692 77.9581 159.692 78.7148C159.692 79.4778 159.563 80.1391 159.305 80.6989C159.047 81.2555 158.689 81.687 158.232 81.9934C157.775 82.2967 157.248 82.4484 156.651 82.4484C156.191 82.4484 155.822 82.3718 155.545 82.2186C155.269 82.0622 155.056 81.8856 154.906 81.6886C154.757 81.4884 154.642 81.3227 154.561 81.1914H154.468V85H153.367ZM154.449 78.6961C154.449 79.2401 154.529 79.7201 154.687 80.136C154.846 80.5488 155.077 80.8724 155.382 81.1069C155.687 81.3383 156.06 81.454 156.502 81.454C156.962 81.454 157.346 81.3321 157.654 81.0882C157.965 80.8412 158.198 80.5097 158.353 80.0938C158.512 79.6748 158.591 79.2089 158.591 78.6961C158.591 78.1895 158.513 77.733 158.358 77.3265C158.206 76.9168 157.974 76.5932 157.663 76.3555C157.355 76.1148 156.968 75.9944 156.502 75.9944C156.054 75.9944 155.678 76.1085 155.373 76.3368C155.068 76.5619 154.838 76.8777 154.682 77.2842C154.527 77.6876 154.449 78.1582 154.449 78.6961Z" fill="white"/>
<path d="M164.9 82.4484C164.21 82.4484 163.614 82.2952 163.114 81.9887C162.616 81.6792 162.232 81.2477 161.962 80.6942C161.694 80.1376 161.561 79.4903 161.561 78.7523C161.561 78.0144 161.694 77.364 161.962 76.8011C162.232 76.2351 162.609 75.7942 163.091 75.4784C163.576 75.1595 164.142 75 164.788 75C165.161 75 165.53 75.0625 165.894 75.1876C166.258 75.3127 166.589 75.5159 166.887 75.7974C167.186 76.0757 167.424 76.4447 167.601 76.9043C167.778 77.364 167.867 77.93 167.867 78.6023V79.0713H162.344V78.1144H166.747C166.747 77.7079 166.666 77.3452 166.505 77.0263C166.346 76.7073 166.119 76.4556 165.824 76.2711C165.532 76.0866 165.186 75.9944 164.788 75.9944C164.35 75.9944 163.971 76.1038 163.65 76.3227C163.333 76.5385 163.089 76.8199 162.918 77.167C162.747 77.5141 162.661 77.8862 162.661 78.2833V78.9212C162.661 79.4653 162.755 79.9265 162.941 80.3049C163.131 80.6801 163.394 80.9662 163.73 81.1632C164.065 81.3571 164.456 81.454 164.9 81.454C165.189 81.454 165.451 81.4134 165.684 81.3321C165.92 81.2477 166.124 81.1226 166.295 80.9568C166.466 80.788 166.598 80.5785 166.691 80.3283L167.755 80.6285C167.643 80.9912 167.455 81.3102 167.19 81.5854C166.926 81.8574 166.6 82.07 166.211 82.2233C165.822 82.3734 165.385 82.4484 164.9 82.4484Z" fill="white"/>
<path d="M173.985 80.7974L176.485 75.0938H177.529L174.432 82.2983H173.537L170.496 75.0938H171.522L173.985 80.7974ZM171.167 75.0938V82.2983H170.067V75.0938H171.167ZM176.802 82.2983V75.0938H177.903V82.2983H176.802Z" fill="white"/>
<path d="M184.753 82.2983V76.1069H182.85C182.421 76.1069 182.083 76.207 181.838 76.4071C181.592 76.6073 181.469 76.8824 181.469 77.2326C181.469 77.5766 181.58 77.8471 181.8 78.0441C182.024 78.2411 182.33 78.3396 182.719 78.3396H185.033V79.3715H182.719C182.234 79.3715 181.816 79.2855 181.464 79.1135C181.113 78.9415 180.843 78.6961 180.653 78.3771C180.463 78.055 180.368 77.6735 180.368 77.2326C180.368 76.7886 180.468 76.4071 180.667 76.0882C180.866 75.7692 181.15 75.5238 181.52 75.3518C181.894 75.1798 182.337 75.0938 182.85 75.0938H185.798V82.2983H184.753ZM179.977 82.2983L182.01 78.7148H183.204L181.171 82.2983H179.977Z" fill="white"/>
<path d="M193.664 80.666L197.116 75.0938H198.384V82.2983H197.284V76.7261L193.851 82.2983H192.563V75.0938H193.664V80.666Z" fill="white"/>
<path d="M204.844 80.7974L207.344 75.0938H208.389L205.292 82.2983H204.396L201.355 75.0938H202.381L204.844 80.7974ZM202.027 75.0938V82.2983H200.926V75.0938H202.027ZM207.661 82.2983V75.0938H208.762V82.2983H207.661Z" fill="white"/>
<path d="M214.306 82.4484C213.616 82.4484 213.02 82.2952 212.52 81.9887C212.022 81.6792 211.638 81.2477 211.367 80.6942C211.1 80.1376 210.966 79.4903 210.966 78.7523C210.966 78.0144 211.1 77.364 211.367 76.8011C211.638 76.2351 212.014 75.7942 212.496 75.4784C212.981 75.1595 213.547 75 214.194 75C214.567 75 214.936 75.0625 215.299 75.1876C215.663 75.3127 215.994 75.5159 216.293 75.7974C216.591 76.0757 216.829 76.4447 217.007 76.9043C217.184 77.364 217.272 77.93 217.272 78.6023V79.0713H211.75V78.1144H216.153C216.153 77.7079 216.072 77.3452 215.91 77.0263C215.752 76.7073 215.525 76.4556 215.229 76.2711C214.937 76.0866 214.592 75.9944 214.194 75.9944C213.756 75.9944 213.376 76.1038 213.056 76.3227C212.739 76.5385 212.495 76.8199 212.324 77.167C212.153 77.5141 212.067 77.8862 212.067 78.2833V78.9212C212.067 79.4653 212.16 79.9265 212.347 80.3049C212.537 80.6801 212.799 80.9662 213.135 81.1632C213.471 81.3571 213.861 81.454 214.306 81.454C214.595 81.454 214.856 81.4134 215.09 81.3321C215.326 81.2477 215.53 81.1226 215.701 80.9568C215.872 80.788 216.004 80.5785 216.097 80.3283L217.16 80.6285C217.049 80.9912 216.86 81.3102 216.596 81.5854C216.332 81.8574 216.005 82.07 215.617 82.2233C215.228 82.3734 214.791 82.4484 214.306 82.4484Z" fill="white"/>
<path d="M222.476 82.4484C221.786 82.4484 221.19 82.2952 220.69 81.9887C220.192 81.6792 219.808 81.2477 219.538 80.6942C219.27 80.1376 219.136 79.4903 219.136 78.7523C219.136 78.0144 219.27 77.364 219.538 76.8011C219.808 76.2351 220.184 75.7942 220.666 75.4784C221.151 75.1595 221.717 75 222.364 75C222.737 75 223.106 75.0625 223.47 75.1876C223.833 75.3127 224.165 75.5159 224.463 75.7974C224.762 76.0757 224.999 76.4447 225.177 76.9043C225.354 77.364 225.443 77.93 225.443 78.6023V79.0713H219.92V78.1144H224.323C224.323 77.7079 224.242 77.3452 224.081 77.0263C223.922 76.7073 223.695 76.4556 223.4 76.2711C223.107 76.0866 222.762 75.9944 222.364 75.9944C221.926 75.9944 221.546 76.1038 221.226 76.3227C220.909 76.5385 220.665 76.8199 220.494 77.167C220.323 77.5141 220.237 77.8862 220.237 78.2833V78.9212C220.237 79.4653 220.331 79.9265 220.517 80.3049C220.707 80.6801 220.97 80.9662 221.305 81.1632C221.641 81.3571 222.031 81.454 222.476 81.454C222.765 81.454 223.026 81.4134 223.26 81.3321C223.496 81.2477 223.7 81.1226 223.871 80.9568C224.042 80.788 224.174 80.5785 224.267 80.3283L225.331 80.6285C225.219 80.9912 225.031 81.3102 224.766 81.5854C224.502 81.8574 224.175 82.07 223.787 82.2233C223.398 82.3734 222.961 82.4484 222.476 82.4484Z" fill="white"/>
<path d="M226.975 76.1257V75.0938H232.796V76.1257H230.446V82.2983H229.345V76.1257H226.975Z" fill="white"/>
<path d="M238.699 80.4597H239.875C239.9 80.7849 240.046 81.0319 240.313 81.2007C240.584 81.3696 240.935 81.454 241.367 81.454C241.809 81.454 242.187 81.3634 242.501 81.182C242.815 80.9975 242.972 80.7004 242.972 80.2908C242.972 80.05 242.913 79.8405 242.795 79.6623C242.676 79.4809 242.51 79.3402 242.295 79.2402C242.081 79.1401 241.827 79.0901 241.535 79.0901H240.304V78.0957H241.535C241.974 78.0957 242.297 77.9956 242.505 77.7955C242.717 77.5954 242.822 77.3452 242.822 77.045C242.822 76.723 242.709 76.465 242.482 76.2711C242.255 76.0741 241.933 75.9756 241.516 75.9756C241.097 75.9756 240.747 76.071 240.467 76.2617C240.187 76.4493 240.039 76.6917 240.024 76.9887H238.867C238.88 76.601 238.998 76.2586 239.222 75.9615C239.446 75.6614 239.75 75.4268 240.136 75.258C240.521 75.086 240.963 75 241.461 75C241.964 75 242.401 75.0891 242.771 75.2674C243.144 75.4425 243.432 75.6817 243.634 75.985C243.839 76.2852 243.942 76.626 243.942 77.0075C243.942 77.414 243.828 77.7423 243.601 77.9925C243.374 78.2427 243.09 78.4209 242.748 78.5272V78.6023C243.018 78.621 243.253 78.7086 243.452 78.8649C243.654 79.0181 243.811 79.2198 243.923 79.47C244.035 79.717 244.091 79.9906 244.091 80.2908C244.091 80.7286 243.975 81.1101 243.741 81.4353C243.508 81.7573 243.188 82.0075 242.781 82.1857C242.373 82.3609 241.908 82.4484 241.386 82.4484C240.879 82.4484 240.425 82.3655 240.024 82.1998C239.623 82.031 239.304 81.798 239.068 81.5009C238.835 81.2008 238.712 80.8537 238.699 80.4597Z" fill="white"/>
<path d="M250.958 78.1895V79.2214H247.002V78.1895H250.958ZM247.264 75.0938V82.2983H246.163V75.0938H247.264ZM251.797 75.0938V82.2983H250.696V75.0938H251.797Z" fill="white"/>
<path d="M256.441 82.4672C255.987 82.4672 255.575 82.3812 255.205 82.2092C254.835 82.0341 254.541 81.7824 254.324 81.454C254.106 81.1226 253.997 80.7223 253.997 80.2533C253.997 79.8405 254.078 79.5059 254.24 79.2495C254.401 78.99 254.617 78.7867 254.888 78.6398C255.158 78.4928 255.457 78.3834 255.783 78.3114C256.113 78.2364 256.444 78.177 256.777 78.1332C257.212 78.0769 257.565 78.0347 257.836 78.0066C258.109 77.9753 258.308 77.9237 258.433 77.8518C258.56 77.7799 258.624 77.6548 258.624 77.4765V77.439C258.624 76.9762 258.498 76.6166 258.246 76.3602C257.997 76.1038 257.62 75.9756 257.113 75.9756C256.587 75.9756 256.175 76.0913 255.877 76.3227C255.578 76.5541 255.368 76.8011 255.247 77.0638L254.202 76.6886C254.389 76.2508 254.638 75.9099 254.949 75.666C255.263 75.419 255.605 75.247 255.975 75.1501C256.348 75.05 256.715 75 257.076 75C257.306 75 257.57 75.0281 257.868 75.0844C258.17 75.1376 258.461 75.2486 258.741 75.4174C259.024 75.5863 259.258 75.8412 259.445 76.182C259.632 76.5228 259.725 76.9794 259.725 77.5516V82.2983H258.624V81.3227H258.568C258.493 81.479 258.369 81.6463 258.195 81.8246C258.021 82.0028 257.789 82.1545 257.5 82.2795C257.211 82.4046 256.858 82.4672 256.441 82.4672ZM256.609 81.4728C257.044 81.4728 257.411 81.3868 257.71 81.2148C258.011 81.0428 258.238 80.8208 258.391 80.5488C258.546 80.2767 258.624 79.9906 258.624 79.6904V78.6773C258.577 78.7336 258.475 78.7852 258.316 78.8321C258.161 78.8759 257.98 78.9149 257.775 78.9493C257.573 78.9806 257.376 79.0088 257.183 79.0338C256.993 79.0557 256.839 79.0744 256.721 79.0901C256.435 79.1276 256.168 79.1886 255.919 79.273C255.673 79.3543 255.474 79.4778 255.322 79.6435C255.172 79.8061 255.098 80.0281 255.098 80.3096C255.098 80.6942 255.239 80.985 255.522 81.182C255.808 81.3759 256.171 81.4728 256.609 81.4728Z" fill="white"/>
<path d="M267.782 75.0938V82.2983H266.681V75.0938H267.782ZM267.353 78.5272V79.5591C267.104 79.6529 266.857 79.7358 266.611 79.8077C266.365 79.8765 266.107 79.9312 265.837 79.9719C265.566 80.0094 265.269 80.0281 264.946 80.0281C264.134 80.0281 263.483 79.8077 262.992 79.3668C262.503 78.9259 262.259 78.2645 262.259 77.3827V75.075H263.36V77.3827C263.36 77.7517 263.43 78.055 263.57 78.2927C263.71 78.5303 263.9 78.707 264.139 78.8227C264.378 78.9384 264.647 78.9962 264.946 78.9962C265.412 78.9962 265.834 78.954 266.21 78.8696C266.589 78.7821 266.97 78.6679 267.353 78.5272Z" fill="white"/>
<path d="M273.331 82.4484C272.64 82.4484 272.045 82.2952 271.544 81.9887C271.047 81.6792 270.663 81.2477 270.392 80.6942C270.125 80.1376 269.991 79.4903 269.991 78.7523C269.991 78.0144 270.125 77.364 270.392 76.8011C270.663 76.2351 271.039 75.7942 271.521 75.4784C272.006 75.1595 272.572 75 273.219 75C273.592 75 273.96 75.0625 274.324 75.1876C274.688 75.3127 275.019 75.5159 275.318 75.7974C275.616 76.0757 275.854 76.4447 276.031 76.9043C276.209 77.364 276.297 77.93 276.297 78.6023V79.0713H270.775V78.1144H275.178C275.178 77.7079 275.097 77.3452 274.935 77.0263C274.777 76.7073 274.55 76.4556 274.254 76.2711C273.962 76.0866 273.617 75.9944 273.219 75.9944C272.78 75.9944 272.401 76.1038 272.081 76.3227C271.763 76.5385 271.519 76.8199 271.348 77.167C271.177 77.5141 271.092 77.8862 271.092 78.2833V78.9212C271.092 79.4653 271.185 79.9265 271.372 80.3049C271.561 80.6801 271.824 80.9662 272.16 81.1632C272.496 81.3571 272.886 81.454 273.331 81.454C273.62 81.454 273.881 81.4134 274.114 81.3321C274.351 81.2477 274.554 81.1226 274.725 80.9568C274.896 80.788 275.028 80.5785 275.122 80.3283L276.185 80.6285C276.073 80.9912 275.885 81.3102 275.621 81.5854C275.357 81.8574 275.03 82.07 274.641 82.2233C274.253 82.3734 273.816 82.4484 273.331 82.4484Z" fill="white"/>
<path d="M283.292 78.1895V79.2214H279.337V78.1895H283.292ZM279.598 75.0938V82.2983H278.497V75.0938H279.598ZM284.131 75.0938V82.2983H283.031V75.0938H284.131Z" fill="white"/>
<path d="M287.768 80.666L291.22 75.0938H292.488V82.2983H291.387V76.7261L287.955 82.2983H286.667V75.0938H287.768V80.666Z" fill="white"/>
<path d="M298.034 82.4484C297.343 82.4484 296.748 82.2952 296.247 81.9887C295.75 81.6792 295.366 81.2477 295.095 80.6942C294.828 80.1376 294.694 79.4903 294.694 78.7523C294.694 78.0144 294.828 77.364 295.095 76.8011C295.366 76.2351 295.742 75.7942 296.224 75.4784C296.709 75.1595 297.275 75 297.922 75C298.295 75 298.663 75.0625 299.027 75.1876C299.391 75.3127 299.722 75.5159 300.02 75.7974C300.319 76.0757 300.557 76.4447 300.734 76.9043C300.911 77.364 301 77.93 301 78.6023V79.0713H295.478V78.1144H299.881C299.881 77.7079 299.8 77.3452 299.638 77.0263C299.479 76.7073 299.252 76.4556 298.957 76.2711C298.665 76.0866 298.32 75.9944 297.922 75.9944C297.483 75.9944 297.104 76.1038 296.783 76.3227C296.466 76.5385 296.222 76.8199 296.051 77.167C295.88 77.5141 295.795 77.8862 295.795 78.2833V78.9212C295.795 79.4653 295.888 79.9265 296.075 80.3049C296.264 80.6801 296.527 80.9662 296.863 81.1632C297.199 81.3571 297.589 81.454 298.034 81.454C298.323 81.454 298.584 81.4134 298.817 81.3321C299.053 81.2477 299.257 81.1226 299.428 80.9568C299.599 80.788 299.731 80.5785 299.825 80.3283L300.888 80.6285C300.776 80.9912 300.588 81.3102 300.324 81.5854C300.059 81.8574 299.733 82.07 299.344 82.2233C298.955 82.3734 298.519 82.4484 298.034 82.4484Z" fill="white"/>
</svg>
