<svg width="258.500000" height="73.541992" viewBox="0 0 258.5 73.542" fill="none" xmlns="http://www.w3.org/2000/svg" xmlns:xlink="http://www.w3.org/1999/xlink">
	<desc>
			Created with Pixso.
	</desc>
	<defs/>
	<rect id="Component 81" width="258.000000" height="72.152542" transform="translate(0.500000 0.886719)" fill="#FFFFFF" fill-opacity="0"/>
	<path id="Vector 1" d="M51.8223 19.4922L51.8223 0.886719L80.5977 18.2822L80.5977 28.1143L51.8223 19.4922ZM51.8223 37.0386L51.8223 25.0889L80.5977 34.0132L80.5977 43.0894L51.8223 37.0386ZM51.8223 42.4839L51.8223 55.644L80.5977 57.9131L80.5977 48.686L51.8223 42.4839ZM51.8223 72.7368L51.8223 60.7871L80.5977 63.812L80.5977 72.7368L51.8223 72.7368Z" fill="#26252A" fill-opacity="1.000000" fill-rule="evenodd"/>
	<path id="Vector 1" d="M51.8223 19.4922L80.5977 28.1143L80.5977 18.2822L51.8223 0.886719L51.8223 19.4922ZM51.8223 37.0386L80.5977 43.0894L80.5977 34.0132L51.8223 25.0889L51.8223 37.0386ZM51.8223 55.644L80.5977 57.9131L80.5977 48.686L51.8223 42.4839L51.8223 55.644ZM51.8223 72.7368L80.5977 72.7368L80.5977 63.812L51.8223 60.7871L51.8223 72.7368Z" stroke="#26252A" stroke-opacity="1.000000" stroke-width="1.000000"/>
	<path id="Vector 2" d="M0.5 18.4331L51.8223 0.886719L51.8223 19.5044L0.5 28.2651L0.5 18.4331ZM0.5 42.938L0.5 33.4082L51.8223 25.0952L51.8223 37.0386L0.5 42.938ZM0.5 48.2319L0.5 57.7617L51.8223 55.644L51.8223 42.4907L0.5 48.2319ZM0.5 73.0391L0.5 63.207L51.8223 60.7871L51.8223 72.7573L0.5 73.0391Z" fill="#B80006" fill-opacity="1.000000" fill-rule="evenodd"/>
	<path id="Vector 2" d="M0.5 18.4331L0.5 28.2651L51.8223 19.5044L51.8223 0.886719L0.5 18.4331ZM0.5 42.938L51.8223 37.0386L51.8223 25.0952L0.5 33.4082L0.5 42.938ZM0.5 57.7617L51.8223 55.644L51.8223 42.4907L0.5 48.2319L0.5 57.7617ZM0.5 73.0391L51.8223 72.7573L51.8223 60.7871L0.5 63.207L0.5 73.0391Z" stroke="#B80006" stroke-opacity="1.000000" stroke-width="1.000000"/>
	<path id="IPMLogist" d="M212.689 26.4355C212.689 25.563 213.016 24.8188 213.67 24.2026C214.322 23.5869 215.113 23.2788 216.037 23.2788C216.963 23.2788 217.754 23.5869 218.406 24.2026C219.061 24.8188 219.387 25.563 219.387 26.4355C219.387 27.2822 219.061 28.0264 218.406 28.668C217.754 29.3096 216.963 29.6304 216.037 29.6304C215.113 29.6304 214.322 29.3228 213.67 28.7065C213.016 28.0649 212.689 27.3081 212.689 26.4355ZM92.3809 26.7817L92.3809 52.4971L86.5 52.4971L86.5 26.7817L92.3809 26.7817ZM114.168 29.0146C115.83 30.4004 116.66 32.415 116.66 35.0586Q116.66 37.5977 115.498 39.3799Q114.863 40.354 113.883 41.1025Q112.453 42.1802 110.412 42.6421C109.051 42.9502 107.225 43.104 104.938 43.104L103.918 43.104L103.918 52.4971L98.0371 52.4971L98.0371 26.7817L105.918 26.7817C107.988 26.7817 109.635 26.9487 110.861 27.2822Q112.08 27.6069 113.109 28.2393Q113.666 28.582 114.168 29.0146ZM135.775 49.2251L131.486 49.2251L125.852 34.0576L125.197 52.4971L119.766 52.4971L121.357 26.7817L127.73 26.7817L133.611 43.335L139.533 26.7817L145.904 26.7817L147.498 52.4971L142.023 52.4971L141.371 34.0962L135.775 49.2251ZM158.34 48.0317L168.754 48.0317L168.754 52.4971L152.418 52.4971L152.418 26.7817L158.34 26.7817L158.34 48.0317ZM243.322 46.145L243.322 36.4829L239.646 36.252L239.646 33.0952L243.445 32.7871L243.445 28.2832L249.162 27.8213L249.162 32.7485L255.125 32.7485L254.799 36.4829L249.121 36.4829L249.121 46.6455C249.121 47.3901 249.244 47.9287 249.488 48.2627C249.734 48.5703 250.252 48.7246 251.041 48.7246C251.83 48.7246 252.715 48.6089 253.695 48.3779L254.553 52.189C253.219 52.728 251.857 52.9976 250.469 52.9976C249.107 52.9976 248.072 52.9204 247.365 52.7666C246.684 52.6123 246.113 52.4331 245.65 52.2275Q245.494 52.1543 245.35 52.0659L245.348 52.0649Q244.879 51.7817 244.506 51.3423C244.207 50.9316 243.975 50.5723 243.812 50.2642C243.676 49.9565 243.566 49.52 243.484 48.9556C243.377 48.1855 243.322 47.249 243.322 46.145ZM109.553 38.2153C110.479 37.625 110.941 36.5342 110.941 34.9429Q110.941 32.9014 109.93 32.0054L109.93 32.0054Q109.738 31.8369 109.514 31.7095Q108.125 30.8623 104.979 30.8623L103.918 30.8623L103.918 39.0234L104.367 39.0234C107.062 39.0234 108.791 38.7539 109.553 38.2153ZM199.896 32.2866L203.49 32.4795C205.613 32.4795 207.859 32.2866 210.229 31.9019L210.719 34.8662C210.201 34.9941 208.785 35.2124 206.471 35.5205Q207.156 36.4243 207.514 37.4434Q207.9 38.5508 207.9 39.7935C207.9 42.0005 207.221 43.7969 205.859 45.1826C204.525 46.5688 202.592 47.2617 200.059 47.2617C199.16 47.2617 198.439 47.1973 197.895 47.0693C197.73 47.5312 197.65 47.9287 197.65 48.2627C197.65 49.1094 198.426 49.5327 199.979 49.5327L203.49 49.5327C205.586 49.5327 207.221 49.9819 208.391 50.8804C209.562 51.7529 210.146 52.9717 210.146 54.5371C210.146 56.8213 209.221 58.6177 207.369 59.9268C205.52 61.2354 203.123 61.8901 200.182 61.8901C197.242 61.8901 195.008 61.415 193.484 60.4658C191.986 59.542 191.238 58.2202 191.238 56.5005Q191.238 56.1992 191.281 55.9043L191.281 55.9038Q191.451 54.7285 192.299 53.6519C193.008 52.7539 194.002 52.0352 195.281 51.4961C194.41 50.957 193.975 50.1875 193.975 49.1865C193.975 48.1597 194.383 47.1333 195.199 46.1069C194.219 45.4395 193.457 44.5542 192.912 43.4507Q192.68 42.9678 192.514 42.4634Q192.096 41.1973 192.096 39.7935C192.096 37.5605 192.748 35.7515 194.055 34.3657C195.391 32.9795 197.336 32.2866 199.896 32.2866ZM218.938 52.4971L213.221 52.4971L213.221 32.7871L218.938 32.3252L218.938 52.4971ZM231.193 36.5601C229.342 36.5601 228.416 37.1372 228.416 38.292C228.416 38.9082 228.73 39.4341 229.355 39.8706C229.982 40.3066 230.73 40.6919 231.604 41.0254C232.502 41.3335 233.387 41.6924 234.258 42.103C235.156 42.4883 235.918 43.0527 236.545 43.7969C237.17 44.5415 237.484 45.4521 237.484 46.5303C237.484 48.4551 236.789 50.0205 235.4 51.2266C234.012 52.4072 231.971 52.9976 229.275 52.9976C228.049 52.9976 226.756 52.8691 225.395 52.6123C224.061 52.356 223.08 52.0605 222.453 51.7271L223.842 47.8774C225.967 48.5449 227.873 48.8784 229.561 48.8784Q231.234 48.8784 231.818 48.0806Q232.133 47.6514 232.133 46.9922C232.133 46.4531 231.82 45.9658 231.193 45.5293C230.568 45.0933 229.805 44.6953 228.906 44.3359C228.035 43.9512 227.15 43.5405 226.252 43.104C225.381 42.668 224.633 42.0518 224.006 41.2563C223.379 40.4609 223.066 39.5366 223.066 38.4844C223.066 36.5083 223.762 34.9941 225.15 33.9419C226.539 32.8901 228.525 32.3638 231.113 32.3638C233.699 32.3638 235.729 32.7617 237.197 33.5571L235.85 37.3682C233.971 36.8291 232.42 36.5601 231.193 36.5601ZM188.879 42.6807C188.879 46.248 188.035 48.8657 186.348 50.5337C184.658 52.1763 182.439 52.9976 179.689 52.9976C176.939 52.9976 174.748 52.1763 173.115 50.5337C171.508 48.8911 170.705 46.2866 170.705 42.7192C170.705 39.1519 171.535 36.5469 173.195 34.9043C174.885 33.2363 177.09 32.4023 179.812 32.4023C185.857 32.4023 188.879 35.8286 188.879 42.6807ZM200.018 36.3672C198.141 36.3672 197.201 37.5225 197.201 39.832C197.201 40.9609 197.418 41.7822 197.854 42.2959C198.316 42.8091 199.039 43.0654 200.018 43.0654C200.998 43.0654 201.707 42.8091 202.143 42.2959C202.578 41.7822 202.795 40.9482 202.795 39.7935C202.795 38.6128 202.578 37.7534 202.143 37.2144C201.707 36.6494 200.998 36.3672 200.018 36.3672ZM183.324 42.6421C183.324 40.2812 183.025 38.6772 182.426 37.8301C181.828 36.9834 180.941 36.5601 179.771 36.5601C178.629 36.5601 177.742 36.9834 177.117 37.8301C176.518 38.6772 176.219 40.3066 176.219 42.7192C176.219 46.8252 177.402 48.8784 179.771 48.8784C180.889 48.8784 181.76 48.4292 182.385 47.5312C183.012 46.6074 183.324 44.9775 183.324 42.6421ZM202.184 53.3823L198.059 53.3823C196.67 53.8188 195.975 54.6016 195.975 55.7305Q195.975 56.1113 196.121 56.4248Q196.797 57.8862 200.631 57.8862C203.734 57.8862 205.287 56.9497 205.287 55.0762C205.287 54.5117 205.057 54.0884 204.594 53.8057C204.156 53.5234 203.354 53.3823 202.184 53.3823Z" fill="#231717" fill-opacity="1.000000" fill-rule="evenodd"/>
	<path id="когда время имеет значение" d="M95.0957 68.4351C94.5508 68.4351 94.0723 68.3066 93.6602 68.0498Q93.4922 67.9438 93.3438 67.8145Q92.9512 67.4741 92.7012 66.9727Q92.3594 66.2803 92.3594 65.354Q92.3594 64.4204 92.7012 63.7241Q92.957 63.2109 93.3574 62.8667L93.3574 62.8667Q93.5 62.7441 93.6602 62.6431Q93.7402 62.5928 93.8242 62.5493L93.8242 62.5493Q94.3848 62.2578 95.0957 62.2578C95.6426 62.2578 96.1191 62.3862 96.5273 62.6431C96.9395 62.8994 97.2598 63.2603 97.4883 63.7241Q97.834 64.4204 97.834 65.354C97.834 65.9712 97.7188 66.5107 97.4883 66.9727C97.2598 67.4341 96.9395 67.7935 96.5273 68.0498C96.1191 68.3066 95.6426 68.4351 95.0957 68.4351ZM113.842 68.4507C113.459 68.4507 113.111 68.3794 112.799 68.2368C112.488 68.0913 112.24 67.8828 112.057 67.6104C111.873 67.3354 111.781 67.0034 111.781 66.6147C111.781 66.2725 111.85 65.9946 111.986 65.7822C112.121 65.5669 112.305 65.3984 112.533 65.2764Q112.875 65.0938 113.287 65.0039C113.564 64.9419 113.844 64.8926 114.125 64.8564C114.492 64.8096 114.789 64.7744 115.018 64.7515C115.248 64.7256 115.416 64.6826 115.521 64.623C115.629 64.5635 115.682 64.4595 115.682 64.3115L115.682 64.2808C115.682 63.897 115.576 63.5986 115.363 63.3857C115.154 63.1733 114.836 63.0669 114.408 63.0669C113.965 63.0669 113.617 63.1631 113.365 63.355C113.115 63.5469 112.938 63.7515 112.836 63.9692L111.955 63.6582C112.111 63.2949 112.32 63.0127 112.584 62.8101C112.848 62.6055 113.137 62.4629 113.449 62.3823C113.764 62.2993 114.072 62.2578 114.377 62.2578C114.57 62.2578 114.793 62.2812 115.045 62.3276C115.299 62.3721 115.545 62.4639 115.781 62.604C116.02 62.7441 116.217 62.9556 116.375 63.2383Q116.611 63.6621 116.611 64.374L116.611 68.3105L115.682 68.3105L115.682 67.5015L115.635 67.5015C115.572 67.6313 115.467 67.77 115.32 67.9175C115.174 68.0654 114.979 68.1914 114.734 68.2949C114.49 68.3989 114.193 68.4507 113.842 68.4507ZM128.967 70.5513L128.967 62.3354L129.863 62.3354L129.863 63.2847L129.973 63.2847C130.041 63.1812 130.135 63.0488 130.256 62.8882Q130.441 62.6431 130.783 62.4521C131.014 62.3228 131.326 62.2578 131.719 62.2578C132.229 62.2578 132.676 62.3838 133.064 62.6353Q133.17 62.7036 133.268 62.7822L133.268 62.7827Q133.705 63.1382 133.973 63.7051C134.189 64.1665 134.299 64.7109 134.299 65.3389C134.299 65.9712 134.189 66.52 133.973 66.9839C133.756 67.4458 133.453 67.8037 133.068 68.0576C132.684 68.3091 132.238 68.4351 131.734 68.4351C131.348 68.4351 131.037 68.3716 130.803 68.2446C130.57 68.1147 130.391 67.9683 130.264 67.8047C130.139 67.6392 130.041 67.5015 129.973 67.3926L129.895 67.3926L129.895 70.5513L128.967 70.5513ZM138.689 68.4351C138.107 68.4351 137.605 68.3081 137.184 68.0537C136.766 67.7969 136.441 67.4395 136.213 66.98C135.988 66.5186 135.875 65.9819 135.875 65.3696C135.875 64.7578 135.988 64.2183 136.213 63.7515C136.441 63.2822 136.758 62.9165 137.164 62.6548C137.574 62.3901 138.051 62.2578 138.596 62.2578C138.91 62.2578 139.221 62.3096 139.527 62.4136C139.834 62.5171 140.113 62.6855 140.365 62.9189C140.617 63.1499 140.818 63.4561 140.967 63.8369C141.117 64.2183 141.191 64.6875 141.191 65.2451L141.191 65.6343L136.805 65.6343C136.818 66.0317 136.896 66.373 137.039 66.6572C137.199 66.9688 137.42 67.2061 137.703 67.3691C137.986 67.5298 138.316 67.6104 138.689 67.6104C138.934 67.6104 139.154 67.5767 139.352 67.5093C139.551 67.4395 139.723 67.3354 139.867 67.1982C140.01 67.0581 140.121 66.8843 140.201 66.6768L141.098 66.9258C141.002 67.2266 140.844 67.4912 140.621 67.7192C140.398 67.9448 140.123 68.1211 139.795 68.2485C139.467 68.373 139.1 68.4351 138.689 68.4351ZM180.346 68.4351C179.764 68.4351 179.262 68.3081 178.84 68.0537C178.42 67.7969 178.098 67.4395 177.869 66.98C177.643 66.5186 177.531 65.9819 177.531 65.3696C177.531 64.7578 177.643 64.2183 177.869 63.7515C178.098 63.2822 178.414 62.9165 178.82 62.6548C179.229 62.3901 179.707 62.2578 180.252 62.2578C180.566 62.2578 180.877 62.3096 181.184 62.4136C181.49 62.5171 181.77 62.6855 182.021 62.9189C182.273 63.1499 182.475 63.4561 182.623 63.8369C182.773 64.2183 182.848 64.6875 182.848 65.2451L182.848 65.6343L178.461 65.6343C178.475 66.0317 178.553 66.373 178.695 66.6572C178.854 66.9688 179.076 67.2061 179.359 67.3691Q179.783 67.6104 180.346 67.6104C180.59 67.6104 180.811 67.5767 181.008 67.5093C181.207 67.4395 181.377 67.3354 181.521 67.1982C181.666 67.0581 181.777 66.8843 181.855 66.6768L182.754 66.9258C182.658 67.2266 182.5 67.4912 182.277 67.7192C182.055 67.9448 181.779 68.1211 181.451 68.2485C181.123 68.373 180.756 68.4351 180.346 68.4351ZM187.234 68.4351C186.652 68.4351 186.15 68.3081 185.729 68.0537C185.309 67.7969 184.984 67.4395 184.758 66.98C184.531 66.5186 184.42 65.9819 184.42 65.3696C184.42 64.7578 184.531 64.2183 184.758 63.7515Q185.016 63.2178 185.43 62.8628L185.43 62.8628L185.43 62.8628Q185.561 62.7495 185.709 62.6548C186.117 62.3901 186.596 62.2578 187.141 62.2578C187.455 62.2578 187.766 62.3096 188.072 62.4136Q188.152 62.4404 188.229 62.4727L188.229 62.4731L188.229 62.4731Q188.598 62.6299 188.91 62.9189C189.162 63.1499 189.361 63.4561 189.512 63.8369C189.662 64.2183 189.736 64.6875 189.736 65.2451L189.736 65.6343L185.35 65.6343C185.363 66.0317 185.439 66.373 185.584 66.6572C185.742 66.9688 185.965 67.2061 186.248 67.3691C186.531 67.5298 186.859 67.6104 187.234 67.6104C187.479 67.6104 187.699 67.5767 187.895 67.5093C188.094 67.4395 188.266 67.3354 188.41 67.1982C188.555 67.0581 188.666 66.8843 188.744 66.6768L189.641 66.9258C189.547 67.2266 189.389 67.4912 189.166 67.7192C188.943 67.9448 188.668 68.1211 188.34 68.2485C188.012 68.373 187.645 68.4351 187.234 68.4351ZM200.914 66.7856L201.904 66.7856C201.926 67.0557 202.049 67.2603 202.273 67.4004C202.502 67.5405 202.799 67.6104 203.162 67.6104C203.535 67.6104 203.854 67.5352 204.119 67.3848C204.383 67.2319 204.516 66.9854 204.516 66.6455C204.516 66.4458 204.465 66.2725 204.365 66.1245C204.266 65.9741 204.127 65.8574 203.945 65.7744C203.764 65.6914 203.551 65.6499 203.305 65.6499L202.266 65.6499L202.266 64.8252L203.305 64.8252C203.674 64.8252 203.947 64.7422 204.123 64.5762C204.301 64.4102 204.389 64.2026 204.389 63.9536C204.389 63.6865 204.293 63.4727 204.102 63.312Q203.814 63.0669 203.289 63.0669C202.934 63.0669 202.639 63.146 202.404 63.3042C202.168 63.46 202.043 63.6606 202.029 63.9072L201.055 63.9072C201.064 63.5854 201.164 63.3018 201.354 63.0552C201.543 62.8062 201.799 62.6118 202.125 62.4717Q202.611 62.2578 203.242 62.2578C203.666 62.2578 204.035 62.3315 204.346 62.4795C204.66 62.625 204.904 62.8232 205.074 63.0747C205.246 63.3237 205.334 63.6064 205.334 63.9229C205.334 64.2598 205.238 64.5322 205.047 64.7397C204.855 64.9473 204.615 65.0947 204.326 65.1831L204.326 65.2451C204.555 65.2607 204.752 65.3335 204.92 65.4634C205.092 65.5903 205.223 65.7573 205.318 65.9648C205.412 66.1699 205.459 66.3965 205.459 66.6455C205.459 67.0088 205.361 67.3252 205.164 67.5947C204.967 67.8618 204.697 68.0693 204.354 68.2173C204.01 68.3623 203.619 68.4351 203.178 68.4351C202.75 68.4351 202.369 68.3662 202.029 68.229C201.691 68.0889 201.424 67.8955 201.225 67.6494C201.027 67.4004 200.924 67.1123 200.914 66.7856ZM215.871 68.4507C215.488 68.4507 215.143 68.3794 214.83 68.2368C214.518 68.0913 214.27 67.8828 214.086 67.6104C213.902 67.3354 213.811 67.0034 213.811 66.6147C213.811 66.2725 213.879 65.9946 214.016 65.7822C214.152 65.5669 214.334 65.3984 214.562 65.2764C214.791 65.1543 215.043 65.064 215.318 65.0039Q215.734 64.9106 216.154 64.8564C216.521 64.8096 216.82 64.7744 217.047 64.7515C217.279 64.7256 217.447 64.6826 217.551 64.623C217.658 64.5635 217.713 64.4595 217.713 64.3115L217.713 64.2808C217.713 63.897 217.605 63.5986 217.395 63.3857C217.184 63.1733 216.865 63.0669 216.438 63.0669C215.996 63.0669 215.648 63.1631 215.396 63.355C215.145 63.5469 214.967 63.7515 214.865 63.9692L213.984 63.6582C214.143 63.2949 214.352 63.0127 214.613 62.8101C214.879 62.6055 215.166 62.4629 215.479 62.3823C215.793 62.2993 216.104 62.2578 216.406 62.2578C216.602 62.2578 216.824 62.2812 217.076 62.3276C217.33 62.3721 217.574 62.4639 217.811 62.604Q218.168 62.814 218.404 63.2383C218.562 63.521 218.641 63.8994 218.641 64.374L218.641 68.3105L217.713 68.3105L217.713 67.5015L217.666 67.5015C217.602 67.6313 217.498 67.77 217.352 67.9175C217.203 68.0654 217.008 68.1914 216.766 68.2949C216.521 68.3989 216.223 68.4507 215.871 68.4507ZM230.111 68.4351C229.529 68.4351 229.027 68.3081 228.605 68.0537C228.186 67.7969 227.863 67.4395 227.635 66.98C227.408 66.5186 227.297 65.9819 227.297 65.3696C227.297 64.7578 227.408 64.2183 227.635 63.7515C227.863 63.2822 228.18 62.9165 228.586 62.6548C228.996 62.3901 229.473 62.2578 230.018 62.2578C230.332 62.2578 230.643 62.3096 230.949 62.4136C231.256 62.5171 231.535 62.6855 231.787 62.9189C232.039 63.1499 232.24 63.4561 232.389 63.8369C232.539 64.2183 232.613 64.6875 232.613 65.2451L232.613 65.6343L228.227 65.6343C228.24 66.0317 228.318 66.373 228.461 66.6572C228.621 66.9688 228.842 67.2061 229.125 67.3691C229.408 67.5298 229.736 67.6104 230.111 67.6104C230.355 67.6104 230.576 67.5767 230.773 67.5093C230.973 67.4395 231.145 67.3354 231.287 67.1982C231.432 67.0581 231.543 66.8843 231.623 66.6768L232.52 66.9258C232.424 67.2266 232.266 67.4912 232.043 67.7192C231.82 67.9448 231.545 68.1211 231.217 68.2485Q230.727 68.4351 230.111 68.4351ZM250.939 68.4351C250.357 68.4351 249.855 68.3081 249.434 68.0537C249.014 67.7969 248.691 67.4395 248.463 66.98C248.236 66.5186 248.125 65.9819 248.125 65.3696C248.125 64.7578 248.236 64.2183 248.463 63.7515C248.691 63.2822 249.008 62.9165 249.414 62.6548C249.822 62.3901 250.301 62.2578 250.846 62.2578C251.16 62.2578 251.471 62.3096 251.777 62.4136C252.084 62.5171 252.363 62.6855 252.615 62.9189Q252.992 63.2651 253.217 63.8369C253.367 64.2183 253.441 64.6875 253.441 65.2451L253.441 65.6343L249.055 65.6343C249.068 66.0317 249.146 66.373 249.289 66.6572C249.449 66.9688 249.67 67.2061 249.953 67.3691C250.236 67.5298 250.564 67.6104 250.939 67.6104C251.184 67.6104 251.404 67.5767 251.602 67.5093C251.801 67.4395 251.973 67.3354 252.115 67.1982L252.117 67.1978Q252.332 66.9878 252.449 66.6768L253.348 66.9258C253.252 67.2266 253.094 67.4912 252.871 67.7192C252.648 67.9448 252.373 68.1211 252.045 68.2485Q251.553 68.4351 250.939 68.4351ZM224.506 66.228C224.486 66.2334 224.467 66.2393 224.447 66.2451C224.24 66.3022 224.021 66.3477 223.793 66.3813C223.566 66.4121 223.314 66.4277 223.043 66.4277C222.359 66.4277 221.809 66.2451 221.395 65.8794C220.982 65.5137 220.777 64.9653 220.777 64.2339L220.777 62.3198L221.705 62.3198L221.705 64.2339C221.705 64.54 221.764 64.7915 221.883 64.9888C222 65.1855 222.16 65.332 222.363 65.4282C222.564 65.5239 222.791 65.5723 223.043 65.5723C223.436 65.5723 223.791 65.5371 224.109 65.4668C224.24 65.437 224.373 65.4033 224.506 65.3657L224.506 62.3354L225.434 62.3354L225.434 68.3105L224.506 68.3105L224.506 66.228ZM86.5 68.3105L86.5 62.3354L87.4277 62.3354L87.4277 64.9341L88.041 64.9341L90.2129 62.3354L91.4082 62.3354L88.9688 65.2144L91.4395 68.3105L90.2441 68.3105L88.2617 65.79L87.4277 65.79L87.4277 68.3105L86.5 68.3105ZM103.422 62.3354L103.422 63.1914L100.621 63.1914L100.621 68.3105L99.6934 68.3105L99.6934 62.3354L103.422 62.3354ZM104.066 70.022L104.066 67.4546L104.568 67.4546C104.691 67.3276 104.799 67.1904 104.887 67.0425C104.977 66.8945 105.055 66.7197 105.119 66.5171C105.188 66.3125 105.246 66.0635 105.293 65.7705C105.34 65.4746 105.383 65.1182 105.418 64.7007L105.623 62.3354L109.461 62.3354L109.461 67.4546L110.389 67.4546L110.389 70.022L109.461 70.022L109.461 68.3105L104.994 68.3105L104.994 70.022L104.066 70.022ZM122.305 68.3105L122.305 62.3354L124.775 62.3354C125.426 62.3354 125.941 62.481 126.324 62.7715C126.707 63.0615 126.898 63.4453 126.898 63.9229C126.898 64.2856 126.789 64.5674 126.572 64.7666C126.354 64.9639 126.074 65.0977 125.734 65.1675C125.957 65.1987 126.174 65.2764 126.383 65.4009C126.596 65.5254 126.771 65.6968 126.91 65.9146C127.049 66.1294 127.119 66.394 127.119 66.708C127.119 67.0142 127.039 67.2876 126.883 67.5288C126.725 67.77 126.5 67.9604 126.207 68.1006C125.912 68.2407 125.561 68.3105 125.152 68.3105L122.305 68.3105ZM143.975 63.6553L143.975 68.3105L143.047 68.3105L143.047 62.3354L144.273 62.3354L146.35 67.0659L148.457 62.3354L149.652 62.3354L149.652 68.3105L148.725 68.3105L148.725 63.7393L146.727 68.3105L145.973 68.3105L143.975 63.6553ZM155.43 68.3105L155.43 65.8833L153.809 65.8833L152.408 68.3105L151.402 68.3105L152.875 65.7578C152.799 65.7324 152.727 65.7026 152.656 65.6694Q152.352 65.522 152.143 65.2886Q152.047 65.1826 151.973 65.0586C151.812 64.7915 151.732 64.4751 151.732 64.1094C151.732 63.7412 151.816 63.4248 151.984 63.1602C152.152 62.896 152.391 62.6924 152.703 62.5493C153.018 62.4067 153.393 62.3354 153.824 62.3354L156.311 62.3354L156.311 68.3105L155.43 68.3105ZM162.941 66.957L165.852 62.3354L166.922 62.3354L166.922 68.3105L165.994 68.3105L165.994 63.6895L163.1 68.3105L162.014 68.3105L162.014 62.3354L162.941 62.3354L162.941 66.957ZM169.992 63.6553L169.992 68.3105L169.064 68.3105L169.064 62.3354L170.291 62.3354L172.369 67.0659L174.477 62.3354L175.672 62.3354L175.672 68.3105L174.744 68.3105L174.744 63.7393L172.746 68.3105L171.99 68.3105L169.992 63.6553ZM191.027 63.1914L191.027 62.3354L195.936 62.3354L195.936 63.1914L193.955 63.1914L193.955 68.3105L193.025 68.3105L193.025 63.1914L191.027 63.1914ZM208.135 62.3354L208.135 64.9028L211.029 64.9028L211.029 62.3354L211.957 62.3354L211.957 68.3105L211.029 68.3105L211.029 65.7588L208.135 65.7588L208.135 68.3105L207.205 68.3105L207.205 62.3354L208.135 62.3354ZM235.396 62.3354L235.396 64.9028L238.291 64.9028L238.291 62.3354L239.219 62.3354L239.219 68.3105L238.291 68.3105L238.291 65.7588L235.396 65.7588L235.396 68.3105L234.469 68.3105L234.469 62.3354L235.396 62.3354ZM242.285 66.957L245.195 62.3354L246.264 62.3354L246.264 68.3105L245.336 68.3105L245.336 63.6895L242.441 68.3105L241.357 68.3105L241.357 62.3354L242.285 62.3354L242.285 66.957ZM95.0957 67.6104C95.5098 67.6104 95.8516 67.5054 96.1191 67.2954C96.3867 67.0854 96.584 66.8091 96.7129 66.4668C96.8418 66.1245 96.9062 65.7534 96.9062 65.354C96.9062 64.9551 96.8418 64.5825 96.7129 64.2378C96.584 63.8931 96.3867 63.6143 96.1191 63.4014C95.8516 63.189 95.5098 63.0825 95.0957 63.0825C94.6816 63.0825 94.3418 63.189 94.0742 63.4014C93.8066 63.6143 93.6094 63.8931 93.4805 64.2378Q93.2871 64.7554 93.2871 65.354C93.2871 65.7534 93.3516 66.1245 93.4805 66.4668C93.6094 66.8091 93.8066 67.0854 94.0742 67.2954Q94.1035 67.3188 94.1348 67.3403L94.1348 67.3403Q94.5215 67.6104 95.0957 67.6104ZM129.879 65.3232C129.879 65.7744 129.945 66.1724 130.08 66.5171C130.213 66.8599 130.408 67.1279 130.666 67.3228C130.922 67.5146 131.236 67.6104 131.609 67.6104C131.998 67.6104 132.32 67.5093 132.58 67.3071C132.842 67.1021 133.039 66.8271 133.17 66.4824C133.305 66.1348 133.371 65.7485 133.371 65.3232C133.371 64.9028 133.305 64.5244 133.174 64.187C133.045 63.8477 132.85 63.5791 132.588 63.3818C132.328 63.1821 132.002 63.0825 131.609 63.0825C131.232 63.0825 130.914 63.1772 130.658 63.3662C130.4 63.5532 130.207 63.8149 130.076 64.1523C129.945 64.4868 129.879 64.877 129.879 65.3232ZM136.807 64.8408L140.248 64.8408C140.248 64.5034 140.18 64.2026 140.043 63.9385C139.91 63.6738 139.719 63.4648 139.469 63.312C139.223 63.1592 138.932 63.0825 138.596 63.0825C138.227 63.0825 137.906 63.1733 137.637 63.355C137.369 63.5337 137.164 63.7671 137.02 64.0552C136.895 64.3018 136.824 64.5635 136.807 64.8408ZM178.463 64.8408L181.904 64.8408Q181.904 64.335 181.699 63.9385C181.564 63.6738 181.373 63.4648 181.125 63.312C180.879 63.1592 180.588 63.0825 180.252 63.0825C179.883 63.0825 179.562 63.1733 179.293 63.355C179.025 63.5337 178.818 63.7671 178.676 64.0552C178.551 64.3018 178.48 64.5635 178.463 64.8408ZM185.352 64.8408L188.793 64.8408C188.793 64.5034 188.725 64.2026 188.588 63.9385C188.453 63.6738 188.262 63.4648 188.014 63.312C187.768 63.1592 187.477 63.0825 187.141 63.0825Q186.664 63.0825 186.299 63.2832L186.297 63.2837Q186.238 63.3164 186.182 63.355C185.914 63.5337 185.707 63.7671 185.562 64.0552C185.439 64.3018 185.369 64.5635 185.352 64.8408ZM228.229 64.8408L231.67 64.8408C231.67 64.5034 231.602 64.2026 231.465 63.9385C231.332 63.6738 231.141 63.4648 230.891 63.312C230.645 63.1592 230.354 63.0825 230.018 63.0825C229.648 63.0825 229.328 63.1733 229.059 63.355C228.791 63.5337 228.586 63.7671 228.441 64.0552C228.316 64.3018 228.246 64.5635 228.229 64.8408ZM249.057 64.8408L252.498 64.8408Q252.498 64.335 252.293 63.9385C252.158 63.6738 251.967 63.4648 251.719 63.312Q251.709 63.3062 251.699 63.3003Q251.691 63.2959 251.684 63.2915Q251.326 63.0825 250.846 63.0825C250.477 63.0825 250.156 63.1733 249.887 63.355C249.619 63.5337 249.412 63.7671 249.27 64.0552C249.145 64.3018 249.074 64.5635 249.057 64.8408ZM123.186 64.8408L124.775 64.8408Q125.148 64.8408 125.416 64.7397C125.594 64.6694 125.73 64.5708 125.824 64.4438C125.922 64.3145 125.971 64.1611 125.971 63.9849C125.971 63.7334 125.863 63.5361 125.652 63.3936C125.439 63.2485 125.146 63.1758 124.775 63.1758L123.186 63.1758L123.186 64.8408ZM155.43 65.0273L155.43 63.1758L153.824 63.1758C153.463 63.1758 153.178 63.2588 152.971 63.4248C152.764 63.5908 152.66 63.8188 152.66 64.1094C152.66 64.3945 152.754 64.6191 152.939 64.7822C153.129 64.9458 153.387 65.0273 153.715 65.0273L155.43 65.0273ZM105.623 67.4546L108.533 67.4546L108.533 63.1914L106.488 63.1914L106.33 64.7007Q106.232 65.6382 106.088 66.3384Q105.941 67.0386 105.623 67.4546ZM113.984 67.626C114.35 67.626 114.66 67.5547 114.912 67.4121C115.166 67.2695 115.357 67.0854 115.486 66.8599C115.617 66.6338 115.682 66.3965 115.682 66.1479L115.682 65.3076C115.643 65.354 115.557 65.397 115.422 65.436C115.291 65.4722 115.139 65.5044 114.967 65.5332C114.797 65.5591 114.629 65.5825 114.467 65.603C114.307 65.6211 114.178 65.6367 114.078 65.6499C113.836 65.6812 113.611 65.7314 113.402 65.8018C113.193 65.8691 113.027 65.9712 112.898 66.1089C112.771 66.2437 112.709 66.4277 112.709 66.6611Q112.709 66.9541 112.844 67.1592Q112.928 67.2896 113.066 67.3848C113.309 67.5454 113.613 67.626 113.984 67.626ZM216.014 67.626C216.381 67.626 216.689 67.5547 216.941 67.4121C217.195 67.2695 217.387 67.0854 217.516 66.8599C217.646 66.6338 217.713 66.3965 217.713 66.1479L217.713 65.3076C217.674 65.354 217.586 65.397 217.453 65.436C217.322 65.4722 217.17 65.5044 216.996 65.5332C216.826 65.5591 216.66 65.5825 216.498 65.603C216.338 65.6211 216.207 65.6367 216.107 65.6499C215.867 65.6812 215.641 65.7314 215.432 65.8018C215.225 65.8691 215.057 65.9712 214.928 66.1089C214.803 66.2437 214.74 66.4277 214.74 66.6611C214.74 66.98 214.859 67.2212 215.098 67.3848C215.338 67.5454 215.645 67.626 216.014 67.626ZM123.186 67.4702L125.152 67.4702C125.473 67.4702 125.723 67.395 125.904 67.2446C126.084 67.0942 126.174 66.8896 126.174 66.6299Q126.174 66.2539 125.996 66.0088Q125.955 65.9521 125.904 65.9028C125.723 65.7236 125.473 65.6343 125.152 65.6343L123.186 65.6343L123.186 67.4702Z" fill="#231717" fill-opacity="1.000000" fill-rule="evenodd"/>
</svg>
