<svg width="259" height="74" viewBox="0 0 259 74" fill="none" xmlns="http://www.w3.org/2000/svg">
<path d="M52.3223 19.6054V1L81.0983 18.3953V28.2274L52.3223 19.6054Z" fill="#26252A"/>
<path d="M52.3223 37.1519V25.2021L81.0983 34.1266V43.2024L52.3223 37.1519Z" fill="#26252A"/>
<path d="M52.3223 55.7573V42.5974L81.0983 48.7992V58.0262L52.3223 55.7573Z" fill="#26252A"/>
<path d="M52.3223 72.85V60.9002L81.0983 63.9255V72.85H52.3223Z" fill="#26252A"/>
<path d="M52.3223 19.6054V1L81.0983 18.3953V28.2274L52.3223 19.6054Z" stroke="#26252A"/>
<path d="M52.3223 37.1519V25.2021L81.0983 34.1266V43.2024L52.3223 37.1519Z" stroke="#26252A"/>
<path d="M52.3223 55.7573V42.5974L81.0983 48.7992V58.0262L52.3223 55.7573Z" stroke="#26252A"/>
<path d="M52.3223 72.85V60.9002L81.0983 63.9255V72.85H52.3223Z" stroke="#26252A"/>
<path d="M1 18.5465L52.3221 1V19.6175L1 28.3786V18.5465Z" fill="#B80006"/>
<path d="M1 43.0512V33.5216L52.3221 25.2083V37.1519L1 43.0512Z" fill="#B80006"/>
<path d="M1 57.875V48.3454L52.3221 42.6042V55.7573L1 57.875Z" fill="#B80006"/>
<path d="M1 73.1525V63.3204L52.3221 60.9002V72.8708L1 73.1525Z" fill="#B80006"/>
<path d="M1 18.5465L52.3221 1V19.6175L1 28.3786V18.5465Z" stroke="#B80006"/>
<path d="M1 43.0512V33.5216L52.3221 25.2083V37.1519L1 43.0512Z" stroke="#B80006"/>
<path d="M1 57.875V48.3454L52.3221 42.6042V55.7573L1 57.875Z" stroke="#B80006"/>
<path d="M1 73.1525V63.3204L52.3221 60.9002V72.8708L1 73.1525Z" stroke="#B80006"/>
<path d="M92.8812 26.8952V52.6103H87V26.8952H92.8812Z" fill="#231717"/>
<path d="M114.669 29.128C116.33 30.5138 117.16 32.5284 117.16 35.1718C117.16 37.7895 116.234 39.8041 114.383 41.2156C113.43 41.9342 112.273 42.4475 110.911 42.7554C109.55 43.0634 107.726 43.2174 105.438 43.2174H104.417V52.6103H98.5362V26.8952H106.419C108.488 26.8952 110.135 27.062 111.36 27.3956C112.613 27.7293 113.716 28.3067 114.669 29.128ZM110.054 38.3284C110.979 37.7382 111.442 36.6474 111.442 35.0563C111.442 33.4395 110.966 32.3616 110.013 31.8226C109.087 31.258 107.576 30.9757 105.479 30.9757H104.417V39.1368H104.867C107.562 39.1368 109.291 38.8674 110.054 38.3284Z" fill="#231717"/>
<path d="M136.276 49.3382H131.987L126.351 34.1709L125.698 52.6103H120.266L121.858 26.8952H128.23L134.111 43.4483L140.033 26.8952H146.404L147.997 52.6103H142.524L141.871 34.2094L136.276 49.3382Z" fill="#231717"/>
<path d="M158.84 48.1448H169.255V52.6103H152.918V26.8952H158.84V48.1448Z" fill="#231717"/>
<path d="M189.379 42.7939C189.379 46.3612 188.535 48.9789 186.847 50.647C185.159 52.2895 182.94 53.1108 180.19 53.1108C177.44 53.1108 175.248 52.2895 173.614 50.647C172.008 49.0046 171.205 46.3997 171.205 42.8324C171.205 39.2651 172.035 36.6603 173.696 35.0178C175.384 33.3496 177.59 32.5156 180.312 32.5156C186.357 32.5156 189.379 35.9417 189.379 42.7939ZM183.825 42.7554C183.825 40.3944 183.525 38.7904 182.926 37.9435C182.327 37.0966 181.442 36.6731 180.272 36.6731C179.128 36.6731 178.243 37.0966 177.617 37.9435C177.018 38.7904 176.718 40.42 176.718 42.8324C176.718 46.9386 177.903 48.9917 180.272 48.9917C181.388 48.9917 182.259 48.5426 182.885 47.6444C183.512 46.7205 183.825 45.0908 183.825 42.7554Z" fill="#231717"/>
<path d="M202.683 53.4957H198.558C197.17 53.932 196.475 54.7148 196.475 55.844C196.475 57.2811 198.027 57.9997 201.131 57.9997C204.235 57.9997 205.787 57.063 205.787 55.1895C205.787 54.6249 205.556 54.2015 205.093 53.9192C204.657 53.6369 203.854 53.4957 202.683 53.4957ZM200.519 36.4806C198.64 36.4806 197.7 37.6355 197.7 39.9452C197.7 41.0744 197.918 41.8957 198.354 42.409C198.817 42.9222 199.538 43.1789 200.519 43.1789C201.499 43.1789 202.207 42.9222 202.642 42.409C203.078 41.8957 203.296 41.0616 203.296 39.9067C203.296 38.7262 203.078 37.8665 202.642 37.3275C202.207 36.7629 201.499 36.4806 200.519 36.4806ZM200.396 32.4001L203.99 32.5926C206.114 32.5926 208.36 32.4001 210.729 32.0151L211.219 34.9793C210.702 35.1076 209.286 35.3258 206.972 35.6337C207.925 36.8912 208.401 38.3156 208.401 39.9067C208.401 42.1138 207.72 43.9103 206.359 45.2961C205.025 46.682 203.092 47.3749 200.559 47.3749C199.661 47.3749 198.939 47.3108 198.395 47.1824C198.231 47.6444 198.15 48.0422 198.15 48.3758C198.15 49.2227 198.926 49.6462 200.478 49.6462H203.99C206.087 49.6462 207.72 50.0953 208.891 50.9935C210.062 51.8661 210.647 53.0851 210.647 54.6506C210.647 56.9347 209.722 58.7311 207.87 60.04C206.019 61.3488 203.623 62.0033 200.682 62.0033C197.741 62.0033 195.509 61.5285 193.984 60.5789C192.486 59.655 191.738 58.3334 191.738 56.6139C191.738 55.613 192.092 54.6634 192.799 53.7652C193.507 52.867 194.501 52.1484 195.781 51.6094C194.91 51.0705 194.474 50.3006 194.474 49.2997C194.474 48.2731 194.882 47.2466 195.699 46.22C194.719 45.5528 193.957 44.6674 193.412 43.5638C192.868 42.4346 192.595 41.2156 192.595 39.9067C192.595 37.674 193.249 35.8647 194.556 34.4789C195.89 33.093 197.837 32.4001 200.396 32.4001Z" fill="#231717"/>
<path d="M219.438 52.6103H213.72V32.9005L219.438 32.4386V52.6103ZM213.189 26.5487C213.189 25.6762 213.516 24.9319 214.169 24.316C214.823 23.7001 215.612 23.3921 216.538 23.3921C217.464 23.3921 218.253 23.7001 218.907 24.316C219.56 24.9319 219.887 25.6762 219.887 26.5487C219.887 27.3956 219.56 28.1399 218.907 28.7815C218.253 29.4231 217.464 29.7439 216.538 29.7439C215.612 29.7439 214.823 29.4359 214.169 28.82C213.516 28.1784 213.189 27.4213 213.189 26.5487Z" fill="#231717"/>
<path d="M231.694 36.6731C229.843 36.6731 228.917 37.2505 228.917 38.4054C228.917 39.0213 229.23 39.5475 229.856 39.9837C230.483 40.42 231.231 40.805 232.103 41.1386C233.001 41.4466 233.886 41.8059 234.757 42.2165C235.656 42.6014 236.418 43.166 237.044 43.9103C237.671 44.6545 237.984 45.5656 237.984 46.6435C237.984 48.5683 237.289 50.1338 235.901 51.34C234.512 52.5205 232.47 53.1108 229.775 53.1108C228.549 53.1108 227.256 52.9824 225.895 52.7258C224.56 52.4692 223.58 52.174 222.954 51.8404L224.343 47.9908C226.466 48.6581 228.372 48.9917 230.06 48.9917C231.776 48.9917 232.634 48.363 232.634 47.1054C232.634 46.5665 232.32 46.0789 231.694 45.6426C231.068 45.2063 230.306 44.8085 229.407 44.4492C228.536 44.0643 227.651 43.6537 226.752 43.2174C225.881 42.7811 225.132 42.1652 224.506 41.3696C223.88 40.574 223.567 39.6501 223.567 38.5979C223.567 36.6218 224.261 35.1076 225.65 34.0554C227.038 33.0032 229.026 32.4771 231.612 32.4771C234.199 32.4771 236.228 32.8749 237.698 33.6704L236.35 37.4815C234.471 36.9426 232.919 36.6731 231.694 36.6731Z" fill="#231717"/>
<path d="M243.822 46.2585V36.5961L240.146 36.3651V33.2085L243.944 32.9005V28.3965L249.662 27.9346V32.862H255.625L255.298 36.5961H249.621V46.759C249.621 47.5032 249.744 48.0422 249.989 48.3758C250.234 48.6838 250.751 48.8377 251.541 48.8377C252.331 48.8377 253.215 48.7223 254.196 48.4913L255.053 52.3024C253.719 52.8413 252.358 53.1108 250.969 53.1108C249.608 53.1108 248.573 53.0338 247.865 52.8798C247.185 52.7258 246.613 52.5462 246.15 52.3409C245.714 52.1355 245.333 51.8404 245.006 51.4555C244.707 51.0448 244.475 50.6855 244.312 50.3776C244.176 50.0696 244.067 49.6333 243.985 49.0687C243.876 48.2988 243.822 47.3621 243.822 46.2585Z" fill="#231717"/>
<path d="M87 68.4239V62.4489H87.9281V65.0474H88.5416L90.7124 62.4489H91.9079L89.4697 65.3275L91.9394 68.4239H90.7439L88.7618 65.9032H87.9281V68.4239H87Z" fill="#231717"/>
<path d="M95.5963 68.5483C95.051 68.5483 94.5725 68.42 94.1609 68.1632C93.7519 67.9065 93.432 67.5473 93.2013 67.0857C92.9732 66.6241 92.8592 66.0847 92.8592 65.4675C92.8592 64.8451 92.9732 64.3018 93.2013 63.8376C93.432 63.3734 93.7519 63.0129 94.1609 62.7562C94.5725 62.4995 95.051 62.3711 95.5963 62.3711C96.1416 62.3711 96.6188 62.4995 97.0278 62.7562C97.4394 63.0129 97.7592 63.3734 97.9873 63.8376C98.2181 64.3018 98.3334 64.8451 98.3334 65.4675C98.3334 66.0847 98.2181 66.6241 97.9873 67.0857C97.7592 67.5473 97.4394 67.9065 97.0278 68.1632C96.6188 68.42 96.1416 68.5483 95.5963 68.5483ZM95.5963 67.7237C96.0105 67.7237 96.3514 67.6186 96.6188 67.4086C96.8862 67.1985 97.0841 66.9223 97.2126 66.58C97.3411 66.2377 97.4053 65.8669 97.4053 65.4675C97.4053 65.0681 97.3411 64.696 97.2126 64.3511C97.0841 64.0062 96.8862 63.7274 96.6188 63.5147C96.3514 63.3021 96.0105 63.1958 95.5963 63.1958C95.1821 63.1958 94.8412 63.3021 94.5738 63.5147C94.3064 63.7274 94.1085 64.0062 93.98 64.3511C93.8515 64.696 93.7873 65.0681 93.7873 65.4675C93.7873 65.8669 93.8515 66.2377 93.98 66.58C94.1085 66.9223 94.3064 67.1985 94.5738 67.4086C94.8412 67.6186 95.1821 67.7237 95.5963 67.7237Z" fill="#231717"/>
<path d="M103.921 62.4489V63.3047H101.121V68.4239H100.193V62.4489H103.921Z" fill="#231717"/>
<path d="M104.566 70.1355V67.5681H105.069C105.192 67.441 105.299 67.3036 105.388 67.1557C105.477 67.0079 105.554 66.8329 105.62 66.6306C105.688 66.4257 105.746 66.1768 105.793 65.8837C105.84 65.5881 105.882 65.2315 105.919 64.814L106.123 62.4489H109.961V67.5681H110.889V70.1355H109.961V68.4239H105.494V70.1355H104.566ZM106.123 67.5681H109.033V63.3047H106.988L106.831 64.814C106.765 65.439 106.684 65.9849 106.587 66.4517C106.49 66.9185 106.335 67.2906 106.123 67.5681Z" fill="#231717"/>
<path d="M114.342 68.5639C113.959 68.5639 113.612 68.4926 113.3 68.35C112.988 68.2047 112.74 67.996 112.556 67.7237C112.373 67.4488 112.281 67.1168 112.281 66.7278C112.281 66.3855 112.349 66.108 112.486 65.8954C112.622 65.6802 112.804 65.5116 113.032 65.3897C113.26 65.2678 113.512 65.1771 113.787 65.1174C114.065 65.0552 114.344 65.0059 114.625 64.9696C114.992 64.9229 115.29 64.8879 115.518 64.8646C115.748 64.8386 115.916 64.7958 116.021 64.7362C116.129 64.6765 116.182 64.5728 116.182 64.425V64.3939C116.182 64.0101 116.076 63.7118 115.864 63.4992C115.654 63.2865 115.335 63.1802 114.908 63.1802C114.465 63.1802 114.118 63.2762 113.866 63.4681C113.614 63.66 113.437 63.8648 113.335 64.0827L112.454 63.7715C112.611 63.4084 112.821 63.1257 113.083 62.9235C113.348 62.7186 113.637 62.576 113.949 62.4956C114.263 62.4126 114.573 62.3711 114.877 62.3711C115.071 62.3711 115.294 62.3944 115.545 62.4411C115.8 62.4852 116.045 62.5773 116.281 62.7173C116.519 62.8573 116.717 63.0687 116.874 63.3514C117.032 63.634 117.11 64.0127 117.11 64.4872V68.4239H116.182V67.6148H116.135C116.072 67.7444 115.967 67.8832 115.821 68.031C115.674 68.1788 115.478 68.3046 115.235 68.4083C114.991 68.512 114.693 68.5639 114.342 68.5639ZM114.483 67.7392C114.85 67.7392 115.16 67.6679 115.412 67.5253C115.666 67.3827 115.857 67.1985 115.986 66.9729C116.117 66.7473 116.182 66.51 116.182 66.2611V65.4208C116.143 65.4675 116.056 65.5103 115.923 65.5492C115.792 65.5855 115.64 65.6179 115.467 65.6464C115.296 65.6724 115.13 65.6957 114.967 65.7165C114.807 65.7346 114.677 65.7502 114.578 65.7631C114.337 65.7943 114.111 65.8448 113.901 65.9148C113.694 65.9823 113.526 66.0847 113.398 66.2222C113.272 66.357 113.209 66.5411 113.209 66.7745C113.209 67.0935 113.329 67.3347 113.567 67.4981C113.808 67.6588 114.114 67.7392 114.483 67.7392Z" fill="#231717"/>
<path d="M122.805 68.4239V62.4489H125.275C125.925 62.4489 126.441 62.5941 126.824 62.8846C127.207 63.175 127.398 63.5588 127.398 64.036C127.398 64.3991 127.29 64.6804 127.072 64.8801C126.854 65.0772 126.575 65.2108 126.234 65.2808C126.457 65.3119 126.673 65.3897 126.883 65.5142C127.096 65.6387 127.271 65.8098 127.41 66.0277C127.549 66.2429 127.619 66.5074 127.619 66.8212C127.619 67.1272 127.54 67.4008 127.383 67.642C127.225 67.8832 127 68.0738 126.706 68.2138C126.413 68.3539 126.061 68.4239 125.652 68.4239H122.805ZM123.686 67.5836H125.652C125.972 67.5836 126.222 67.5084 126.403 67.358C126.584 67.2076 126.675 67.0027 126.675 66.7434C126.675 66.4348 126.584 66.1923 126.403 66.016C126.222 65.837 125.972 65.7476 125.652 65.7476H123.686V67.5836ZM123.686 64.954H125.275C125.524 64.954 125.737 64.9203 125.916 64.8529C126.094 64.7829 126.23 64.6843 126.325 64.5573C126.422 64.4276 126.47 64.2746 126.47 64.0982C126.47 63.8467 126.364 63.6496 126.152 63.507C125.939 63.3617 125.647 63.2891 125.275 63.2891H123.686V64.954Z" fill="#231717"/>
<path d="M129.466 70.6645V62.4489H130.363V63.398H130.473C130.541 63.2943 130.636 63.1621 130.756 63.0013C130.88 62.8379 131.055 62.6927 131.283 62.5656C131.514 62.4359 131.826 62.3711 132.219 62.3711C132.728 62.3711 133.176 62.4969 133.564 62.7484C133.952 63 134.255 63.3565 134.473 63.8182C134.69 64.2798 134.799 64.8244 134.799 65.4519C134.799 66.0847 134.69 66.6332 134.473 67.0974C134.255 67.559 133.954 67.9169 133.568 68.171C133.183 68.4226 132.738 68.5483 132.235 68.5483C131.847 68.5483 131.536 68.4848 131.303 68.3577C131.07 68.2281 130.89 68.0816 130.764 67.9182C130.638 67.7522 130.541 67.6148 130.473 67.5058H130.395V70.6645H129.466ZM130.379 65.4364C130.379 65.8876 130.446 66.2857 130.579 66.6306C130.713 66.9729 130.908 67.2413 131.165 67.4358C131.422 67.6277 131.737 67.7237 132.109 67.7237C132.497 67.7237 132.821 67.6225 133.081 67.4203C133.343 67.2154 133.539 66.9405 133.67 66.5956C133.804 66.2481 133.871 65.8617 133.871 65.4364C133.871 65.0163 133.805 64.6376 133.674 64.3005C133.546 63.9608 133.351 63.6924 133.088 63.4953C132.829 63.2956 132.502 63.1958 132.109 63.1958C131.732 63.1958 131.414 63.2904 131.157 63.4797C130.901 63.6664 130.707 63.9284 130.575 64.2655C130.444 64.6 130.379 64.9903 130.379 65.4364Z" fill="#231717"/>
<path d="M139.19 68.5483C138.608 68.5483 138.106 68.4213 137.684 68.1671C137.265 67.9104 136.941 67.5525 136.713 67.0935C136.487 66.6319 136.375 66.0951 136.375 65.4831C136.375 64.871 136.487 64.3316 136.713 63.8648C136.941 63.3954 137.258 63.0298 137.665 62.7679C138.074 62.5034 138.551 62.3711 139.096 62.3711C139.411 62.3711 139.721 62.423 140.028 62.5267C140.335 62.6304 140.614 62.799 140.866 63.0324C141.117 63.2632 141.318 63.5692 141.467 63.9504C141.617 64.3316 141.692 64.801 141.692 65.3586V65.7476H137.035V64.954H140.748C140.748 64.6169 140.68 64.3161 140.543 64.0516C140.41 63.787 140.218 63.5783 139.969 63.4253C139.723 63.2723 139.432 63.1958 139.096 63.1958C138.726 63.1958 138.407 63.2865 138.136 63.4681C137.869 63.647 137.663 63.8804 137.519 64.1683C137.375 64.4561 137.303 64.7647 137.303 65.0941V65.6231C137.303 66.0743 137.381 66.4568 137.539 66.7706C137.699 67.0818 137.92 67.3191 138.203 67.4825C138.486 67.6433 138.816 67.7237 139.19 67.7237C139.434 67.7237 139.654 67.69 139.851 67.6225C140.05 67.5525 140.222 67.4488 140.366 67.3113C140.51 67.1713 140.622 66.9976 140.701 66.7901L141.597 67.039C141.503 67.3399 141.344 67.6044 141.121 67.8326C140.898 68.0582 140.623 68.2346 140.295 68.3616C139.968 68.4861 139.599 68.5483 139.19 68.5483Z" fill="#231717"/>
<path d="M146.85 67.1791L148.958 62.4489H149.839L147.227 68.4239H146.472L143.908 62.4489H144.773L146.85 67.1791ZM144.474 62.4489V68.4239H143.546V62.4489H144.474ZM149.225 68.4239V62.4489H150.153V68.4239H149.225Z" fill="#231717"/>
<path d="M155.929 68.4239V63.2891H154.324C153.962 63.2891 153.678 63.3721 153.471 63.5381C153.264 63.7041 153.16 63.9323 153.16 64.2227C153.16 64.508 153.253 64.7323 153.439 64.8957C153.628 65.0591 153.886 65.1407 154.214 65.1407H156.165V65.9965H154.214C153.805 65.9965 153.453 65.9252 153.156 65.7826C152.86 65.64 152.632 65.4364 152.472 65.1719C152.312 64.9048 152.232 64.5884 152.232 64.2227C152.232 63.8545 152.316 63.5381 152.484 63.2736C152.652 63.009 152.891 62.8055 153.203 62.6628C153.518 62.5202 153.892 62.4489 154.324 62.4489H156.81V68.4239H155.929ZM151.902 68.4239L153.616 65.4519H154.623L152.909 68.4239H151.902Z" fill="#231717"/>
<path d="M163.442 67.0702L166.352 62.4489H167.422V68.4239H166.494V63.8026L163.6 68.4239H162.514V62.4489H163.442V67.0702Z" fill="#231717"/>
<path d="M172.868 67.1791L174.976 62.4489H175.857L173.246 68.4239H172.491L169.927 62.4489H170.792L172.868 67.1791ZM170.493 62.4489V68.4239H169.565V62.4489H170.493ZM175.244 68.4239V62.4489H176.172V68.4239H175.244Z" fill="#231717"/>
<path d="M180.846 68.5483C180.264 68.5483 179.762 68.4213 179.34 68.1671C178.921 67.9104 178.597 67.5525 178.369 67.0935C178.143 66.6319 178.03 66.0951 178.03 65.4831C178.03 64.871 178.143 64.3316 178.369 63.8648C178.597 63.3954 178.914 63.0298 179.32 62.7679C179.729 62.5034 180.206 62.3711 180.752 62.3711C181.066 62.3711 181.377 62.423 181.684 62.5267C181.991 62.6304 182.27 62.799 182.521 63.0324C182.773 63.2632 182.974 63.5692 183.123 63.9504C183.273 64.3316 183.347 64.801 183.347 65.3586V65.7476H178.691V64.954H182.404C182.404 64.6169 182.335 64.3161 182.199 64.0516C182.065 63.787 181.874 63.5783 181.625 63.4253C181.378 63.2723 181.087 63.1958 180.752 63.1958C180.382 63.1958 180.062 63.2865 179.792 63.4681C179.525 63.647 179.319 63.8804 179.175 64.1683C179.031 64.4561 178.959 64.7647 178.959 65.0941V65.6231C178.959 66.0743 179.037 66.4568 179.194 66.7706C179.354 67.0818 179.576 67.3191 179.859 67.4825C180.142 67.6433 180.471 67.7237 180.846 67.7237C181.09 67.7237 181.31 67.69 181.507 67.6225C181.706 67.5525 181.878 67.4488 182.022 67.3113C182.166 67.1713 182.278 66.9976 182.356 66.7901L183.253 67.039C183.159 67.3399 183 67.6044 182.777 67.8326C182.554 68.0582 182.279 68.2346 181.951 68.3616C181.624 68.4861 181.255 68.5483 180.846 68.5483Z" fill="#231717"/>
<path d="M187.735 68.5483C187.153 68.5483 186.651 68.4213 186.229 68.1671C185.809 67.9104 185.485 67.5525 185.257 67.0935C185.032 66.6319 184.919 66.0951 184.919 65.4831C184.919 64.871 185.032 64.3316 185.257 63.8648C185.485 63.3954 185.803 63.0298 186.209 62.7679C186.618 62.5034 187.095 62.3711 187.64 62.3711C187.955 62.3711 188.266 62.423 188.572 62.5267C188.879 62.6304 189.158 62.799 189.41 63.0324C189.662 63.2632 189.862 63.5692 190.012 63.9504C190.161 64.3316 190.236 64.801 190.236 65.3586V65.7476H185.58V64.954H189.292C189.292 64.6169 189.224 64.3161 189.088 64.0516C188.954 63.787 188.762 63.5783 188.513 63.4253C188.267 63.2723 187.976 63.1958 187.64 63.1958C187.271 63.1958 186.951 63.2865 186.681 63.4681C186.413 63.647 186.208 63.8804 186.063 64.1683C185.919 64.4561 185.847 64.7647 185.847 65.0941V65.6231C185.847 66.0743 185.926 66.4568 186.083 66.7706C186.243 67.0818 186.465 67.3191 186.748 67.4825C187.031 67.6433 187.36 67.7237 187.735 67.7237C187.979 67.7237 188.199 67.69 188.395 67.6225C188.595 67.5525 188.766 67.4488 188.911 67.3113C189.055 67.1713 189.166 66.9976 189.245 66.7901L190.142 67.039C190.047 67.3399 189.889 67.6044 189.666 67.8326C189.443 68.0582 189.168 68.2346 188.84 68.3616C188.512 68.4861 188.144 68.5483 187.735 68.5483Z" fill="#231717"/>
<path d="M191.528 63.3047V62.4489H196.436V63.3047H194.454V68.4239H193.526V63.3047H191.528Z" fill="#231717"/>
<path d="M201.413 66.899H202.404C202.425 67.1687 202.548 67.3736 202.774 67.5136C203.002 67.6537 203.298 67.7237 203.663 67.7237C204.035 67.7237 204.353 67.6485 204.618 67.4981C204.883 67.3451 205.015 67.0987 205.015 66.759C205.015 66.5593 204.966 66.3855 204.866 66.2377C204.766 66.0873 204.626 65.9706 204.445 65.8876C204.264 65.8046 204.051 65.7631 203.804 65.7631H202.766V64.9385H203.804C204.174 64.9385 204.446 64.8555 204.622 64.6895C204.8 64.5235 204.89 64.3161 204.89 64.0671C204.89 63.8 204.794 63.5861 204.602 63.4253C204.411 63.2619 204.14 63.1802 203.788 63.1802C203.434 63.1802 203.14 63.2593 202.904 63.4175C202.668 63.5731 202.543 63.7741 202.53 64.0204H201.555C201.565 63.6989 201.665 63.4149 201.854 63.1685C202.042 62.9196 202.299 62.7251 202.624 62.585C202.949 62.4424 203.322 62.3711 203.741 62.3711C204.166 62.3711 204.534 62.445 204.846 62.5928C205.161 62.738 205.403 62.9364 205.574 63.188C205.747 63.4369 205.833 63.7196 205.833 64.036C205.833 64.3731 205.738 64.6454 205.546 64.8529C205.355 65.0604 205.115 65.2082 204.827 65.2963V65.3586C205.055 65.3741 205.253 65.4468 205.42 65.5764C205.591 65.7035 205.723 65.8708 205.818 66.0782C205.912 66.2831 205.959 66.51 205.959 66.759C205.959 67.122 205.861 67.4384 205.664 67.7081C205.468 67.9752 205.198 68.1827 204.854 68.3305C204.511 68.4757 204.119 68.5483 203.678 68.5483C203.251 68.5483 202.868 68.4796 202.53 68.3422C202.192 68.2021 201.923 68.0089 201.724 67.7626C201.527 67.5136 201.424 67.2258 201.413 66.899Z" fill="#231717"/>
<path d="M211.749 65.0163V65.8721H208.414V65.0163H211.749ZM208.634 62.4489V68.4239H207.706V62.4489H208.634ZM212.456 62.4489V68.4239H211.528V62.4489H212.456Z" fill="#231717"/>
<path d="M216.372 68.5639C215.989 68.5639 215.642 68.4926 215.33 68.35C215.018 68.2047 214.77 67.996 214.587 67.7237C214.403 67.4488 214.311 67.1168 214.311 66.7278C214.311 66.3855 214.379 66.108 214.516 65.8954C214.652 65.6802 214.834 65.5116 215.062 65.3897C215.29 65.2678 215.542 65.1771 215.817 65.1174C216.095 65.0552 216.375 65.0059 216.655 64.9696C217.022 64.9229 217.32 64.8879 217.548 64.8646C217.779 64.8386 217.946 64.7958 218.051 64.7362C218.159 64.6765 218.212 64.5728 218.212 64.425V64.3939C218.212 64.0101 218.106 63.7118 217.894 63.4992C217.684 63.2865 217.366 63.1802 216.938 63.1802C216.495 63.1802 216.148 63.2762 215.896 63.4681C215.644 63.66 215.467 63.8648 215.365 64.0827L214.484 63.7715C214.642 63.4084 214.851 63.1257 215.114 62.9235C215.378 62.7186 215.667 62.576 215.979 62.4956C216.293 62.4126 216.603 62.3711 216.907 62.3711C217.101 62.3711 217.324 62.3944 217.575 62.4411C217.83 62.4852 218.075 62.5773 218.311 62.7173C218.549 62.8573 218.747 63.0687 218.905 63.3514C219.062 63.634 219.141 64.0127 219.141 64.4872V68.4239H218.212V67.6148H218.165C218.102 67.7444 217.997 67.8832 217.851 68.031C217.704 68.1788 217.509 68.3046 217.265 68.4083C217.021 68.512 216.723 68.5639 216.372 68.5639ZM216.514 67.7392C216.881 67.7392 217.19 67.6679 217.442 67.5253C217.696 67.3827 217.887 67.1985 218.016 66.9729C218.147 66.7473 218.212 66.51 218.212 66.2611V65.4208C218.173 65.4675 218.087 65.5103 217.953 65.5492C217.822 65.5855 217.67 65.6179 217.497 65.6464C217.326 65.6724 217.16 65.6957 216.997 65.7165C216.837 65.7346 216.708 65.7502 216.608 65.7631C216.367 65.7943 216.141 65.8448 215.932 65.9148C215.724 65.9823 215.557 66.0847 215.428 66.2222C215.302 66.357 215.239 66.5411 215.239 66.7745C215.239 67.0935 215.359 67.3347 215.597 67.4981C215.838 67.6588 216.144 67.7392 216.514 67.7392Z" fill="#231717"/>
<path d="M225.934 62.4489V68.4239H225.006V62.4489H225.934ZM225.572 65.2963V66.1521C225.362 66.2299 225.154 66.2987 224.947 66.3583C224.74 66.4154 224.522 66.4607 224.294 66.4944C224.066 66.5256 223.815 66.5411 223.543 66.5411C222.858 66.5411 222.309 66.3583 221.895 65.9926C221.483 65.627 221.278 65.0785 221.278 64.3472V62.4333H222.206V64.3472C222.206 64.6532 222.265 64.9048 222.383 65.1018C222.501 65.2989 222.66 65.4455 222.862 65.5414C223.064 65.6374 223.291 65.6853 223.543 65.6853C223.936 65.6853 224.291 65.6503 224.608 65.5803C224.928 65.5077 225.249 65.413 225.572 65.2963Z" fill="#231717"/>
<path d="M230.612 68.5483C230.03 68.5483 229.528 68.4213 229.106 68.1671C228.686 67.9104 228.363 67.5525 228.135 67.0935C227.909 66.6319 227.796 66.0951 227.796 65.4831C227.796 64.871 227.909 64.3316 228.135 63.8648C228.363 63.3954 228.68 63.0298 229.086 62.7679C229.495 62.5034 229.972 62.3711 230.518 62.3711C230.832 62.3711 231.143 62.423 231.45 62.5267C231.757 62.6304 232.036 62.799 232.287 63.0324C232.539 63.2632 232.74 63.5692 232.889 63.9504C233.039 64.3316 233.113 64.801 233.113 65.3586V65.7476H228.457V64.954H232.169C232.169 64.6169 232.101 64.3161 231.965 64.0516C231.831 63.787 231.64 63.5783 231.391 63.4253C231.144 63.2723 230.853 63.1958 230.518 63.1958C230.148 63.1958 229.828 63.2865 229.558 63.4681C229.291 63.647 229.085 63.8804 228.941 64.1683C228.797 64.4561 228.724 64.7647 228.724 65.0941V65.6231C228.724 66.0743 228.803 66.4568 228.96 66.7706C229.12 67.0818 229.342 67.3191 229.625 67.4825C229.908 67.6433 230.237 67.7237 230.612 67.7237C230.856 67.7237 231.076 67.69 231.273 67.6225C231.472 67.5525 231.644 67.4488 231.788 67.3113C231.932 67.1713 232.044 66.9976 232.122 66.7901L233.019 67.039C232.925 67.3399 232.766 67.6044 232.543 67.8326C232.32 68.0582 232.045 68.2346 231.717 68.3616C231.39 68.4861 231.021 68.5483 230.612 68.5483Z" fill="#231717"/>
<path d="M239.011 65.0163V65.8721H235.676V65.0163H239.011ZM235.896 62.4489V68.4239H234.968V62.4489H235.896ZM239.719 62.4489V68.4239H238.791V62.4489H239.719Z" fill="#231717"/>
<path d="M242.785 67.0702L245.695 62.4489H246.765V68.4239H245.836V63.8026L242.942 68.4239H241.857V62.4489H242.785V67.0702Z" fill="#231717"/>
<path d="M251.44 68.5483C250.858 68.5483 250.356 68.4213 249.934 68.1671C249.514 67.9104 249.191 67.5525 248.962 67.0935C248.737 66.6319 248.624 66.0951 248.624 65.4831C248.624 64.871 248.737 64.3316 248.962 63.8648C249.191 63.3954 249.508 63.0298 249.914 62.7679C250.323 62.5034 250.8 62.3711 251.346 62.3711C251.66 62.3711 251.971 62.423 252.278 62.5267C252.584 62.6304 252.864 62.799 253.115 63.0324C253.367 63.2632 253.568 63.5692 253.717 63.9504C253.866 64.3316 253.941 64.801 253.941 65.3586V65.7476H249.285V64.954H252.997C252.997 64.6169 252.929 64.3161 252.793 64.0516C252.659 63.787 252.468 63.5783 252.219 63.4253C251.972 63.2723 251.681 63.1958 251.346 63.1958C250.976 63.1958 250.656 63.2865 250.386 63.4681C250.119 63.647 249.913 63.8804 249.769 64.1683C249.624 64.4561 249.552 64.7647 249.552 65.0941V65.6231C249.552 66.0743 249.631 66.4568 249.788 66.7706C249.948 67.0818 250.17 67.3191 250.453 67.4825C250.736 67.6433 251.065 67.7237 251.44 67.7237C251.684 67.7237 251.904 67.69 252.101 67.6225C252.3 67.5525 252.472 67.4488 252.616 67.3113C252.76 67.1713 252.872 66.9976 252.95 66.7901L253.847 67.039C253.752 67.3399 253.594 67.6044 253.371 67.8326C253.148 68.0582 252.873 68.2346 252.545 68.3616C252.217 68.4861 251.849 68.5483 251.44 68.5483Z" fill="#231717"/>
</svg>
